%FSLAX42Y42*%
%MOMM*%
G71*
G01*
G75*
G04 Layer_Physical_Order=2*
G04 Layer_Color=16711680*
%ADD10R,1.40X1.10*%
%ADD11R,1.10X1.70*%
%ADD12R,1.80X1.30*%
%ADD13R,2.30X2.30*%
%ADD14R,2.10X1.40*%
%ADD15R,3.30X2.40*%
%ADD16R,2.55X1.85*%
%ADD17R,1.35X2.15*%
%ADD18R,1.10X1.40*%
%ADD19O,0.70X2.60*%
%ADD20C,1.27*%
%ADD21C,0.76*%
%ADD22C,1.14*%
%ADD23C,1.02*%
%ADD24C,0.89*%
%ADD25C,0.51*%
%ADD26C,0.64*%
%ADD27C,0.38*%
%ADD28C,0.25*%
%ADD29C,0.10*%
%ADD30C,0.15*%
%ADD31C,1.52*%
%ADD32C,2.97*%
%ADD33R,2.97X2.97*%
%ADD34R,1.50X1.50*%
%ADD35C,1.50*%
%ADD36C,3.23*%
%ADD37C,5.08*%
%ADD38C,1.27*%
G36*
X12539Y7781D02*
X5241D01*
Y15079D01*
X12539D01*
Y7781D01*
D02*
G37*
%LPC*%
G36*
X7747Y9050D02*
X7722Y9046D01*
X7699Y9037D01*
X7679Y9021D01*
X7664Y9002D01*
X7654Y8978D01*
X7651Y8954D01*
X7654Y8929D01*
X7664Y8905D01*
X7679Y8886D01*
X7699Y8870D01*
X7722Y8861D01*
X7747Y8857D01*
X7772Y8861D01*
X7795Y8870D01*
X7815Y8886D01*
X7830Y8905D01*
X7840Y8929D01*
X7843Y8954D01*
X7840Y8978D01*
X7830Y9002D01*
X7815Y9021D01*
X7795Y9037D01*
X7772Y9046D01*
X7747Y9050D01*
D02*
G37*
G36*
X7493D02*
X7468Y9046D01*
X7445Y9037D01*
X7425Y9021D01*
X7410Y9002D01*
X7400Y8978D01*
X7397Y8954D01*
X7400Y8929D01*
X7410Y8905D01*
X7425Y8886D01*
X7445Y8870D01*
X7468Y8861D01*
X7493Y8857D01*
X7518Y8861D01*
X7541Y8870D01*
X7561Y8886D01*
X7576Y8905D01*
X7586Y8929D01*
X7589Y8954D01*
X7586Y8978D01*
X7576Y9002D01*
X7561Y9021D01*
X7541Y9037D01*
X7518Y9046D01*
X7493Y9050D01*
D02*
G37*
G36*
X7239D02*
X7214Y9046D01*
X7191Y9037D01*
X7171Y9021D01*
X7156Y9002D01*
X7146Y8978D01*
X7143Y8954D01*
X7146Y8929D01*
X7156Y8905D01*
X7171Y8886D01*
X7191Y8870D01*
X7214Y8861D01*
X7239Y8857D01*
X7264Y8861D01*
X7287Y8870D01*
X7307Y8886D01*
X7322Y8905D01*
X7332Y8929D01*
X7335Y8954D01*
X7332Y8978D01*
X7322Y9002D01*
X7307Y9021D01*
X7287Y9037D01*
X7264Y9046D01*
X7239Y9050D01*
D02*
G37*
G36*
X8509D02*
X8484Y9046D01*
X8461Y9037D01*
X8441Y9021D01*
X8426Y9002D01*
X8416Y8978D01*
X8413Y8954D01*
X8416Y8929D01*
X8426Y8905D01*
X8441Y8886D01*
X8461Y8870D01*
X8484Y8861D01*
X8509Y8857D01*
X8534Y8861D01*
X8557Y8870D01*
X8577Y8886D01*
X8592Y8905D01*
X8602Y8929D01*
X8605Y8954D01*
X8602Y8978D01*
X8592Y9002D01*
X8577Y9021D01*
X8557Y9037D01*
X8534Y9046D01*
X8509Y9050D01*
D02*
G37*
G36*
X8255D02*
X8230Y9046D01*
X8207Y9037D01*
X8187Y9021D01*
X8172Y9002D01*
X8162Y8978D01*
X8159Y8954D01*
X8162Y8929D01*
X8172Y8905D01*
X8187Y8886D01*
X8207Y8870D01*
X8230Y8861D01*
X8255Y8857D01*
X8280Y8861D01*
X8303Y8870D01*
X8323Y8886D01*
X8338Y8905D01*
X8348Y8929D01*
X8351Y8954D01*
X8348Y8978D01*
X8338Y9002D01*
X8323Y9021D01*
X8303Y9037D01*
X8280Y9046D01*
X8255Y9050D01*
D02*
G37*
G36*
X8001D02*
X7976Y9046D01*
X7953Y9037D01*
X7933Y9021D01*
X7918Y9002D01*
X7908Y8978D01*
X7905Y8954D01*
X7908Y8929D01*
X7918Y8905D01*
X7933Y8886D01*
X7953Y8870D01*
X7976Y8861D01*
X8001Y8857D01*
X8026Y8861D01*
X8049Y8870D01*
X8069Y8886D01*
X8084Y8905D01*
X8094Y8929D01*
X8097Y8954D01*
X8094Y8978D01*
X8084Y9002D01*
X8069Y9021D01*
X8049Y9037D01*
X8026Y9046D01*
X8001Y9050D01*
D02*
G37*
G36*
X6985D02*
X6960Y9046D01*
X6937Y9037D01*
X6917Y9021D01*
X6902Y9002D01*
X6892Y8978D01*
X6889Y8954D01*
X6892Y8929D01*
X6902Y8905D01*
X6917Y8886D01*
X6937Y8870D01*
X6960Y8861D01*
X6985Y8857D01*
X7010Y8861D01*
X7033Y8870D01*
X7053Y8886D01*
X7068Y8905D01*
X7078Y8929D01*
X7081Y8954D01*
X7078Y8978D01*
X7068Y9002D01*
X7053Y9021D01*
X7033Y9037D01*
X7010Y9046D01*
X6985Y9050D01*
D02*
G37*
G36*
X11283Y8793D02*
X11278Y8792D01*
X11255Y8783D01*
X11235Y8767D01*
X11220Y8748D01*
X11210Y8724D01*
X11210Y8720D01*
X11283D01*
Y8793D01*
D02*
G37*
G36*
X11069D02*
Y8720D01*
X11142D01*
X11142Y8724D01*
X11132Y8748D01*
X11117Y8767D01*
X11097Y8783D01*
X11074Y8792D01*
X11069Y8793D01*
D02*
G37*
G36*
X11029D02*
X11024Y8792D01*
X11001Y8783D01*
X10981Y8767D01*
X10966Y8748D01*
X10956Y8724D01*
X10956Y8720D01*
X11029D01*
Y8793D01*
D02*
G37*
G36*
X6731Y9050D02*
X6706Y9046D01*
X6683Y9037D01*
X6663Y9021D01*
X6648Y9002D01*
X6638Y8978D01*
X6635Y8954D01*
X6638Y8929D01*
X6648Y8905D01*
X6663Y8886D01*
X6683Y8870D01*
X6706Y8861D01*
X6731Y8857D01*
X6756Y8861D01*
X6779Y8870D01*
X6799Y8886D01*
X6814Y8905D01*
X6824Y8929D01*
X6827Y8954D01*
X6824Y8978D01*
X6814Y9002D01*
X6799Y9021D01*
X6779Y9037D01*
X6756Y9046D01*
X6731Y9050D01*
D02*
G37*
G36*
X6477D02*
X6452Y9046D01*
X6429Y9037D01*
X6409Y9021D01*
X6394Y9002D01*
X6384Y8978D01*
X6381Y8954D01*
X6384Y8929D01*
X6394Y8905D01*
X6409Y8886D01*
X6429Y8870D01*
X6452Y8861D01*
X6477Y8857D01*
X6502Y8861D01*
X6525Y8870D01*
X6545Y8886D01*
X6560Y8905D01*
X6570Y8929D01*
X6573Y8954D01*
X6570Y8978D01*
X6560Y9002D01*
X6545Y9021D01*
X6525Y9037D01*
X6502Y9046D01*
X6477Y9050D01*
D02*
G37*
G36*
X11323Y8793D02*
Y8720D01*
X11396D01*
X11396Y8724D01*
X11386Y8748D01*
X11371Y8767D01*
X11351Y8783D01*
X11328Y8792D01*
X11323Y8793D01*
D02*
G37*
G36*
X8763Y9050D02*
X8738Y9046D01*
X8715Y9037D01*
X8695Y9021D01*
X8680Y9002D01*
X8670Y8978D01*
X8667Y8954D01*
X8670Y8929D01*
X8680Y8905D01*
X8695Y8886D01*
X8715Y8870D01*
X8738Y8861D01*
X8763Y8857D01*
X8788Y8861D01*
X8811Y8870D01*
X8831Y8886D01*
X8846Y8905D01*
X8856Y8929D01*
X8859Y8954D01*
X8856Y8978D01*
X8846Y9002D01*
X8831Y9021D01*
X8811Y9037D01*
X8788Y9046D01*
X8763Y9050D01*
D02*
G37*
G36*
X10888Y8933D02*
X10815D01*
Y8860D01*
X10820Y8861D01*
X10843Y8870D01*
X10863Y8886D01*
X10878Y8905D01*
X10888Y8929D01*
X10888Y8933D01*
D02*
G37*
G36*
X10775D02*
X10702D01*
X10702Y8929D01*
X10712Y8905D01*
X10727Y8886D01*
X10747Y8870D01*
X10770Y8861D01*
X10775Y8860D01*
Y8933D01*
D02*
G37*
G36*
X10634D02*
X10561D01*
Y8860D01*
X10566Y8861D01*
X10589Y8870D01*
X10609Y8886D01*
X10624Y8905D01*
X10634Y8929D01*
X10634Y8933D01*
D02*
G37*
G36*
X11283D02*
X11210D01*
X11210Y8929D01*
X11220Y8905D01*
X11235Y8886D01*
X11255Y8870D01*
X11278Y8861D01*
X11283Y8860D01*
Y8933D01*
D02*
G37*
G36*
X11142D02*
X11069D01*
Y8860D01*
X11074Y8861D01*
X11097Y8870D01*
X11117Y8886D01*
X11132Y8905D01*
X11142Y8929D01*
X11142Y8933D01*
D02*
G37*
G36*
X11029D02*
X10956D01*
X10956Y8929D01*
X10966Y8905D01*
X10981Y8886D01*
X11001Y8870D01*
X11024Y8861D01*
X11029Y8860D01*
Y8933D01*
D02*
G37*
G36*
X10521D02*
X10448D01*
X10448Y8929D01*
X10458Y8905D01*
X10473Y8886D01*
X10493Y8870D01*
X10516Y8861D01*
X10521Y8860D01*
Y8933D01*
D02*
G37*
G36*
X9525Y9050D02*
X9500Y9046D01*
X9477Y9037D01*
X9457Y9021D01*
X9442Y9002D01*
X9432Y8978D01*
X9429Y8954D01*
X9432Y8929D01*
X9442Y8905D01*
X9457Y8886D01*
X9477Y8870D01*
X9500Y8861D01*
X9525Y8857D01*
X9550Y8861D01*
X9573Y8870D01*
X9593Y8886D01*
X9608Y8905D01*
X9618Y8929D01*
X9621Y8954D01*
X9618Y8978D01*
X9608Y9002D01*
X9593Y9021D01*
X9573Y9037D01*
X9550Y9046D01*
X9525Y9050D01*
D02*
G37*
G36*
X9271D02*
X9246Y9046D01*
X9223Y9037D01*
X9203Y9021D01*
X9188Y9002D01*
X9178Y8978D01*
X9175Y8954D01*
X9178Y8929D01*
X9188Y8905D01*
X9203Y8886D01*
X9223Y8870D01*
X9246Y8861D01*
X9271Y8857D01*
X9296Y8861D01*
X9319Y8870D01*
X9339Y8886D01*
X9354Y8905D01*
X9364Y8929D01*
X9367Y8954D01*
X9364Y8978D01*
X9354Y9002D01*
X9339Y9021D01*
X9319Y9037D01*
X9296Y9046D01*
X9271Y9050D01*
D02*
G37*
G36*
X9017D02*
X8992Y9046D01*
X8969Y9037D01*
X8949Y9021D01*
X8934Y9002D01*
X8924Y8978D01*
X8921Y8954D01*
X8924Y8929D01*
X8934Y8905D01*
X8949Y8886D01*
X8969Y8870D01*
X8992Y8861D01*
X9017Y8857D01*
X9042Y8861D01*
X9065Y8870D01*
X9085Y8886D01*
X9100Y8905D01*
X9110Y8929D01*
X9113Y8954D01*
X9110Y8978D01*
X9100Y9002D01*
X9085Y9021D01*
X9065Y9037D01*
X9042Y9046D01*
X9017Y9050D01*
D02*
G37*
G36*
X10287D02*
X10262Y9046D01*
X10239Y9037D01*
X10219Y9021D01*
X10204Y9002D01*
X10194Y8978D01*
X10191Y8954D01*
X10194Y8929D01*
X10204Y8905D01*
X10219Y8886D01*
X10239Y8870D01*
X10262Y8861D01*
X10287Y8857D01*
X10312Y8861D01*
X10335Y8870D01*
X10355Y8886D01*
X10370Y8905D01*
X10380Y8929D01*
X10383Y8954D01*
X10380Y8978D01*
X10370Y9002D01*
X10355Y9021D01*
X10335Y9037D01*
X10312Y9046D01*
X10287Y9050D01*
D02*
G37*
G36*
X10033D02*
X10008Y9046D01*
X9985Y9037D01*
X9965Y9021D01*
X9950Y9002D01*
X9940Y8978D01*
X9937Y8954D01*
X9940Y8929D01*
X9950Y8905D01*
X9965Y8886D01*
X9985Y8870D01*
X10008Y8861D01*
X10033Y8857D01*
X10058Y8861D01*
X10081Y8870D01*
X10101Y8886D01*
X10116Y8905D01*
X10126Y8929D01*
X10129Y8954D01*
X10126Y8978D01*
X10116Y9002D01*
X10101Y9021D01*
X10081Y9037D01*
X10058Y9046D01*
X10033Y9050D01*
D02*
G37*
G36*
X9779D02*
X9754Y9046D01*
X9731Y9037D01*
X9711Y9021D01*
X9696Y9002D01*
X9686Y8978D01*
X9683Y8954D01*
X9686Y8929D01*
X9696Y8905D01*
X9711Y8886D01*
X9731Y8870D01*
X9754Y8861D01*
X9779Y8857D01*
X9804Y8861D01*
X9827Y8870D01*
X9847Y8886D01*
X9862Y8905D01*
X9872Y8929D01*
X9875Y8954D01*
X9872Y8978D01*
X9862Y9002D01*
X9847Y9021D01*
X9827Y9037D01*
X9804Y9046D01*
X9779Y9050D01*
D02*
G37*
G36*
X10815Y8793D02*
Y8720D01*
X10888D01*
X10888Y8724D01*
X10878Y8748D01*
X10863Y8767D01*
X10843Y8783D01*
X10820Y8792D01*
X10815Y8793D01*
D02*
G37*
G36*
X8763Y8796D02*
X8738Y8792D01*
X8715Y8783D01*
X8695Y8767D01*
X8680Y8748D01*
X8670Y8724D01*
X8667Y8700D01*
X8670Y8675D01*
X8680Y8651D01*
X8695Y8632D01*
X8715Y8616D01*
X8738Y8607D01*
X8763Y8603D01*
X8788Y8607D01*
X8811Y8616D01*
X8831Y8632D01*
X8846Y8651D01*
X8856Y8675D01*
X8859Y8700D01*
X8856Y8724D01*
X8846Y8748D01*
X8831Y8767D01*
X8811Y8783D01*
X8788Y8792D01*
X8763Y8796D01*
D02*
G37*
G36*
X8509D02*
X8484Y8792D01*
X8461Y8783D01*
X8441Y8767D01*
X8426Y8748D01*
X8416Y8724D01*
X8413Y8700D01*
X8416Y8675D01*
X8426Y8651D01*
X8441Y8632D01*
X8461Y8616D01*
X8484Y8607D01*
X8509Y8603D01*
X8534Y8607D01*
X8557Y8616D01*
X8577Y8632D01*
X8592Y8651D01*
X8602Y8675D01*
X8605Y8700D01*
X8602Y8724D01*
X8592Y8748D01*
X8577Y8767D01*
X8557Y8783D01*
X8534Y8792D01*
X8509Y8796D01*
D02*
G37*
G36*
X8255D02*
X8230Y8792D01*
X8207Y8783D01*
X8187Y8767D01*
X8172Y8748D01*
X8162Y8724D01*
X8159Y8700D01*
X8162Y8675D01*
X8172Y8651D01*
X8187Y8632D01*
X8207Y8616D01*
X8230Y8607D01*
X8255Y8603D01*
X8280Y8607D01*
X8303Y8616D01*
X8323Y8632D01*
X8338Y8651D01*
X8348Y8675D01*
X8351Y8700D01*
X8348Y8724D01*
X8338Y8748D01*
X8323Y8767D01*
X8303Y8783D01*
X8280Y8792D01*
X8255Y8796D01*
D02*
G37*
G36*
X9525D02*
X9500Y8792D01*
X9477Y8783D01*
X9457Y8767D01*
X9442Y8748D01*
X9432Y8724D01*
X9429Y8700D01*
X9432Y8675D01*
X9442Y8651D01*
X9457Y8632D01*
X9477Y8616D01*
X9500Y8607D01*
X9525Y8603D01*
X9550Y8607D01*
X9573Y8616D01*
X9593Y8632D01*
X9608Y8651D01*
X9618Y8675D01*
X9621Y8700D01*
X9618Y8724D01*
X9608Y8748D01*
X9593Y8767D01*
X9573Y8783D01*
X9550Y8792D01*
X9525Y8796D01*
D02*
G37*
G36*
X9271D02*
X9246Y8792D01*
X9223Y8783D01*
X9203Y8767D01*
X9188Y8748D01*
X9178Y8724D01*
X9175Y8700D01*
X9178Y8675D01*
X9188Y8651D01*
X9203Y8632D01*
X9223Y8616D01*
X9246Y8607D01*
X9271Y8603D01*
X9296Y8607D01*
X9319Y8616D01*
X9339Y8632D01*
X9354Y8651D01*
X9364Y8675D01*
X9367Y8700D01*
X9364Y8724D01*
X9354Y8748D01*
X9339Y8767D01*
X9319Y8783D01*
X9296Y8792D01*
X9271Y8796D01*
D02*
G37*
G36*
X9017D02*
X8992Y8792D01*
X8969Y8783D01*
X8949Y8767D01*
X8934Y8748D01*
X8924Y8724D01*
X8921Y8700D01*
X8924Y8675D01*
X8934Y8651D01*
X8949Y8632D01*
X8969Y8616D01*
X8992Y8607D01*
X9017Y8603D01*
X9042Y8607D01*
X9065Y8616D01*
X9085Y8632D01*
X9100Y8651D01*
X9110Y8675D01*
X9113Y8700D01*
X9110Y8724D01*
X9100Y8748D01*
X9085Y8767D01*
X9065Y8783D01*
X9042Y8792D01*
X9017Y8796D01*
D02*
G37*
G36*
X8001D02*
X7976Y8792D01*
X7953Y8783D01*
X7933Y8767D01*
X7918Y8748D01*
X7908Y8724D01*
X7905Y8700D01*
X7908Y8675D01*
X7918Y8651D01*
X7933Y8632D01*
X7953Y8616D01*
X7976Y8607D01*
X8001Y8603D01*
X8026Y8607D01*
X8049Y8616D01*
X8069Y8632D01*
X8084Y8651D01*
X8094Y8675D01*
X8097Y8700D01*
X8094Y8724D01*
X8084Y8748D01*
X8069Y8767D01*
X8049Y8783D01*
X8026Y8792D01*
X8001Y8796D01*
D02*
G37*
G36*
X6985D02*
X6960Y8792D01*
X6937Y8783D01*
X6917Y8767D01*
X6902Y8748D01*
X6892Y8724D01*
X6889Y8700D01*
X6892Y8675D01*
X6902Y8651D01*
X6917Y8632D01*
X6937Y8616D01*
X6960Y8607D01*
X6985Y8603D01*
X7010Y8607D01*
X7033Y8616D01*
X7053Y8632D01*
X7068Y8651D01*
X7078Y8675D01*
X7081Y8700D01*
X7078Y8724D01*
X7068Y8748D01*
X7053Y8767D01*
X7033Y8783D01*
X7010Y8792D01*
X6985Y8796D01*
D02*
G37*
G36*
X6731D02*
X6706Y8792D01*
X6683Y8783D01*
X6663Y8767D01*
X6648Y8748D01*
X6638Y8724D01*
X6635Y8700D01*
X6638Y8675D01*
X6648Y8651D01*
X6663Y8632D01*
X6683Y8616D01*
X6706Y8607D01*
X6731Y8603D01*
X6756Y8607D01*
X6779Y8616D01*
X6799Y8632D01*
X6814Y8651D01*
X6824Y8675D01*
X6827Y8700D01*
X6824Y8724D01*
X6814Y8748D01*
X6799Y8767D01*
X6779Y8783D01*
X6756Y8792D01*
X6731Y8796D01*
D02*
G37*
G36*
X6572Y8790D02*
X6382D01*
Y8599D01*
X6572D01*
Y8790D01*
D02*
G37*
G36*
X7747Y8796D02*
X7722Y8792D01*
X7699Y8783D01*
X7679Y8767D01*
X7664Y8748D01*
X7654Y8724D01*
X7651Y8700D01*
X7654Y8675D01*
X7664Y8651D01*
X7679Y8632D01*
X7699Y8616D01*
X7722Y8607D01*
X7747Y8603D01*
X7772Y8607D01*
X7795Y8616D01*
X7815Y8632D01*
X7830Y8651D01*
X7840Y8675D01*
X7843Y8700D01*
X7840Y8724D01*
X7830Y8748D01*
X7815Y8767D01*
X7795Y8783D01*
X7772Y8792D01*
X7747Y8796D01*
D02*
G37*
G36*
X7493D02*
X7468Y8792D01*
X7445Y8783D01*
X7425Y8767D01*
X7410Y8748D01*
X7400Y8724D01*
X7397Y8700D01*
X7400Y8675D01*
X7410Y8651D01*
X7425Y8632D01*
X7445Y8616D01*
X7468Y8607D01*
X7493Y8603D01*
X7518Y8607D01*
X7541Y8616D01*
X7561Y8632D01*
X7576Y8651D01*
X7586Y8675D01*
X7589Y8700D01*
X7586Y8724D01*
X7576Y8748D01*
X7561Y8767D01*
X7541Y8783D01*
X7518Y8792D01*
X7493Y8796D01*
D02*
G37*
G36*
X7239D02*
X7214Y8792D01*
X7191Y8783D01*
X7171Y8767D01*
X7156Y8748D01*
X7146Y8724D01*
X7143Y8700D01*
X7146Y8675D01*
X7156Y8651D01*
X7171Y8632D01*
X7191Y8616D01*
X7214Y8607D01*
X7239Y8603D01*
X7264Y8607D01*
X7287Y8616D01*
X7307Y8632D01*
X7322Y8651D01*
X7332Y8675D01*
X7335Y8700D01*
X7332Y8724D01*
X7322Y8748D01*
X7307Y8767D01*
X7287Y8783D01*
X7264Y8792D01*
X7239Y8796D01*
D02*
G37*
G36*
X9779D02*
X9754Y8792D01*
X9731Y8783D01*
X9711Y8767D01*
X9696Y8748D01*
X9686Y8724D01*
X9683Y8700D01*
X9686Y8675D01*
X9696Y8651D01*
X9711Y8632D01*
X9731Y8616D01*
X9754Y8607D01*
X9779Y8603D01*
X9804Y8607D01*
X9827Y8616D01*
X9847Y8632D01*
X9862Y8651D01*
X9872Y8675D01*
X9875Y8700D01*
X9872Y8724D01*
X9862Y8748D01*
X9847Y8767D01*
X9827Y8783D01*
X9804Y8792D01*
X9779Y8796D01*
D02*
G37*
G36*
X11396Y8679D02*
X11323D01*
Y8606D01*
X11328Y8607D01*
X11351Y8616D01*
X11371Y8632D01*
X11386Y8651D01*
X11396Y8675D01*
X11396Y8679D01*
D02*
G37*
G36*
X11283D02*
X11210D01*
X11210Y8675D01*
X11220Y8651D01*
X11235Y8632D01*
X11255Y8616D01*
X11278Y8607D01*
X11283Y8606D01*
Y8679D01*
D02*
G37*
G36*
X11142D02*
X11069D01*
Y8606D01*
X11074Y8607D01*
X11097Y8616D01*
X11117Y8632D01*
X11132Y8651D01*
X11142Y8675D01*
X11142Y8679D01*
D02*
G37*
G36*
X10775Y8793D02*
X10770Y8792D01*
X10747Y8783D01*
X10727Y8767D01*
X10712Y8748D01*
X10702Y8724D01*
X10702Y8720D01*
X10775D01*
Y8793D01*
D02*
G37*
G36*
X10561D02*
Y8720D01*
X10634D01*
X10634Y8724D01*
X10624Y8748D01*
X10609Y8767D01*
X10589Y8783D01*
X10566Y8792D01*
X10561Y8793D01*
D02*
G37*
G36*
X10521D02*
X10516Y8792D01*
X10493Y8783D01*
X10473Y8767D01*
X10458Y8748D01*
X10448Y8724D01*
X10448Y8720D01*
X10521D01*
Y8793D01*
D02*
G37*
G36*
X11029Y8679D02*
X10956D01*
X10956Y8675D01*
X10966Y8651D01*
X10981Y8632D01*
X11001Y8616D01*
X11024Y8607D01*
X11029Y8606D01*
Y8679D01*
D02*
G37*
G36*
X10521D02*
X10448D01*
X10448Y8675D01*
X10458Y8651D01*
X10473Y8632D01*
X10493Y8616D01*
X10516Y8607D01*
X10521Y8606D01*
Y8679D01*
D02*
G37*
G36*
X10287Y8796D02*
X10262Y8792D01*
X10239Y8783D01*
X10219Y8767D01*
X10204Y8748D01*
X10194Y8724D01*
X10191Y8700D01*
X10194Y8675D01*
X10204Y8651D01*
X10219Y8632D01*
X10239Y8616D01*
X10262Y8607D01*
X10287Y8603D01*
X10312Y8607D01*
X10335Y8616D01*
X10355Y8632D01*
X10370Y8651D01*
X10380Y8675D01*
X10383Y8700D01*
X10380Y8724D01*
X10370Y8748D01*
X10355Y8767D01*
X10335Y8783D01*
X10312Y8792D01*
X10287Y8796D01*
D02*
G37*
G36*
X10033D02*
X10008Y8792D01*
X9985Y8783D01*
X9965Y8767D01*
X9950Y8748D01*
X9940Y8724D01*
X9937Y8700D01*
X9940Y8675D01*
X9950Y8651D01*
X9965Y8632D01*
X9985Y8616D01*
X10008Y8607D01*
X10033Y8603D01*
X10058Y8607D01*
X10081Y8616D01*
X10101Y8632D01*
X10116Y8651D01*
X10126Y8675D01*
X10129Y8700D01*
X10126Y8724D01*
X10116Y8748D01*
X10101Y8767D01*
X10081Y8783D01*
X10058Y8792D01*
X10033Y8796D01*
D02*
G37*
G36*
X10888Y8679D02*
X10815D01*
Y8606D01*
X10820Y8607D01*
X10843Y8616D01*
X10863Y8632D01*
X10878Y8651D01*
X10888Y8675D01*
X10888Y8679D01*
D02*
G37*
G36*
X10775D02*
X10702D01*
X10702Y8675D01*
X10712Y8651D01*
X10727Y8632D01*
X10747Y8616D01*
X10770Y8607D01*
X10775Y8606D01*
Y8679D01*
D02*
G37*
G36*
X10634D02*
X10561D01*
Y8606D01*
X10566Y8607D01*
X10589Y8616D01*
X10609Y8632D01*
X10624Y8651D01*
X10634Y8675D01*
X10634Y8679D01*
D02*
G37*
G36*
X11396Y8933D02*
X11323D01*
Y8860D01*
X11328Y8861D01*
X11351Y8870D01*
X11371Y8886D01*
X11386Y8905D01*
X11396Y8929D01*
X11396Y8933D01*
D02*
G37*
G36*
X8720Y11855D02*
Y11781D01*
X8794D01*
X8794Y11785D01*
X8784Y11809D01*
X8768Y11829D01*
X8748Y11845D01*
X8725Y11854D01*
X8720Y11855D01*
D02*
G37*
G36*
X8679D02*
X8674Y11854D01*
X8651Y11845D01*
X8631Y11829D01*
X8615Y11809D01*
X8605Y11785D01*
X8605Y11781D01*
X8679D01*
Y11855D01*
D02*
G37*
G36*
X8794Y11740D02*
X8720D01*
Y11666D01*
X8725Y11666D01*
X8748Y11676D01*
X8768Y11691D01*
X8784Y11712D01*
X8794Y11735D01*
X8794Y11740D01*
D02*
G37*
G36*
X9848Y11968D02*
X9786D01*
X9786Y11967D01*
X9795Y11947D01*
X9808Y11929D01*
X9826Y11916D01*
X9846Y11907D01*
X9848Y11907D01*
Y11968D01*
D02*
G37*
G36*
Y12071D02*
X9846Y12070D01*
X9826Y12062D01*
X9808Y12049D01*
X9795Y12031D01*
X9786Y12011D01*
X9786Y12009D01*
X9848D01*
Y12071D01*
D02*
G37*
G36*
X10150Y13759D02*
X10116Y13755D01*
X10085Y13746D01*
X10055Y13730D01*
X10030Y13709D01*
X10008Y13683D01*
X9993Y13654D01*
X9983Y13622D01*
X9980Y13589D01*
X9983Y13556D01*
X9993Y13524D01*
X10008Y13495D01*
X10030Y13469D01*
X10055Y13448D01*
X10075Y13437D01*
X10082Y13421D01*
X10094Y13404D01*
X10257Y13242D01*
X10257Y13242D01*
X10257D01*
X10257Y13242D01*
X10257D01*
X10257Y13242D01*
Y13242D01*
Y13242D01*
D01*
D01*
X10257D01*
Y13242D01*
X10273Y13229D01*
X10292Y13221D01*
X10312Y13219D01*
X10445D01*
X10730Y12934D01*
Y12186D01*
X10534Y11991D01*
X10381D01*
X10372Y11994D01*
X10350Y11997D01*
X10329Y11994D01*
X10308Y11986D01*
X10291Y11972D01*
X10277Y11955D01*
X10269Y11934D01*
X10266Y11913D01*
X10269Y11891D01*
X10277Y11870D01*
X10291Y11853D01*
X10308Y11839D01*
X10329Y11831D01*
X10350Y11828D01*
X10372Y11831D01*
X10381Y11834D01*
X10566D01*
X10587Y11837D01*
X10605Y11845D01*
X10622Y11857D01*
X10622Y11857D01*
X10622Y11857D01*
X10863Y12099D01*
X10875Y12115D01*
X10883Y12134D01*
X10886Y12154D01*
X10886Y12154D01*
Y12967D01*
X10886Y12967D01*
X10883Y12987D01*
X10875Y13006D01*
X10868Y13015D01*
X10863Y13022D01*
X10863Y13022D01*
X10533Y13352D01*
X10517Y13365D01*
X10498Y13372D01*
X10478Y13375D01*
X10345D01*
X10267Y13452D01*
X10268Y13468D01*
X10270Y13469D01*
X10291Y13495D01*
X10306Y13524D01*
X10316Y13556D01*
X10319Y13589D01*
X10316Y13622D01*
X10306Y13654D01*
X10291Y13683D01*
X10270Y13709D01*
X10244Y13730D01*
X10215Y13746D01*
X10183Y13755D01*
X10150Y13759D01*
D02*
G37*
G36*
X9950Y11968D02*
X9888D01*
Y11907D01*
X9890Y11907D01*
X9910Y11916D01*
X9928Y11929D01*
X9941Y11947D01*
X9950Y11967D01*
X9950Y11968D01*
D02*
G37*
G36*
X11333Y11257D02*
X11259D01*
X11260Y11252D01*
X11269Y11229D01*
X11285Y11209D01*
X11305Y11193D01*
X11329Y11184D01*
X11333Y11183D01*
Y11257D01*
D02*
G37*
G36*
X10681Y11362D02*
X10659Y11359D01*
X10638Y11351D01*
X10621Y11337D01*
X10607Y11320D01*
X10599Y11299D01*
X10596Y11278D01*
Y10754D01*
X10455Y10613D01*
X9004D01*
X8982Y10610D01*
X8972Y10606D01*
X8962Y10602D01*
X8945Y10588D01*
X8818Y10461D01*
X8804Y10444D01*
X8801Y10435D01*
X8796Y10423D01*
X8793Y10401D01*
X8796Y10379D01*
X8801Y10367D01*
X8804Y10359D01*
X8818Y10342D01*
X8835Y10328D01*
X8843Y10325D01*
X8855Y10320D01*
X8877Y10317D01*
X8899Y10320D01*
X8911Y10325D01*
X8920Y10328D01*
X8937Y10342D01*
X8937Y10342D01*
X8937Y10342D01*
X9039Y10444D01*
X10490D01*
X10512Y10447D01*
X10524Y10452D01*
X10532Y10455D01*
X10550Y10469D01*
X10550Y10469D01*
X10550Y10469D01*
X10740Y10659D01*
X10740Y10659D01*
X10740Y10659D01*
X10754Y10677D01*
X10760Y10691D01*
X10762Y10697D01*
X10765Y10719D01*
X10765Y10719D01*
X10765Y10719D01*
Y10719D01*
Y11278D01*
X10762Y11299D01*
X10754Y11320D01*
X10740Y11337D01*
X10723Y11351D01*
X10703Y11359D01*
X10681Y11362D01*
D02*
G37*
G36*
X6720Y10813D02*
X6684Y10810D01*
X6650Y10799D01*
X6618Y10783D01*
X6591Y10760D01*
X6568Y10732D01*
X6551Y10701D01*
X6541Y10667D01*
X6537Y10631D01*
X6541Y10595D01*
X6551Y10561D01*
X6568Y10530D01*
X6591Y10502D01*
X6618Y10479D01*
X6650Y10462D01*
X6684Y10452D01*
X6720Y10448D01*
X6755Y10452D01*
X6789Y10462D01*
X6821Y10479D01*
X6849Y10502D01*
X6871Y10530D01*
X6888Y10561D01*
X6899Y10595D01*
X6902Y10631D01*
X6899Y10667D01*
X6888Y10701D01*
X6871Y10732D01*
X6849Y10760D01*
X6821Y10783D01*
X6789Y10799D01*
X6755Y10810D01*
X6720Y10813D01*
D02*
G37*
G36*
X11448Y11257D02*
X11374D01*
Y11183D01*
X11379Y11184D01*
X11402Y11193D01*
X11423Y11209D01*
X11438Y11229D01*
X11448Y11252D01*
X11448Y11257D01*
D02*
G37*
G36*
X8679Y11740D02*
X8605D01*
X8605Y11735D01*
X8615Y11712D01*
X8631Y11691D01*
X8651Y11676D01*
X8674Y11666D01*
X8679Y11666D01*
Y11740D01*
D02*
G37*
G36*
X11374Y11372D02*
Y11298D01*
X11448D01*
X11448Y11303D01*
X11438Y11326D01*
X11423Y11346D01*
X11402Y11362D01*
X11379Y11372D01*
X11374Y11372D01*
D02*
G37*
G36*
X11333D02*
X11329Y11372D01*
X11305Y11362D01*
X11285Y11346D01*
X11269Y11326D01*
X11260Y11303D01*
X11259Y11298D01*
X11333D01*
Y11372D01*
D02*
G37*
G36*
X8566Y13759D02*
X8532Y13755D01*
X8501Y13746D01*
X8471Y13730D01*
X8446Y13709D01*
X8424Y13683D01*
X8409Y13654D01*
X8399Y13622D01*
X8396Y13589D01*
X8399Y13556D01*
X8409Y13524D01*
X8424Y13495D01*
X8446Y13469D01*
X8471Y13448D01*
X8501Y13432D01*
X8532Y13423D01*
X8566Y13419D01*
X8599Y13423D01*
X8631Y13432D01*
X8660Y13448D01*
X8686Y13469D01*
X8707Y13495D01*
X8722Y13524D01*
X8732Y13556D01*
X8735Y13589D01*
X8732Y13622D01*
X8722Y13654D01*
X8707Y13683D01*
X8686Y13709D01*
X8660Y13730D01*
X8631Y13746D01*
X8599Y13755D01*
X8566Y13759D01*
D02*
G37*
G36*
X11057Y13265D02*
Y13190D01*
X11131D01*
X11130Y13195D01*
X11121Y13219D01*
X11105Y13239D01*
X11085Y13254D01*
X11061Y13264D01*
X11057Y13265D01*
D02*
G37*
G36*
X11016D02*
X11011Y13264D01*
X10988Y13254D01*
X10967Y13239D01*
X10952Y13219D01*
X10942Y13195D01*
X10942Y13190D01*
X11016D01*
Y13265D01*
D02*
G37*
G36*
X8962Y13759D02*
X8928Y13755D01*
X8897Y13746D01*
X8867Y13730D01*
X8842Y13709D01*
X8820Y13683D01*
X8805Y13654D01*
X8795Y13622D01*
X8792Y13589D01*
X8795Y13556D01*
X8800Y13538D01*
X8657Y13395D01*
X8645Y13379D01*
X8637Y13360D01*
X8634Y13340D01*
Y12230D01*
X8634Y12230D01*
X8634D01*
X8637Y12210D01*
X8645Y12191D01*
X8657Y12175D01*
X9053Y11779D01*
Y11613D01*
X9050Y11604D01*
X9047Y11582D01*
X9050Y11561D01*
X9058Y11540D01*
X9072Y11523D01*
X9089Y11509D01*
X9109Y11501D01*
X9131Y11498D01*
X9153Y11501D01*
X9174Y11509D01*
X9191Y11523D01*
X9205Y11540D01*
X9213Y11561D01*
X9216Y11582D01*
X9213Y11604D01*
X9209Y11613D01*
Y11811D01*
X9207Y11831D01*
X9199Y11850D01*
X9187Y11866D01*
X9187Y11866D01*
X8790Y12262D01*
Y13307D01*
X8911Y13428D01*
X8928Y13423D01*
X8962Y13419D01*
X8995Y13423D01*
X9027Y13432D01*
X9056Y13448D01*
X9082Y13469D01*
X9103Y13495D01*
X9118Y13524D01*
X9128Y13556D01*
X9131Y13589D01*
X9128Y13622D01*
X9118Y13654D01*
X9103Y13683D01*
X9082Y13709D01*
X9056Y13730D01*
X9027Y13746D01*
X8995Y13755D01*
X8962Y13759D01*
D02*
G37*
G36*
X10715Y13758D02*
X10377D01*
Y13420D01*
X10715D01*
Y13758D01*
D02*
G37*
G36*
X9754Y13759D02*
X9720Y13755D01*
X9689Y13746D01*
X9659Y13730D01*
X9634Y13709D01*
X9612Y13683D01*
X9597Y13654D01*
X9587Y13622D01*
X9584Y13589D01*
X9587Y13556D01*
X9597Y13524D01*
X9612Y13495D01*
X9634Y13469D01*
X9659Y13448D01*
X9689Y13432D01*
X9720Y13423D01*
X9754Y13419D01*
X9787Y13423D01*
X9819Y13432D01*
X9848Y13448D01*
X9874Y13469D01*
X9895Y13495D01*
X9910Y13524D01*
X9920Y13556D01*
X9923Y13589D01*
X9920Y13622D01*
X9910Y13654D01*
X9895Y13683D01*
X9874Y13709D01*
X9848Y13730D01*
X9819Y13746D01*
X9787Y13755D01*
X9754Y13759D01*
D02*
G37*
G36*
X9358D02*
X9324Y13755D01*
X9293Y13746D01*
X9263Y13730D01*
X9238Y13709D01*
X9216Y13683D01*
X9201Y13654D01*
X9191Y13622D01*
X9188Y13589D01*
X9191Y13556D01*
X9201Y13524D01*
X9216Y13495D01*
X9238Y13469D01*
X9263Y13448D01*
X9293Y13432D01*
X9324Y13423D01*
X9358Y13419D01*
X9391Y13423D01*
X9423Y13432D01*
X9452Y13448D01*
X9478Y13469D01*
X9499Y13495D01*
X9514Y13524D01*
X9524Y13556D01*
X9527Y13589D01*
X9524Y13622D01*
X9514Y13654D01*
X9499Y13683D01*
X9478Y13709D01*
X9452Y13730D01*
X9423Y13746D01*
X9391Y13755D01*
X9358Y13759D01*
D02*
G37*
G36*
X8477Y13150D02*
X8402D01*
Y13075D01*
X8407Y13076D01*
X8431Y13086D01*
X8451Y13101D01*
X8466Y13121D01*
X8476Y13145D01*
X8477Y13150D01*
D02*
G37*
G36*
X8362D02*
X8287D01*
X8288Y13145D01*
X8298Y13121D01*
X8313Y13101D01*
X8333Y13086D01*
X8357Y13076D01*
X8362Y13075D01*
Y13150D01*
D02*
G37*
G36*
X9888Y12071D02*
Y12009D01*
X9950D01*
X9950Y12011D01*
X9941Y12031D01*
X9928Y12049D01*
X9910Y12062D01*
X9890Y12070D01*
X9888Y12071D01*
D02*
G37*
G36*
X11016Y13150D02*
X10942D01*
X10942Y13145D01*
X10952Y13121D01*
X10967Y13101D01*
X10988Y13086D01*
X11011Y13076D01*
X11016Y13075D01*
Y13150D01*
D02*
G37*
G36*
X8402Y13265D02*
Y13190D01*
X8477D01*
X8476Y13195D01*
X8466Y13219D01*
X8451Y13239D01*
X8431Y13254D01*
X8407Y13264D01*
X8402Y13265D01*
D02*
G37*
G36*
X8362D02*
X8357Y13264D01*
X8333Y13254D01*
X8313Y13239D01*
X8298Y13219D01*
X8288Y13195D01*
X8287Y13190D01*
X8362D01*
Y13265D01*
D02*
G37*
G36*
X11131Y13150D02*
X11057D01*
Y13075D01*
X11061Y13076D01*
X11085Y13086D01*
X11105Y13101D01*
X11121Y13121D01*
X11130Y13145D01*
X11131Y13150D01*
D02*
G37*
G36*
X5690Y10016D02*
X5647Y10013D01*
X5605Y10003D01*
X5565Y9986D01*
X5528Y9964D01*
X5495Y9935D01*
X5467Y9903D01*
X5444Y9866D01*
X5428Y9826D01*
X5418Y9784D01*
X5414Y9741D01*
X5418Y9698D01*
X5428Y9656D01*
X5444Y9616D01*
X5467Y9579D01*
X5495Y9546D01*
X5528Y9518D01*
X5565Y9496D01*
X5605Y9479D01*
X5647Y9469D01*
X5690Y9466D01*
X5733Y9469D01*
X5775Y9479D01*
X5815Y9496D01*
X5851Y9518D01*
X5884Y9546D01*
X5912Y9579D01*
X5935Y9616D01*
X5951Y9656D01*
X5961Y9698D01*
X5965Y9741D01*
X5961Y9784D01*
X5951Y9826D01*
X5935Y9866D01*
X5912Y9903D01*
X5884Y9935D01*
X5851Y9964D01*
X5815Y9986D01*
X5775Y10003D01*
X5733Y10013D01*
X5690Y10016D01*
D02*
G37*
G36*
X8895Y9505D02*
X8834D01*
X8834Y9503D01*
X8839Y9491D01*
X8842Y9483D01*
X8856Y9465D01*
X8873Y9452D01*
X8882Y9448D01*
X8894Y9443D01*
X8895Y9443D01*
Y9505D01*
D02*
G37*
G36*
X11323Y9047D02*
Y8974D01*
X11396D01*
X11396Y8978D01*
X11386Y9002D01*
X11371Y9021D01*
X11351Y9037D01*
X11328Y9046D01*
X11323Y9047D01*
D02*
G37*
G36*
X6720Y9923D02*
X6684Y9920D01*
X6650Y9909D01*
X6618Y9893D01*
X6591Y9870D01*
X6568Y9842D01*
X6551Y9811D01*
X6541Y9777D01*
X6537Y9741D01*
X6541Y9705D01*
X6551Y9671D01*
X6568Y9640D01*
X6591Y9612D01*
X6618Y9589D01*
X6650Y9572D01*
X6684Y9562D01*
X6720Y9558D01*
X6755Y9562D01*
X6789Y9572D01*
X6821Y9589D01*
X6849Y9612D01*
X6871Y9640D01*
X6888Y9671D01*
X6899Y9705D01*
X6902Y9741D01*
X6899Y9777D01*
X6888Y9811D01*
X6871Y9842D01*
X6849Y9870D01*
X6821Y9893D01*
X6789Y9909D01*
X6755Y9920D01*
X6720Y9923D01*
D02*
G37*
G36*
X7234Y9721D02*
X7161D01*
X7162Y9716D01*
X7171Y9693D01*
X7187Y9673D01*
X7206Y9658D01*
X7230Y9648D01*
X7234Y9647D01*
Y9721D01*
D02*
G37*
G36*
X7700Y9836D02*
X7509D01*
Y9646D01*
X7700D01*
Y9836D01*
D02*
G37*
G36*
X9703Y9978D02*
X9627D01*
X9605Y9975D01*
X9584Y9967D01*
X9567Y9953D01*
X9376Y9762D01*
X9068D01*
X9046Y9759D01*
X9034Y9754D01*
X9026Y9751D01*
X9008Y9737D01*
X8856Y9585D01*
X8842Y9567D01*
X8839Y9559D01*
X8834Y9547D01*
X8834Y9545D01*
X8915D01*
Y9525D01*
X8936D01*
Y9443D01*
X8937Y9443D01*
X8949Y9448D01*
X8958Y9452D01*
X8975Y9465D01*
X8975Y9465D01*
X8975Y9465D01*
X9103Y9593D01*
X9411D01*
X9433Y9596D01*
X9445Y9601D01*
X9453Y9604D01*
X9470Y9618D01*
X9470Y9618D01*
X9470Y9618D01*
X9662Y9809D01*
X9703D01*
X9682Y9811D01*
Y9893D01*
Y9975D01*
X9703Y9978D01*
D02*
G37*
G36*
X10775Y9047D02*
X10770Y9046D01*
X10747Y9037D01*
X10727Y9021D01*
X10712Y9002D01*
X10702Y8978D01*
X10702Y8974D01*
X10775D01*
Y9047D01*
D02*
G37*
G36*
X10561D02*
Y8974D01*
X10634D01*
X10634Y8978D01*
X10624Y9002D01*
X10609Y9021D01*
X10589Y9037D01*
X10566Y9046D01*
X10561Y9047D01*
D02*
G37*
G36*
X10521D02*
X10516Y9046D01*
X10493Y9037D01*
X10473Y9021D01*
X10458Y9002D01*
X10448Y8978D01*
X10448Y8974D01*
X10521D01*
Y9047D01*
D02*
G37*
G36*
X10815D02*
Y8974D01*
X10888D01*
X10888Y8978D01*
X10878Y9002D01*
X10863Y9021D01*
X10843Y9037D01*
X10820Y9046D01*
X10815Y9047D01*
D02*
G37*
G36*
X11283D02*
X11278Y9046D01*
X11255Y9037D01*
X11235Y9021D01*
X11220Y9002D01*
X11210Y8978D01*
X11210Y8974D01*
X11283D01*
Y9047D01*
D02*
G37*
G36*
X11069D02*
Y8974D01*
X11142D01*
X11142Y8978D01*
X11132Y9002D01*
X11117Y9021D01*
X11097Y9037D01*
X11074Y9046D01*
X11069Y9047D01*
D02*
G37*
G36*
X11029D02*
X11024Y9046D01*
X11001Y9037D01*
X10981Y9021D01*
X10966Y9002D01*
X10956Y8978D01*
X10956Y8974D01*
X11029D01*
Y9047D01*
D02*
G37*
G36*
X7511Y10334D02*
X7449D01*
X7449Y10333D01*
X7458Y10313D01*
X7471Y10295D01*
X7489Y10282D01*
X7509Y10273D01*
X7511Y10273D01*
Y10334D01*
D02*
G37*
G36*
X10879Y10305D02*
Y10244D01*
X10940D01*
X10940Y10245D01*
X10932Y10266D01*
X10918Y10283D01*
X10901Y10297D01*
X10880Y10305D01*
X10879Y10305D01*
D02*
G37*
G36*
X10838D02*
X10837Y10305D01*
X10816Y10297D01*
X10799Y10283D01*
X10785Y10266D01*
X10777Y10245D01*
X10777Y10244D01*
X10838D01*
Y10305D01*
D02*
G37*
G36*
X7613Y10334D02*
X7551D01*
Y10273D01*
X7553Y10273D01*
X7573Y10282D01*
X7591Y10295D01*
X7604Y10313D01*
X7613Y10333D01*
X7613Y10334D01*
D02*
G37*
G36*
X7551Y10437D02*
Y10375D01*
X7613D01*
X7613Y10377D01*
X7604Y10397D01*
X7591Y10415D01*
X7573Y10428D01*
X7553Y10436D01*
X7551Y10437D01*
D02*
G37*
G36*
X7511D02*
X7509Y10436D01*
X7489Y10428D01*
X7471Y10415D01*
X7458Y10397D01*
X7449Y10377D01*
X7449Y10375D01*
X7511D01*
Y10437D01*
D02*
G37*
G36*
X5690Y10906D02*
X5647Y10903D01*
X5605Y10893D01*
X5565Y10876D01*
X5528Y10854D01*
X5495Y10825D01*
X5467Y10793D01*
X5444Y10756D01*
X5428Y10716D01*
X5418Y10674D01*
X5414Y10631D01*
X5418Y10588D01*
X5428Y10546D01*
X5444Y10506D01*
X5467Y10469D01*
X5495Y10436D01*
X5528Y10408D01*
X5565Y10386D01*
X5605Y10369D01*
X5647Y10359D01*
X5690Y10356D01*
X5733Y10359D01*
X5775Y10369D01*
X5815Y10386D01*
X5851Y10408D01*
X5884Y10436D01*
X5912Y10469D01*
X5935Y10506D01*
X5951Y10546D01*
X5961Y10588D01*
X5965Y10631D01*
X5961Y10674D01*
X5951Y10716D01*
X5935Y10756D01*
X5912Y10793D01*
X5884Y10825D01*
X5851Y10854D01*
X5815Y10876D01*
X5775Y10893D01*
X5733Y10903D01*
X5690Y10906D01*
D02*
G37*
G36*
X7275Y9834D02*
Y9761D01*
X7348D01*
X7347Y9766D01*
X7338Y9789D01*
X7322Y9809D01*
X7303Y9824D01*
X7279Y9834D01*
X7275Y9834D01*
D02*
G37*
G36*
X7234D02*
X7230Y9834D01*
X7206Y9824D01*
X7187Y9809D01*
X7171Y9789D01*
X7162Y9766D01*
X7161Y9761D01*
X7234D01*
Y9834D01*
D02*
G37*
G36*
X7348Y9721D02*
X7275D01*
Y9647D01*
X7279Y9648D01*
X7303Y9658D01*
X7322Y9673D01*
X7338Y9693D01*
X7347Y9716D01*
X7348Y9721D01*
D02*
G37*
G36*
X9785Y9873D02*
X9723D01*
Y9811D01*
X9725Y9812D01*
X9745Y9820D01*
X9763Y9834D01*
X9776Y9851D01*
X9784Y9871D01*
X9785Y9873D01*
D02*
G37*
G36*
X10940Y10203D02*
X10879D01*
Y10142D01*
X10880Y10142D01*
X10901Y10150D01*
X10918Y10164D01*
X10932Y10181D01*
X10940Y10202D01*
X10940Y10203D01*
D02*
G37*
G36*
X10838D02*
X10777D01*
X10777Y10202D01*
X10785Y10181D01*
X10799Y10164D01*
X10816Y10150D01*
X10837Y10142D01*
X10838Y10142D01*
Y10203D01*
D02*
G37*
G36*
X9723Y9975D02*
Y9914D01*
X9785D01*
X9784Y9915D01*
X9776Y9936D01*
X9763Y9953D01*
X9745Y9967D01*
X9725Y9975D01*
X9723Y9975D01*
D02*
G37*
%LPD*%
D20*
X10681Y10719D02*
Y11278D01*
X9004Y10528D02*
X10490D01*
X10681Y10719D01*
X8877Y10401D02*
X9004Y10528D01*
X8915Y9525D02*
X9068Y9677D01*
X9411D01*
X9627Y9893D01*
X9703D01*
D22*
X10312Y13297D02*
X10478D01*
X10150Y13460D02*
X10312Y13297D01*
X10150Y13460D02*
Y13589D01*
X10478Y13297D02*
X10808Y12967D01*
X8712Y13340D02*
X8962Y13589D01*
X8712Y12230D02*
X9131Y11811D01*
X8712Y12230D02*
Y13340D01*
X10808Y12154D02*
Y12967D01*
X10566Y11913D02*
X10808Y12154D01*
X10350Y11913D02*
X10566D01*
X9131Y11582D02*
Y11811D01*
D28*
X4039Y15113D02*
X5169D01*
X4039Y7747D02*
X5169D01*
X4064Y12319D02*
Y15113D01*
Y7747D02*
Y10460D01*
X4013Y14961D02*
X4064Y15113D01*
X4115Y14961D01*
X4064Y7747D02*
X4115Y7899D01*
X4013D02*
X4064Y7747D01*
X12573Y6909D02*
Y7709D01*
X5207Y6909D02*
Y7709D01*
X9779Y6934D02*
X12573D01*
X5207D02*
X7920D01*
X12421Y6985D02*
X12573Y6934D01*
X12421Y6883D02*
X12573Y6934D01*
X5207D02*
X5359Y6883D01*
X5207Y6934D02*
X5359Y6985D01*
D29*
X9530Y12446D02*
X9570D01*
X9550Y12426D02*
Y12466D01*
X11194Y12421D02*
X11234D01*
X11214Y12401D02*
Y12441D01*
X8700Y12446D02*
X8740D01*
X8720Y12426D02*
Y12466D01*
X10369Y12446D02*
X10409D01*
X10389Y12426D02*
Y12466D01*
X7816Y11007D02*
X7856D01*
X7836Y10987D02*
Y11027D01*
X10922Y11626D02*
Y11666D01*
X10902Y11646D02*
X10942D01*
X8649Y10864D02*
Y10904D01*
X8629Y10884D02*
X8669D01*
D30*
X4155Y10602D02*
Y10501D01*
X4054Y10602D01*
X4028D01*
X4003Y10577D01*
Y10526D01*
X4028Y10501D01*
X4130Y10653D02*
X4155Y10678D01*
Y10729D01*
X4130Y10755D01*
X4028D01*
X4003Y10729D01*
Y10678D01*
X4028Y10653D01*
X4054D01*
X4079Y10678D01*
Y10755D01*
X4028Y10805D02*
X4003Y10831D01*
Y10882D01*
X4028Y10907D01*
X4130D01*
X4155Y10882D01*
Y10831D01*
X4130Y10805D01*
X4028D01*
Y10958D02*
X4003Y10983D01*
Y11034D01*
X4028Y11059D01*
X4130D01*
X4155Y11034D01*
Y10983D01*
X4130Y10958D01*
X4028D01*
X4155Y11110D02*
X4130D01*
Y11135D01*
X4155D01*
Y11110D01*
X4028Y11237D02*
X4003Y11262D01*
Y11313D01*
X4028Y11339D01*
X4130D01*
X4155Y11313D01*
Y11262D01*
X4130Y11237D01*
X4028D01*
Y11389D02*
X4003Y11415D01*
Y11466D01*
X4028Y11491D01*
X4130D01*
X4155Y11466D01*
Y11415D01*
X4130Y11389D01*
X4028D01*
X4155Y11745D02*
X4105Y11694D01*
X4054D01*
X4003Y11745D01*
X4155Y11821D02*
X4054D01*
Y11846D01*
X4079Y11872D01*
X4155D01*
X4079D01*
X4054Y11897D01*
X4079Y11923D01*
X4155D01*
Y11973D02*
Y12024D01*
Y11999D01*
X4054D01*
Y11973D01*
X4155Y12100D02*
Y12151D01*
Y12126D01*
X4003D01*
Y12100D01*
X4155Y12227D02*
X4105Y12278D01*
X4054D01*
X4003Y12227D01*
X8062Y6843D02*
X7961D01*
X8062Y6944D01*
Y6970D01*
X8037Y6995D01*
X7986D01*
X7961Y6970D01*
X8113Y6868D02*
X8138Y6843D01*
X8189D01*
X8215Y6868D01*
Y6970D01*
X8189Y6995D01*
X8138D01*
X8113Y6970D01*
Y6944D01*
X8138Y6919D01*
X8215D01*
X8265Y6970D02*
X8291Y6995D01*
X8342D01*
X8367Y6970D01*
Y6868D01*
X8342Y6843D01*
X8291D01*
X8265Y6868D01*
Y6970D01*
X8418D02*
X8443Y6995D01*
X8494D01*
X8519Y6970D01*
Y6868D01*
X8494Y6843D01*
X8443D01*
X8418Y6868D01*
Y6970D01*
X8570Y6843D02*
Y6868D01*
X8595D01*
Y6843D01*
X8570D01*
X8697Y6970D02*
X8722Y6995D01*
X8773D01*
X8799Y6970D01*
Y6868D01*
X8773Y6843D01*
X8722D01*
X8697Y6868D01*
Y6970D01*
X8849D02*
X8875Y6995D01*
X8926D01*
X8951Y6970D01*
Y6868D01*
X8926Y6843D01*
X8875D01*
X8849Y6868D01*
Y6970D01*
X9205Y6843D02*
X9154Y6894D01*
Y6944D01*
X9205Y6995D01*
X9281Y6843D02*
Y6944D01*
X9306D01*
X9332Y6919D01*
Y6843D01*
Y6919D01*
X9357Y6944D01*
X9383Y6919D01*
Y6843D01*
X9433D02*
X9484D01*
X9459D01*
Y6944D01*
X9433D01*
X9560Y6843D02*
X9611D01*
X9586D01*
Y6995D01*
X9560D01*
X9687Y6843D02*
X9738Y6894D01*
Y6944D01*
X9687Y6995D01*
D31*
X11354Y11278D02*
D03*
X11036Y13170D02*
D03*
X8700Y11760D02*
D03*
X8382Y13170D02*
D03*
D32*
X9754Y13589D02*
D03*
X9358D02*
D03*
X10150D02*
D03*
X8962D02*
D03*
X8566D02*
D03*
D33*
X10546D02*
D03*
D34*
X7604Y9741D02*
D03*
X6477Y8694D02*
D03*
D35*
X7254Y9741D02*
D03*
X11303Y8954D02*
D03*
Y8700D02*
D03*
X11049Y8954D02*
D03*
Y8700D02*
D03*
X10795Y8954D02*
D03*
Y8700D02*
D03*
X10541Y8954D02*
D03*
Y8700D02*
D03*
X10287Y8954D02*
D03*
Y8700D02*
D03*
X10033Y8954D02*
D03*
Y8700D02*
D03*
X9779Y8954D02*
D03*
Y8700D02*
D03*
X9525Y8954D02*
D03*
Y8700D02*
D03*
X9271Y8954D02*
D03*
Y8700D02*
D03*
X9017Y8954D02*
D03*
Y8700D02*
D03*
X8763Y8954D02*
D03*
Y8700D02*
D03*
X8509Y8954D02*
D03*
Y8700D02*
D03*
X8255Y8954D02*
D03*
Y8700D02*
D03*
X8001Y8954D02*
D03*
Y8700D02*
D03*
X7747Y8954D02*
D03*
Y8700D02*
D03*
X7493Y8954D02*
D03*
Y8700D02*
D03*
X7239Y8954D02*
D03*
Y8700D02*
D03*
X6985Y8954D02*
D03*
Y8700D02*
D03*
X6731Y8954D02*
D03*
Y8700D02*
D03*
X6477Y8954D02*
D03*
D36*
X6720Y10631D02*
D03*
Y9741D02*
D03*
D37*
X5690Y10631D02*
D03*
Y9741D02*
D03*
D38*
X10858Y10224D02*
D03*
X8915Y9525D02*
D03*
X7531Y10355D02*
D03*
X9868Y11989D02*
D03*
X9131Y11582D02*
D03*
X10350Y11913D02*
D03*
X10681Y11278D02*
D03*
Y10719D02*
D03*
X8877Y10401D02*
D03*
X9703Y9893D02*
D03*
M02*
