%FSLAX24Y24*%
%MOIN*%
G70*
G01*
G75*
G04 Layer_Color=32896*
%ADD10R,0.0433X0.0492*%
%ADD11R,0.0512X0.0610*%
%ADD12R,0.0512X0.0394*%
%ADD13R,0.0866X0.0374*%
%ADD14R,0.0551X0.0472*%
%ADD15C,0.0120*%
%ADD16C,0.0100*%
%ADD17C,0.0340*%
%ADD18C,0.0532*%
%ADD19R,0.0532X0.0532*%
%ADD20C,0.0591*%
%ADD21R,0.0591X0.0591*%
%ADD22C,0.1100*%
%ADD23C,0.0540*%
%ADD24C,0.0787*%
%ADD25C,0.0689*%
%ADD26R,0.1144X0.1144*%
%ADD27C,0.1654*%
%ADD28C,0.1220*%
%ADD29C,0.0500*%
%ADD30C,0.0300*%
%ADD31C,0.0250*%
%ADD32R,0.0394X0.0512*%
%ADD33O,0.0217X0.0630*%
%ADD34O,0.0630X0.0217*%
%ADD35R,0.0433X0.0551*%
%ADD36R,0.0551X0.0433*%
%ADD37R,0.0472X0.0551*%
%ADD38R,0.0315X0.0354*%
%ADD39R,0.0980X0.0790*%
%ADD40R,0.0940X0.0200*%
%ADD41C,0.0200*%
%ADD42C,0.0150*%
%ADD43C,0.0500*%
%ADD44C,0.0079*%
%ADD45C,0.0050*%
%ADD46C,0.0059*%
%ADD47C,0.0059*%
%ADD48R,0.0513X0.0572*%
%ADD49R,0.0592X0.0690*%
%ADD50R,0.0592X0.0474*%
%ADD51R,0.0946X0.0454*%
%ADD52R,0.0631X0.0552*%
%ADD53C,0.0420*%
%ADD54C,0.0612*%
%ADD55R,0.0612X0.0612*%
%ADD56C,0.0671*%
%ADD57R,0.0671X0.0671*%
%ADD58C,0.1180*%
%ADD59C,0.0620*%
%ADD60C,0.0867*%
%ADD61C,0.0769*%
%ADD62R,0.1224X0.1224*%
%ADD63C,0.1734*%
%ADD64C,0.1300*%
%ADD65C,0.0580*%
%ADD66C,0.0380*%
%ADD67R,0.0474X0.0592*%
%ADD68O,0.0297X0.0710*%
%ADD69O,0.0710X0.0297*%
%ADD70R,0.0513X0.0631*%
%ADD71R,0.0631X0.0513*%
%ADD72R,0.0552X0.0631*%
%ADD73R,0.0395X0.0434*%
%ADD74R,0.1060X0.0870*%
%ADD75R,0.1020X0.0280*%
%ADD76C,0.0080*%
%ADD77C,0.0098*%
%ADD78C,0.0236*%
D16*
X40090Y28000D02*
Y32300D01*
D44*
X33683Y37200D02*
X34117D01*
X33683Y33950D02*
X34117D01*
X32200Y39583D02*
Y40017D01*
X29301Y36699D02*
X31899D01*
X29301Y34101D02*
X31899D01*
X29301D02*
Y36699D01*
X31899Y34101D02*
Y36699D01*
X34250Y39583D02*
Y40017D01*
X34450Y30464D02*
Y30936D01*
X39611Y32712D02*
Y32988D01*
X36449Y32712D02*
Y32988D01*
X34450Y29664D02*
Y30136D01*
Y28833D02*
Y29267D01*
X25214Y33350D02*
X25686D01*
X26600Y33527D02*
Y33960D01*
X25214Y37450D02*
X25686D01*
X26600Y36840D02*
Y37273D01*
X30150Y39583D02*
Y40017D01*
X33664Y35350D02*
X34136D01*
X22733Y28550D02*
X23167D01*
X22733Y41450D02*
X23167D01*
D45*
X27800Y31700D02*
X27850Y31750D01*
X27950D01*
X28000Y31700D01*
Y31500D01*
X27950Y31450D01*
X27850D01*
X27800Y31500D01*
X27700Y31450D02*
X27600D01*
X27650D01*
Y31750D01*
X27700Y31700D01*
X27850Y32600D02*
X27900Y32650D01*
X28000D01*
X28050Y32600D01*
Y32400D01*
X28000Y32350D01*
X27900D01*
X27850Y32400D01*
X27550Y32350D02*
X27750D01*
X27550Y32550D01*
Y32600D01*
X27600Y32650D01*
X27700D01*
X27750Y32600D01*
X25100Y36300D02*
X25150Y36350D01*
X25250D01*
X25300Y36300D01*
Y36100D01*
X25250Y36050D01*
X25150D01*
X25100Y36100D01*
X24800Y36350D02*
X25000D01*
Y36200D01*
X24900Y36250D01*
X24850D01*
X24800Y36200D01*
Y36100D01*
X24850Y36050D01*
X24950D01*
X25000Y36100D01*
X25100Y34700D02*
X25150Y34750D01*
X25250D01*
X25300Y34700D01*
Y34500D01*
X25250Y34450D01*
X25150D01*
X25100Y34500D01*
X25000Y34700D02*
X24950Y34750D01*
X24850D01*
X24800Y34700D01*
Y34650D01*
X24850Y34600D01*
X24800Y34550D01*
Y34500D01*
X24850Y34450D01*
X24950D01*
X25000Y34500D01*
Y34550D01*
X24950Y34600D01*
X25000Y34650D01*
Y34700D01*
X24950Y34600D02*
X24850D01*
X37680Y36200D02*
X37730Y36250D01*
X37830D01*
X37880Y36200D01*
Y36000D01*
X37830Y35950D01*
X37730D01*
X37680Y36000D01*
X37580D02*
X37530Y35950D01*
X37430D01*
X37380Y36000D01*
Y36200D01*
X37430Y36250D01*
X37530D01*
X37580Y36200D01*
Y36150D01*
X37530Y36100D01*
X37380D01*
X28600Y38410D02*
X28650Y38460D01*
X28750D01*
X28800Y38410D01*
Y38210D01*
X28750Y38160D01*
X28650D01*
X28600Y38210D01*
X28500Y38160D02*
X28400D01*
X28450D01*
Y38460D01*
X28500Y38410D01*
X28250D02*
X28200Y38460D01*
X28100D01*
X28050Y38410D01*
Y38210D01*
X28100Y38160D01*
X28200D01*
X28250Y38210D01*
Y38410D01*
X27950Y33750D02*
X28000Y33800D01*
X28100D01*
X28150Y33750D01*
Y33550D01*
X28100Y33500D01*
X28000D01*
X27950Y33550D01*
X27850Y33500D02*
X27750D01*
X27800D01*
Y33800D01*
X27850Y33750D01*
X27600Y33500D02*
X27500D01*
X27550D01*
Y33800D01*
X27600Y33750D01*
X27950Y37200D02*
X28000Y37250D01*
X28100D01*
X28150Y37200D01*
Y37000D01*
X28100Y36950D01*
X28000D01*
X27950Y37000D01*
X27850Y36950D02*
X27750D01*
X27800D01*
Y37250D01*
X27850Y37200D01*
X27400Y36950D02*
X27600D01*
X27400Y37150D01*
Y37200D01*
X27450Y37250D01*
X27550D01*
X27600Y37200D01*
X39400Y36200D02*
X39450Y36250D01*
X39550D01*
X39600Y36200D01*
Y36000D01*
X39550Y35950D01*
X39450D01*
X39400Y36000D01*
X39300Y35950D02*
X39200D01*
X39250D01*
Y36250D01*
X39300Y36200D01*
X39050D02*
X39000Y36250D01*
X38900D01*
X38850Y36200D01*
Y36150D01*
X38900Y36100D01*
X38950D01*
X38900D01*
X38850Y36050D01*
Y36000D01*
X38900Y35950D01*
X39000D01*
X39050Y36000D01*
X35400Y37150D02*
X35450Y37200D01*
X35550D01*
X35600Y37150D01*
Y36950D01*
X35550Y36900D01*
X35450D01*
X35400Y36950D01*
X35300Y36900D02*
X35200D01*
X35250D01*
Y37200D01*
X35300Y37150D01*
X34900Y36900D02*
Y37200D01*
X35050Y37050D01*
X34850D01*
X35350Y33800D02*
X35400Y33850D01*
X35500D01*
X35550Y33800D01*
Y33600D01*
X35500Y33550D01*
X35400D01*
X35350Y33600D01*
X35250Y33550D02*
X35150D01*
X35200D01*
Y33850D01*
X35250Y33800D01*
X34800Y33850D02*
X34900Y33800D01*
X35000Y33700D01*
Y33600D01*
X34950Y33550D01*
X34850D01*
X34800Y33600D01*
Y33650D01*
X34850Y33700D01*
X35000D01*
X31990Y32280D02*
X32040Y32330D01*
X32140D01*
X32190Y32280D01*
Y32080D01*
X32140Y32030D01*
X32040D01*
X31990Y32080D01*
X31890Y32030D02*
X31790D01*
X31840D01*
Y32330D01*
X31890Y32280D01*
X31640Y32330D02*
X31440D01*
Y32280D01*
X31640Y32080D01*
Y32030D01*
X36050Y33000D02*
X36250D01*
Y32850D01*
X36150D01*
X36250D01*
Y32700D01*
X35950Y33000D02*
Y32700D01*
X35800D01*
X35750Y32750D01*
Y32800D01*
X35800Y32850D01*
X35950D01*
X35800D01*
X35750Y32900D01*
Y32950D01*
X35800Y33000D01*
X35950D01*
X35650Y32700D02*
X35550D01*
X35600D01*
Y33000D01*
X35650Y32950D01*
X39240Y33560D02*
X39440D01*
Y33410D01*
X39340D01*
X39440D01*
Y33260D01*
X39140Y33560D02*
Y33260D01*
X38990D01*
X38940Y33310D01*
Y33360D01*
X38990Y33410D01*
X39140D01*
X38990D01*
X38940Y33460D01*
Y33510D01*
X38990Y33560D01*
X39140D01*
X38640Y33260D02*
X38840D01*
X38640Y33460D01*
Y33510D01*
X38690Y33560D01*
X38790D01*
X38840Y33510D01*
X33550Y28900D02*
Y29200D01*
X33400D01*
X33350Y29150D01*
Y29050D01*
X33400Y29000D01*
X33550D01*
X33450D02*
X33350Y28900D01*
X33250D02*
X33150D01*
X33200D01*
Y29200D01*
X33250Y29150D01*
X33525Y30575D02*
Y30875D01*
X33375D01*
X33325Y30825D01*
Y30725D01*
X33375Y30675D01*
X33525D01*
X33425D02*
X33325Y30575D01*
X33025D02*
X33225D01*
X33025Y30775D01*
Y30825D01*
X33075Y30875D01*
X33175D01*
X33225Y30825D01*
X33550Y29750D02*
Y30050D01*
X33400D01*
X33350Y30000D01*
Y29900D01*
X33400Y29850D01*
X33550D01*
X33450D02*
X33350Y29750D01*
X33100D02*
Y30050D01*
X33250Y29900D01*
X33050D01*
X30670Y40360D02*
Y40660D01*
X30520D01*
X30470Y40610D01*
Y40510D01*
X30520Y40460D01*
X30670D01*
X30570D02*
X30470Y40360D01*
X30170Y40660D02*
X30370D01*
Y40510D01*
X30270Y40560D01*
X30220D01*
X30170Y40510D01*
Y40410D01*
X30220Y40360D01*
X30320D01*
X30370Y40410D01*
X34160Y38020D02*
Y38320D01*
X34010D01*
X33960Y38270D01*
Y38170D01*
X34010Y38120D01*
X34160D01*
X34060D02*
X33960Y38020D01*
X33860Y38270D02*
X33810Y38320D01*
X33710D01*
X33660Y38270D01*
Y38220D01*
X33710Y38170D01*
X33660Y38120D01*
Y38070D01*
X33710Y38020D01*
X33810D01*
X33860Y38070D01*
Y38120D01*
X33810Y38170D01*
X33860Y38220D01*
Y38270D01*
X33810Y38170D02*
X33710D01*
X26850Y37550D02*
Y37850D01*
X26700D01*
X26650Y37800D01*
Y37700D01*
X26700Y37650D01*
X26850D01*
X26750D02*
X26650Y37550D01*
X26550Y37600D02*
X26500Y37550D01*
X26400D01*
X26350Y37600D01*
Y37800D01*
X26400Y37850D01*
X26500D01*
X26550Y37800D01*
Y37750D01*
X26500Y37700D01*
X26350D01*
X23350Y40370D02*
Y40670D01*
X23200D01*
X23150Y40620D01*
Y40520D01*
X23200Y40470D01*
X23350D01*
X23250D02*
X23150Y40370D01*
X23050D02*
X22950D01*
X23000D01*
Y40670D01*
X23050Y40620D01*
X22800D02*
X22750Y40670D01*
X22650D01*
X22600Y40620D01*
Y40420D01*
X22650Y40370D01*
X22750D01*
X22800Y40420D01*
Y40620D01*
X34770Y40360D02*
Y40660D01*
X34620D01*
X34570Y40610D01*
Y40510D01*
X34620Y40460D01*
X34770D01*
X34670D02*
X34570Y40360D01*
X34470D02*
X34370D01*
X34420D01*
Y40660D01*
X34470Y40610D01*
X34220Y40360D02*
X34120D01*
X34170D01*
Y40660D01*
X34220Y40610D01*
X32720Y40360D02*
Y40660D01*
X32570D01*
X32520Y40610D01*
Y40510D01*
X32570Y40460D01*
X32720D01*
X32620D02*
X32520Y40360D01*
X32420D02*
X32320D01*
X32370D01*
Y40660D01*
X32420Y40610D01*
X31970Y40360D02*
X32170D01*
X31970Y40560D01*
Y40610D01*
X32020Y40660D01*
X32120D01*
X32170Y40610D01*
X25750Y38300D02*
Y38600D01*
X25600D01*
X25550Y38550D01*
Y38450D01*
X25600Y38400D01*
X25750D01*
X25650D02*
X25550Y38300D01*
X25450D02*
X25350D01*
X25400D01*
Y38600D01*
X25450Y38550D01*
X25200D02*
X25150Y38600D01*
X25050D01*
X25000Y38550D01*
Y38500D01*
X25050Y38450D01*
X25100D01*
X25050D01*
X25000Y38400D01*
Y38350D01*
X25050Y38300D01*
X25150D01*
X25200Y38350D01*
X26950Y32950D02*
Y33250D01*
X26800D01*
X26750Y33200D01*
Y33100D01*
X26800Y33050D01*
X26950D01*
X26850D02*
X26750Y32950D01*
X26650D02*
X26550D01*
X26600D01*
Y33250D01*
X26650Y33200D01*
X26200Y33250D02*
X26400D01*
Y33100D01*
X26300Y33150D01*
X26250D01*
X26200Y33100D01*
Y33000D01*
X26250Y32950D01*
X26350D01*
X26400Y33000D01*
X23250Y29350D02*
Y29650D01*
X23100D01*
X23050Y29600D01*
Y29500D01*
X23100Y29450D01*
X23250D01*
X23150D02*
X23050Y29350D01*
X22950D02*
X22850D01*
X22900D01*
Y29650D01*
X22950Y29600D01*
X22500Y29650D02*
X22600Y29600D01*
X22700Y29500D01*
Y29400D01*
X22650Y29350D01*
X22550D01*
X22500Y29400D01*
Y29450D01*
X22550Y29500D01*
X22700D01*
X25800Y32250D02*
Y32550D01*
X25650D01*
X25600Y32500D01*
Y32400D01*
X25650Y32350D01*
X25800D01*
X25700D02*
X25600Y32250D01*
X25500D02*
X25400D01*
X25450D01*
Y32550D01*
X25500Y32500D01*
X25250Y32550D02*
X25050D01*
Y32500D01*
X25250Y32300D01*
Y32250D01*
X33450Y35700D02*
X33150D01*
Y35550D01*
X33200Y35500D01*
X33300D01*
X33350Y35550D01*
Y35700D01*
Y35600D02*
X33450Y35500D01*
Y35400D02*
Y35300D01*
Y35350D01*
X33150D01*
X33200Y35400D01*
Y35150D02*
X33150Y35100D01*
Y35000D01*
X33200Y34950D01*
X33250D01*
X33300Y35000D01*
X33350Y34950D01*
X33400D01*
X33450Y35000D01*
Y35100D01*
X33400Y35150D01*
X33350D01*
X33300Y35100D01*
X33250Y35150D01*
X33200D01*
X33300Y35100D02*
Y35000D01*
X33400Y34300D02*
X33100D01*
Y34150D01*
X33150Y34100D01*
X33250D01*
X33300Y34150D01*
Y34300D01*
Y34200D02*
X33400Y34100D01*
Y34000D02*
Y33900D01*
Y33950D01*
X33100D01*
X33150Y34000D01*
X33350Y33750D02*
X33400Y33700D01*
Y33600D01*
X33350Y33550D01*
X33150D01*
X33100Y33600D01*
Y33700D01*
X33150Y33750D01*
X33200D01*
X33250Y33700D01*
Y33550D01*
X37900Y33800D02*
X37700D01*
X37800D01*
Y33500D01*
X37600D02*
Y33800D01*
X37450D01*
X37400Y33750D01*
Y33650D01*
X37450Y33600D01*
X37600D01*
X37300Y33500D02*
X37200D01*
X37250D01*
Y33800D01*
X37300Y33750D01*
X34200Y32600D02*
X34000D01*
X34100D01*
Y32300D01*
X33900D02*
Y32600D01*
X33750D01*
X33700Y32550D01*
Y32450D01*
X33750Y32400D01*
X33900D01*
X33400Y32300D02*
X33600D01*
X33400Y32500D01*
Y32550D01*
X33450Y32600D01*
X33550D01*
X33600Y32550D01*
X31898Y38132D02*
Y37882D01*
X31848Y37832D01*
X31748D01*
X31698Y37882D01*
Y38132D01*
X31598Y37832D02*
X31498D01*
X31548D01*
Y38132D01*
X31598Y38082D01*
X39320Y30270D02*
Y30020D01*
X39270Y29970D01*
X39170D01*
X39120Y30020D01*
Y30270D01*
X38820Y30220D02*
X38870Y30270D01*
X38970D01*
X39020Y30220D01*
Y30170D01*
X38970Y30120D01*
X38870D01*
X38820Y30070D01*
Y30020D01*
X38870Y29970D01*
X38970D01*
X39020Y30020D01*
X38720Y30270D02*
Y29970D01*
X38570D01*
X38520Y30020D01*
Y30070D01*
X38570Y30120D01*
X38720D01*
X38570D01*
X38520Y30170D01*
Y30220D01*
X38570Y30270D01*
X38720D01*
X38420Y29920D02*
X38220D01*
X38120Y29970D02*
X38020D01*
X38070D01*
Y30270D01*
X38120Y30220D01*
X36353Y36099D02*
Y36049D01*
X36253Y35949D01*
X36153Y36049D01*
Y36099D01*
X36253Y35949D02*
Y35799D01*
X36053D02*
X35953D01*
X36003D01*
Y36099D01*
X36053Y36049D01*
D76*
X33000Y32100D02*
G03*
X33200Y32300I-100J300D01*
G01*
X32600D02*
G03*
X32800Y32100I300J100D01*
G01*
Y32700D02*
G03*
X32600Y32500I100J-300D01*
G01*
X33200D02*
G03*
X33000Y32700I-300J-100D01*
G01*
X37000Y33800D02*
G03*
X36800Y34000I-300J-100D01*
G01*
Y33400D02*
G03*
X37000Y33600I-100J300D01*
G01*
X36400D02*
G03*
X36600Y33400I300J100D01*
G01*
Y34000D02*
G03*
X36400Y33800I100J-300D01*
G01*
D77*
X29222Y37152D02*
G03*
X29222Y37152I-49J0D01*
G01*
D78*
X29813Y36306D02*
G03*
X29813Y36306I-118J0D01*
G01*
M02*
