%FSLAX42Y42*%
%MOMM*%
G71*
G01*
G75*
G04 Layer_Color=16711935*
%ADD10R,1.40X1.10*%
%ADD11R,1.10X1.70*%
%ADD12R,1.80X1.30*%
%ADD13R,2.30X2.30*%
%ADD14R,2.10X1.40*%
%ADD15R,3.30X2.40*%
%ADD16R,2.55X1.85*%
%ADD17R,1.35X2.15*%
%ADD18R,1.10X1.40*%
%ADD19O,0.70X2.60*%
%ADD20C,1.27*%
%ADD21C,0.76*%
%ADD22C,1.14*%
%ADD23C,1.02*%
%ADD24C,0.89*%
%ADD25C,0.51*%
%ADD26C,0.64*%
%ADD27C,0.38*%
%ADD28C,0.25*%
%ADD29C,0.10*%
%ADD30C,0.15*%
%ADD31C,1.52*%
%ADD32C,2.97*%
%ADD33R,2.97X2.97*%
%ADD34R,1.50X1.50*%
%ADD35C,1.50*%
%ADD36C,3.23*%
%ADD37C,5.08*%
%ADD38C,1.27*%
%ADD39C,0.20*%
%ADD40C,0.60*%
%ADD41C,0.25*%
%ADD42C,0.13*%
%ADD43C,0.15*%
%ADD44R,1.65X1.35*%
%ADD45R,1.35X1.95*%
%ADD46R,2.05X1.55*%
%ADD47R,2.55X2.55*%
%ADD48R,2.35X1.65*%
%ADD49R,3.55X2.65*%
%ADD50R,2.80X2.10*%
%ADD51R,1.60X2.40*%
%ADD52R,1.35X1.65*%
%ADD53O,0.95X2.85*%
%ADD54C,1.78*%
%ADD55C,3.23*%
%ADD56R,3.23X3.23*%
%ADD57R,1.75X1.75*%
%ADD58C,1.75*%
%ADD59C,3.48*%
%ADD60C,5.33*%
D28*
X5207Y7747D02*
Y15113D01*
X12573D01*
Y7747D02*
Y15113D01*
X5207Y7747D02*
X12573D01*
X4039Y15113D02*
X5169D01*
X4039Y7747D02*
X5169D01*
X4064Y12319D02*
Y15113D01*
Y7747D02*
Y10460D01*
X4013Y14961D02*
X4064Y15113D01*
X4115Y14961D01*
X4064Y7747D02*
X4115Y7899D01*
X4013D02*
X4064Y7747D01*
X12573Y6909D02*
Y7709D01*
X5207Y6909D02*
Y7709D01*
X9779Y6934D02*
X12573D01*
X5207D02*
X7920D01*
X12421Y6985D02*
X12573Y6934D01*
X12421Y6883D02*
X12573Y6934D01*
X5207D02*
X5359Y6883D01*
X5207Y6934D02*
X5359Y6985D01*
D29*
X9530Y12446D02*
X9570D01*
X9550Y12426D02*
Y12466D01*
X11194Y12421D02*
X11234D01*
X11214Y12401D02*
Y12441D01*
X8700Y12446D02*
X8740D01*
X8720Y12426D02*
Y12466D01*
X10369Y12446D02*
X10409D01*
X10389Y12426D02*
Y12466D01*
X7816Y11007D02*
X7856D01*
X7836Y10987D02*
Y11027D01*
X10922Y11626D02*
Y11666D01*
X10902Y11646D02*
X10942D01*
X8649Y10864D02*
Y10904D01*
X8629Y10884D02*
X8669D01*
D30*
X4155Y10602D02*
Y10501D01*
X4054Y10602D01*
X4028D01*
X4003Y10577D01*
Y10526D01*
X4028Y10501D01*
X4130Y10653D02*
X4155Y10678D01*
Y10729D01*
X4130Y10755D01*
X4028D01*
X4003Y10729D01*
Y10678D01*
X4028Y10653D01*
X4054D01*
X4079Y10678D01*
Y10755D01*
X4028Y10805D02*
X4003Y10831D01*
Y10882D01*
X4028Y10907D01*
X4130D01*
X4155Y10882D01*
Y10831D01*
X4130Y10805D01*
X4028D01*
Y10958D02*
X4003Y10983D01*
Y11034D01*
X4028Y11059D01*
X4130D01*
X4155Y11034D01*
Y10983D01*
X4130Y10958D01*
X4028D01*
X4155Y11110D02*
X4130D01*
Y11135D01*
X4155D01*
Y11110D01*
X4028Y11237D02*
X4003Y11262D01*
Y11313D01*
X4028Y11339D01*
X4130D01*
X4155Y11313D01*
Y11262D01*
X4130Y11237D01*
X4028D01*
Y11389D02*
X4003Y11415D01*
Y11466D01*
X4028Y11491D01*
X4130D01*
X4155Y11466D01*
Y11415D01*
X4130Y11389D01*
X4028D01*
X4155Y11745D02*
X4105Y11694D01*
X4054D01*
X4003Y11745D01*
X4155Y11821D02*
X4054D01*
Y11846D01*
X4079Y11872D01*
X4155D01*
X4079D01*
X4054Y11897D01*
X4079Y11923D01*
X4155D01*
Y11973D02*
Y12024D01*
Y11999D01*
X4054D01*
Y11973D01*
X4155Y12100D02*
Y12151D01*
Y12126D01*
X4003D01*
Y12100D01*
X4155Y12227D02*
X4105Y12278D01*
X4054D01*
X4003Y12227D01*
X8062Y6843D02*
X7961D01*
X8062Y6944D01*
Y6970D01*
X8037Y6995D01*
X7986D01*
X7961Y6970D01*
X8113Y6868D02*
X8138Y6843D01*
X8189D01*
X8215Y6868D01*
Y6970D01*
X8189Y6995D01*
X8138D01*
X8113Y6970D01*
Y6944D01*
X8138Y6919D01*
X8215D01*
X8265Y6970D02*
X8291Y6995D01*
X8342D01*
X8367Y6970D01*
Y6868D01*
X8342Y6843D01*
X8291D01*
X8265Y6868D01*
Y6970D01*
X8418D02*
X8443Y6995D01*
X8494D01*
X8519Y6970D01*
Y6868D01*
X8494Y6843D01*
X8443D01*
X8418Y6868D01*
Y6970D01*
X8570Y6843D02*
Y6868D01*
X8595D01*
Y6843D01*
X8570D01*
X8697Y6970D02*
X8722Y6995D01*
X8773D01*
X8799Y6970D01*
Y6868D01*
X8773Y6843D01*
X8722D01*
X8697Y6868D01*
Y6970D01*
X8849D02*
X8875Y6995D01*
X8926D01*
X8951Y6970D01*
Y6868D01*
X8926Y6843D01*
X8875D01*
X8849Y6868D01*
Y6970D01*
X9205Y6843D02*
X9154Y6894D01*
Y6944D01*
X9205Y6995D01*
X9281Y6843D02*
Y6944D01*
X9306D01*
X9332Y6919D01*
Y6843D01*
Y6919D01*
X9357Y6944D01*
X9383Y6919D01*
Y6843D01*
X9433D02*
X9484D01*
X9459D01*
Y6944D01*
X9433D01*
X9560Y6843D02*
X9611D01*
X9586D01*
Y6995D01*
X9560D01*
X9687Y6843D02*
X9738Y6894D01*
Y6944D01*
X9687Y6995D01*
M02*
