M48
;Layer_Color=9474304
;FILE_FORMAT=4:2
METRIC,LZ
;TYPE=PLATED
T1F00S00C0.46
T2F00S00C0.71
T3F00S00C0.76
T4F00S00C0.90
T5F00S00C1.70
T6F00S00C1.78
T7F00S00C2.79
%
T01
X006718Y011557
X008433Y011379
T02
X007531Y010355
X008877Y010401
X008915Y009525
X008966Y009157
X009812Y009151
X009652Y009995
X010858Y010224
X010681Y010719
Y011278
X009131Y011582
X009868Y011989
X01035Y011913
T03
X0087Y01176
X011354Y011278
X011036Y01317
X008382
T04
X006477Y008694
X006731Y0087
X006985
X007239
X007493
X007747
Y008954
X007493
X007239
X006985
X006731
X006477
X007254Y009741
X007604
X008001Y008954
X008255
X008509
X008763
X009017
X009271
X009525
X009779
X010033
X010287
X010541
X010795
X011049
X011303
Y0087
X011049
X010795
X010541
X010287
X010033
X009779
X009525
X009271
X009017
X008763
X008509
X008255
X008001
T05
X008566Y013589
X008962
X009358
X009754
X01015
X010546
T06
X00672Y009741
Y010631
T07
X00569Y009741
Y010631
M30
