%FSLAX24Y24*%
%MOIN*%
G70*
G01*
G75*
G04 Layer_Color=8388736*
%ADD10R,0.0433X0.0492*%
%ADD11R,0.0512X0.0610*%
%ADD12R,0.0512X0.0394*%
%ADD13R,0.0866X0.0374*%
%ADD14R,0.0551X0.0472*%
%ADD15C,0.0120*%
%ADD16C,0.0100*%
%ADD17C,0.0340*%
%ADD18C,0.0532*%
%ADD19R,0.0532X0.0532*%
%ADD20C,0.0591*%
%ADD21R,0.0591X0.0591*%
%ADD22C,0.1100*%
%ADD23C,0.0540*%
%ADD24C,0.0787*%
%ADD25C,0.0689*%
%ADD26R,0.1144X0.1144*%
%ADD27C,0.1654*%
%ADD28C,0.1220*%
%ADD29C,0.0500*%
%ADD30C,0.0300*%
%ADD31C,0.0250*%
%ADD32R,0.0394X0.0512*%
%ADD33O,0.0217X0.0630*%
%ADD34O,0.0630X0.0217*%
%ADD35R,0.0433X0.0551*%
%ADD36R,0.0551X0.0433*%
%ADD37R,0.0472X0.0551*%
%ADD38R,0.0315X0.0354*%
%ADD39R,0.0980X0.0790*%
%ADD40R,0.0940X0.0200*%
%ADD41C,0.0200*%
%ADD42C,0.0150*%
%ADD43C,0.0500*%
%ADD44C,0.0079*%
%ADD45C,0.0050*%
%ADD46C,0.0059*%
%ADD47C,0.0059*%
%ADD48R,0.0513X0.0572*%
%ADD49R,0.0592X0.0690*%
%ADD50R,0.0592X0.0474*%
%ADD51R,0.0946X0.0454*%
%ADD52R,0.0631X0.0552*%
%ADD53C,0.0420*%
%ADD54C,0.0612*%
%ADD55R,0.0612X0.0612*%
%ADD56C,0.0671*%
%ADD57R,0.0671X0.0671*%
%ADD58C,0.1180*%
%ADD59C,0.0620*%
%ADD60C,0.0867*%
%ADD61C,0.0769*%
%ADD62R,0.1224X0.1224*%
%ADD63C,0.1734*%
%ADD64C,0.1300*%
%ADD65C,0.0580*%
%ADD66C,0.0380*%
D48*
X36740Y31957D02*
D03*
Y32883D02*
D03*
D49*
X33614Y38585D02*
D03*
X35386D02*
D03*
X33614Y41715D02*
D03*
X35386D02*
D03*
X30414Y38585D02*
D03*
X32186D02*
D03*
X30414Y41715D02*
D03*
X32186D02*
D03*
Y31415D02*
D03*
X30414D02*
D03*
X32186Y28285D02*
D03*
X30414D02*
D03*
X32186Y36565D02*
D03*
X30414D02*
D03*
X32186Y33435D02*
D03*
X30414D02*
D03*
X33614Y28285D02*
D03*
X35386D02*
D03*
X33614Y31415D02*
D03*
X35386D02*
D03*
X27214Y33435D02*
D03*
X28986D02*
D03*
X27214Y36565D02*
D03*
X28986D02*
D03*
X35386D02*
D03*
X33614D02*
D03*
X35386Y33435D02*
D03*
X33614D02*
D03*
D50*
X31300Y32735D02*
D03*
Y32105D02*
D03*
X34500Y32735D02*
D03*
Y32105D02*
D03*
X29700Y34615D02*
D03*
Y33985D02*
D03*
D51*
X27450Y38600D02*
D03*
X28749D02*
D03*
D52*
X37570Y32774D02*
D03*
Y32066D02*
D03*
D53*
X32900Y32400D02*
D03*
X36700Y33700D02*
D03*
D54*
X28300Y41644D02*
D03*
Y28356D02*
D03*
D55*
Y40856D02*
D03*
Y29144D02*
D03*
D56*
X24750Y41234D02*
D03*
Y28866D02*
D03*
D57*
Y39266D02*
D03*
Y30834D02*
D03*
D58*
X23500Y36700D02*
D03*
Y33300D02*
D03*
X20000D02*
D03*
X22700Y35700D02*
D03*
X20500D02*
D03*
X19600Y34900D02*
D03*
D59*
X38030Y29290D02*
D03*
Y31010D02*
D03*
D60*
X39150Y39103D02*
D03*
X37150D02*
D03*
D61*
X39150Y38070D02*
D03*
X38150D02*
D03*
X37150D02*
D03*
D62*
X18278Y41723D02*
D03*
Y38337D02*
D03*
Y31663D02*
D03*
Y28277D02*
D03*
D63*
X19518Y40030D02*
D03*
Y29970D02*
D03*
D64*
X21290Y40030D02*
D03*
Y29970D02*
D03*
D65*
X36090Y28330D02*
D03*
D66*
X30550Y35550D02*
D03*
X31350D02*
D03*
X33000Y37100D02*
D03*
X31350Y34550D02*
D03*
X30750D02*
D03*
X34600Y37200D02*
D03*
X32350Y37750D02*
D03*
X29600Y39100D02*
D03*
X32500Y39200D02*
D03*
X35400Y39750D02*
D03*
X28750Y37550D02*
D03*
X28000D02*
D03*
X31250Y31250D02*
D03*
X29150Y30600D02*
D03*
X38300Y32700D02*
D03*
X31250Y29500D02*
D03*
X32900Y33750D02*
D03*
X36720Y34620D02*
D03*
X38870Y34700D02*
D03*
M02*
