M48
;Layer_Color=9474304
;FILE_FORMAT=2:4
INCH
;TYPE=PLATED
T1F00S00C0.0150
T2F00S00C0.0180
T3F00S00C0.0250
T4F00S00C0.0315
T5F00S00C0.0335
T6F00S00C0.0354
T7F00S00C0.0400
T8F00S00C0.0433
T9F00S00C0.0850
T10F00S00C0.0906
T11F00S00C0.1339
;TYPE=NON_PLATED
T12F00S00C0.0984
%
T01
X031250Y029500
X029150Y030600
X030750Y034550
X030550Y035550
X028750Y037550
X028000
X029600Y039100
X032500Y039200
X032350Y037750
X033000Y037100
X034600Y037200
X035400Y039750
X036720Y034620
X038870Y034700
X038300Y032700
X032900Y033750
X031350Y034550
Y035550
X031250Y031250
T02
X032900Y032400
X036700Y033700
T03
X036090Y028330
T04
X028300Y028356
Y029144
Y040856
Y041644
T05
X037150Y038070
X038150
X039150
T06
X024750Y028866
Y030834
Y039266
Y041234
T07
X038030Y029290
Y031010
T08
X037150Y039103
X039150
T09
X020000Y033300
X019600Y034900
X020500Y035700
X022700
X023500Y036700
Y033300
T10
X021290Y029970
Y040030
T11
X019518Y029970
Y040030
T12
X018278Y028277
Y031663
Y038337
Y041723
M30
