%FSLAX24Y24*%
%MOIN*%
G70*
G01*
G75*
G04 Layer_Physical_Order=1*
G04 Layer_Color=255*
%ADD10R,0.0433X0.0492*%
%ADD11R,0.0512X0.0610*%
%ADD12R,0.0512X0.0394*%
%ADD13R,0.0866X0.0374*%
%ADD14R,0.0551X0.0472*%
%ADD15C,0.0120*%
%ADD16C,0.0100*%
%ADD17C,0.0340*%
%ADD18C,0.0532*%
%ADD19R,0.0532X0.0532*%
%ADD20C,0.0591*%
%ADD21R,0.0591X0.0591*%
%ADD22C,0.1100*%
%ADD23C,0.0540*%
%ADD24C,0.0787*%
%ADD25C,0.0689*%
%ADD26R,0.1144X0.1144*%
%ADD27C,0.1654*%
%ADD28C,0.1220*%
%ADD29C,0.0500*%
%ADD30C,0.0300*%
G36*
X39988Y27662D02*
X18910D01*
Y28909D01*
X17662D01*
Y31031D01*
X18910D01*
Y32295D01*
X17662D01*
Y37705D01*
X18910D01*
Y38969D01*
X17662D01*
Y41091D01*
X18910D01*
Y42338D01*
X39988D01*
Y27662D01*
D02*
G37*
%LPC*%
G36*
X30730Y33800D02*
X30098D01*
Y33070D01*
X30730D01*
Y33800D01*
D02*
G37*
G36*
X27530D02*
X26898D01*
Y33070D01*
X27530D01*
Y33800D01*
D02*
G37*
G36*
X33930D02*
X33298D01*
Y33070D01*
X33930D01*
Y33800D01*
D02*
G37*
G36*
X32502D02*
X31870D01*
Y33070D01*
X32502D01*
Y33800D01*
D02*
G37*
G36*
X37017Y33189D02*
X36790D01*
Y32933D01*
X37017D01*
Y33189D01*
D02*
G37*
G36*
X23450Y33250D02*
X22892D01*
X22899Y33180D01*
X22934Y33065D01*
X22990Y32959D01*
X23067Y32867D01*
X23159Y32790D01*
X23265Y32734D01*
X23380Y32699D01*
X23450Y32692D01*
Y33250D01*
D02*
G37*
G36*
X20608D02*
X20050D01*
Y32692D01*
X20120Y32699D01*
X20235Y32734D01*
X20341Y32790D01*
X20433Y32867D01*
X20510Y32959D01*
X20566Y33065D01*
X20601Y33180D01*
X20608Y33250D01*
D02*
G37*
G36*
X36690Y33189D02*
X36463D01*
Y32933D01*
X36690D01*
Y33189D01*
D02*
G37*
G36*
X24108Y33250D02*
X23550D01*
Y32692D01*
X23620Y32699D01*
X23735Y32734D01*
X23841Y32790D01*
X23933Y32867D01*
X24010Y32959D01*
X24066Y33065D01*
X24101Y33180D01*
X24108Y33250D01*
D02*
G37*
G36*
X35702Y36930D02*
X35070D01*
Y36211D01*
X35070Y36211D01*
X35070D01*
X35070Y36200D01*
X35039Y36169D01*
X34650D01*
Y34631D01*
X35750D01*
Y36169D01*
X35733D01*
X35702Y36200D01*
X35702Y36211D01*
X35702Y36211D01*
X35702D01*
Y36930D01*
D02*
G37*
G36*
X30016Y34242D02*
X29384D01*
Y33728D01*
X29491D01*
X29514Y33673D01*
X29389Y33547D01*
X29302D01*
Y33800D01*
X28670D01*
Y33070D01*
X29302D01*
Y33323D01*
X29435D01*
X29435Y33323D01*
X29478Y33331D01*
X29514Y33356D01*
X29779Y33621D01*
X29779Y33621D01*
X29804Y33657D01*
X29812Y33700D01*
Y33728D01*
X30016D01*
Y34242D01*
D02*
G37*
G36*
X22700Y36313D02*
X22580Y36301D01*
X22465Y36266D01*
X22359Y36210D01*
X22267Y36133D01*
X22190Y36041D01*
X22134Y35935D01*
X22099Y35820D01*
X22087Y35700D01*
X22099Y35580D01*
X22134Y35465D01*
X22190Y35359D01*
X22267Y35267D01*
X22359Y35190D01*
X22465Y35134D01*
X22580Y35099D01*
X22700Y35087D01*
X22820Y35099D01*
X22935Y35134D01*
X23041Y35190D01*
X23133Y35267D01*
X23210Y35359D01*
X23266Y35465D01*
X23301Y35580D01*
X23313Y35700D01*
X23301Y35820D01*
X23266Y35935D01*
X23210Y36041D01*
X23133Y36133D01*
X23041Y36210D01*
X22935Y36266D01*
X22820Y36301D01*
X22700Y36313D01*
D02*
G37*
G36*
X38870Y34914D02*
X38788Y34898D01*
X38719Y34851D01*
X38672Y34782D01*
X38664Y34742D01*
X36891D01*
X36871Y34771D01*
X36802Y34818D01*
X36720Y34834D01*
X36638Y34818D01*
X36569Y34771D01*
X36522Y34702D01*
X36506Y34620D01*
X36522Y34538D01*
X36569Y34469D01*
X36638Y34422D01*
X36720Y34406D01*
X36802Y34422D01*
X36871Y34469D01*
X36891Y34498D01*
X38790D01*
X38800Y34500D01*
X38870Y34486D01*
X38952Y34502D01*
X39021Y34549D01*
X39068Y34618D01*
X39084Y34700D01*
X39068Y34782D01*
X39021Y34851D01*
X38952Y34898D01*
X38870Y34914D01*
D02*
G37*
G36*
X36700Y33935D02*
X36610Y33917D01*
X36534Y33866D01*
X36483Y33790D01*
X36465Y33700D01*
X36483Y33610D01*
X36534Y33534D01*
X36610Y33483D01*
X36700Y33465D01*
X36790Y33483D01*
X36866Y33534D01*
X36917Y33610D01*
X36935Y33700D01*
X36917Y33790D01*
X36866Y33866D01*
X36790Y33917D01*
X36700Y33935D01*
D02*
G37*
G36*
X20050Y33908D02*
Y33350D01*
X20608D01*
X20601Y33420D01*
X20566Y33535D01*
X20510Y33641D01*
X20433Y33733D01*
X20341Y33810D01*
X20235Y33866D01*
X20120Y33901D01*
X20050Y33908D01*
D02*
G37*
G36*
X19950D02*
X19880Y33901D01*
X19765Y33866D01*
X19659Y33810D01*
X19567Y33733D01*
X19490Y33641D01*
X19434Y33535D01*
X19399Y33420D01*
X19392Y33350D01*
X19950D01*
Y33908D01*
D02*
G37*
G36*
X23550D02*
Y33350D01*
X24108D01*
X24101Y33420D01*
X24066Y33535D01*
X24010Y33641D01*
X23933Y33733D01*
X23841Y33810D01*
X23735Y33866D01*
X23620Y33901D01*
X23550Y33908D01*
D02*
G37*
G36*
X23450D02*
X23380Y33901D01*
X23265Y33866D01*
X23159Y33810D01*
X23067Y33733D01*
X22990Y33641D01*
X22934Y33535D01*
X22899Y33420D01*
X22892Y33350D01*
X23450D01*
Y33908D01*
D02*
G37*
G36*
X19950Y33250D02*
X19392D01*
X19399Y33180D01*
X19434Y33065D01*
X19490Y32959D01*
X19567Y32867D01*
X19659Y32790D01*
X19765Y32734D01*
X19880Y32699D01*
X19950Y32692D01*
Y33250D01*
D02*
G37*
G36*
X24750Y29224D02*
X24657Y29212D01*
X24571Y29176D01*
X24497Y29119D01*
X24440Y29045D01*
X24404Y28958D01*
X24392Y28866D01*
X24404Y28773D01*
X24440Y28687D01*
X24497Y28612D01*
X24571Y28555D01*
X24657Y28520D01*
X24750Y28507D01*
X24843Y28520D01*
X24929Y28555D01*
X25003Y28612D01*
X25060Y28687D01*
X25096Y28773D01*
X25108Y28866D01*
X25096Y28958D01*
X25060Y29045D01*
X25003Y29119D01*
X24929Y29176D01*
X24843Y29212D01*
X24750Y29224D01*
D02*
G37*
G36*
X28300Y28685D02*
X28215Y28674D01*
X28136Y28641D01*
X28068Y28589D01*
X28015Y28521D01*
X27983Y28441D01*
X27971Y28356D01*
X27983Y28271D01*
X28015Y28192D01*
X28068Y28124D01*
X28136Y28072D01*
X28215Y28039D01*
X28300Y28028D01*
X28385Y28039D01*
X28464Y28072D01*
X28532Y28124D01*
X28585Y28192D01*
X28617Y28271D01*
X28629Y28356D01*
X28617Y28441D01*
X28585Y28521D01*
X28532Y28589D01*
X28464Y28641D01*
X28385Y28674D01*
X28300Y28685D01*
D02*
G37*
G36*
X20409Y30860D02*
X18629D01*
Y30022D01*
X18631Y30020D01*
X18631Y30009D01*
X18631Y29933D01*
X18629Y29080D01*
X20409D01*
Y29965D01*
Y29965D01*
Y29975D01*
Y30860D01*
D02*
G37*
G36*
X28626Y29469D02*
X27974D01*
Y28818D01*
X28626D01*
Y29469D01*
D02*
G37*
G36*
X36396Y28280D02*
X36140D01*
Y28024D01*
X36171Y28028D01*
X36246Y28059D01*
X36311Y28109D01*
X36361Y28174D01*
X36392Y28249D01*
X36396Y28280D01*
D02*
G37*
G36*
X30730Y28650D02*
X30098D01*
Y27920D01*
X30730D01*
Y28650D01*
D02*
G37*
G36*
X33930Y28650D02*
X33298D01*
Y27920D01*
X33930D01*
Y28650D01*
D02*
G37*
G36*
X36040Y28280D02*
X35784D01*
X35788Y28249D01*
X35819Y28174D01*
X35869Y28109D01*
X35934Y28059D01*
X36009Y28028D01*
X36040Y28024D01*
Y28280D01*
D02*
G37*
G36*
X32502Y28650D02*
X31870D01*
Y27920D01*
X32502D01*
Y28650D01*
D02*
G37*
G36*
X32900Y33964D02*
X32818Y33948D01*
X32749Y33901D01*
X32702Y33832D01*
X32686Y33750D01*
X32702Y33668D01*
X32749Y33599D01*
X32778Y33579D01*
Y32595D01*
X32734Y32566D01*
X32683Y32490D01*
X32665Y32400D01*
X32683Y32310D01*
X32734Y32234D01*
X32810Y32183D01*
X32900Y32165D01*
X32990Y32183D01*
X33066Y32234D01*
X33117Y32310D01*
X33135Y32400D01*
X33117Y32490D01*
X33066Y32566D01*
X33022Y32595D01*
Y33579D01*
X33051Y33599D01*
X33098Y33668D01*
X33114Y33750D01*
X33098Y33832D01*
X33051Y33901D01*
X32982Y33948D01*
X32900Y33964D01*
D02*
G37*
G36*
X37906Y32362D02*
X37234D01*
Y32080D01*
X37017D01*
Y32263D01*
X36463D01*
Y31651D01*
X37017D01*
Y31835D01*
X37234D01*
Y31769D01*
X37906D01*
Y32362D01*
D02*
G37*
G36*
X37017Y32833D02*
X36790D01*
Y32577D01*
X37017D01*
Y32833D01*
D02*
G37*
G36*
X36690D02*
X36463D01*
Y32577D01*
X36690D01*
Y32833D01*
D02*
G37*
G36*
X31616Y32362D02*
X30984D01*
Y31948D01*
X30786Y31749D01*
X30730Y31772D01*
Y31780D01*
X30098D01*
Y31050D01*
X30730D01*
Y31377D01*
X31202Y31848D01*
X31616D01*
Y32362D01*
D02*
G37*
G36*
X21290Y30643D02*
X21159Y30631D01*
X21032Y30592D01*
X20916Y30530D01*
X20814Y30446D01*
X20730Y30344D01*
X20668Y30228D01*
X20629Y30101D01*
X20617Y29970D01*
X20629Y29839D01*
X20668Y29712D01*
X20730Y29596D01*
X20814Y29494D01*
X20916Y29410D01*
X21032Y29348D01*
X21159Y29309D01*
X21290Y29297D01*
X21421Y29309D01*
X21548Y29348D01*
X21664Y29410D01*
X21766Y29494D01*
X21850Y29596D01*
X21912Y29712D01*
X21951Y29839D01*
X21963Y29970D01*
X21951Y30101D01*
X21912Y30228D01*
X21850Y30344D01*
X21766Y30446D01*
X21664Y30530D01*
X21548Y30592D01*
X21421Y30631D01*
X21290Y30643D01*
D02*
G37*
G36*
X31250Y31464D02*
X31168Y31448D01*
X31099Y31401D01*
X31052Y31332D01*
X31036Y31250D01*
X31052Y31168D01*
X31099Y31099D01*
X31128Y31079D01*
Y29671D01*
X31099Y29651D01*
X31052Y29582D01*
X31036Y29500D01*
X31052Y29418D01*
X31099Y29349D01*
X31168Y29302D01*
X31250Y29286D01*
X31332Y29302D01*
X31401Y29349D01*
X31448Y29418D01*
X31464Y29500D01*
X31448Y29582D01*
X31401Y29651D01*
X31372Y29671D01*
Y31079D01*
X31401Y31099D01*
X31448Y31168D01*
X31464Y31250D01*
X31448Y31332D01*
X31401Y31401D01*
X31332Y31448D01*
X31250Y31464D01*
D02*
G37*
G36*
X37906Y33071D02*
X37234D01*
Y32478D01*
X37906D01*
Y32652D01*
X38095D01*
X38102Y32618D01*
X38149Y32549D01*
X38218Y32502D01*
X38300Y32486D01*
X38334Y32493D01*
X38398Y32429D01*
Y31139D01*
X38339Y31127D01*
X38318Y31176D01*
X38265Y31245D01*
X38196Y31298D01*
X38116Y31332D01*
X38030Y31343D01*
X37944Y31332D01*
X37864Y31298D01*
X37795Y31245D01*
X37742Y31176D01*
X37708Y31096D01*
X37697Y31010D01*
X37708Y30924D01*
X37742Y30844D01*
X37795Y30775D01*
X37864Y30722D01*
X37944Y30688D01*
X38030Y30677D01*
X38116Y30688D01*
X38196Y30722D01*
X38265Y30775D01*
X38318Y30844D01*
X38339Y30893D01*
X38398Y30881D01*
Y29419D01*
X38339Y29407D01*
X38318Y29456D01*
X38265Y29525D01*
X38196Y29578D01*
X38116Y29612D01*
X38030Y29623D01*
X37944Y29612D01*
X37864Y29578D01*
X37795Y29525D01*
X37742Y29456D01*
X37708Y29376D01*
X37697Y29290D01*
X37708Y29204D01*
X37742Y29124D01*
X37795Y29055D01*
X37864Y29002D01*
X37937Y28971D01*
X37926Y28912D01*
X35811D01*
X35537Y29187D01*
X35497Y29213D01*
X35450Y29222D01*
X30701D01*
X29357Y30566D01*
X29364Y30600D01*
X29348Y30682D01*
X29301Y30751D01*
X29232Y30798D01*
X29150Y30814D01*
X29068Y30798D01*
X28999Y30751D01*
X28952Y30682D01*
X28936Y30600D01*
X28952Y30518D01*
X28999Y30449D01*
X29068Y30402D01*
X29150Y30386D01*
X29184Y30393D01*
X30563Y29013D01*
X30563Y29013D01*
X30563D01*
X30563Y29013D01*
X30563D01*
X30563Y29013D01*
Y29013D01*
Y29013D01*
D01*
D01*
X30563D01*
Y29013D01*
X30603Y28987D01*
X30650Y28978D01*
X35399D01*
X35671Y28706D01*
X35666Y28692D01*
X35638Y28650D01*
X35070D01*
Y27920D01*
X35702D01*
Y28632D01*
X35748Y28670D01*
X35760Y28668D01*
X35941D01*
X35953Y28609D01*
X35934Y28601D01*
X35869Y28551D01*
X35819Y28486D01*
X35788Y28411D01*
X35784Y28380D01*
X36396D01*
X36392Y28411D01*
X36361Y28486D01*
X36311Y28551D01*
X36246Y28601D01*
X36227Y28609D01*
X36239Y28668D01*
X38240D01*
X38287Y28677D01*
X38327Y28703D01*
X38607Y28983D01*
X38633Y29023D01*
X38642Y29070D01*
Y32480D01*
X38633Y32527D01*
X38607Y32567D01*
X38507Y32666D01*
X38514Y32700D01*
X38498Y32782D01*
X38451Y32851D01*
X38382Y32898D01*
X38300Y32914D01*
X38218Y32898D01*
X38216Y32897D01*
X37906D01*
Y33071D01*
D02*
G37*
G36*
X25105Y31190D02*
X24395D01*
Y30479D01*
X25105D01*
Y31190D01*
D02*
G37*
G36*
X20400Y40920D02*
X18620D01*
Y40082D01*
X18622Y40080D01*
X18620Y39140D01*
X20400D01*
Y39934D01*
X20404Y39980D01*
X20400D01*
Y40080D01*
X20404D01*
X20400Y40126D01*
Y40920D01*
D02*
G37*
G36*
X25105Y39621D02*
X24395D01*
Y38910D01*
X25105D01*
Y39621D01*
D02*
G37*
G36*
X37200Y39555D02*
Y39153D01*
X37601D01*
X37592Y39222D01*
X37546Y39332D01*
X37474Y39427D01*
X37379Y39500D01*
X37268Y39545D01*
X37200Y39555D01*
D02*
G37*
G36*
X37100D02*
X37032Y39545D01*
X36921Y39500D01*
X36826Y39427D01*
X36754Y39332D01*
X36708Y39222D01*
X36699Y39153D01*
X37100D01*
Y39555D01*
D02*
G37*
G36*
X39601Y39053D02*
X39200D01*
Y38652D01*
X39268Y38661D01*
X39379Y38707D01*
X39474Y38780D01*
X39546Y38875D01*
X39592Y38985D01*
X39601Y39053D01*
D02*
G37*
G36*
X37100D02*
X36699D01*
X36708Y38985D01*
X36754Y38875D01*
X36826Y38780D01*
X36921Y38707D01*
X37032Y38661D01*
X37100Y38652D01*
Y39053D01*
D02*
G37*
G36*
X29242Y38847D02*
X28799D01*
Y38650D01*
X29242D01*
Y38847D01*
D02*
G37*
G36*
X39100Y39053D02*
X38699D01*
X38708Y38985D01*
X38754Y38875D01*
X38826Y38780D01*
X38921Y38707D01*
X39032Y38661D01*
X39100Y38652D01*
Y39053D01*
D02*
G37*
G36*
X37601D02*
X37200D01*
Y38652D01*
X37268Y38661D01*
X37379Y38707D01*
X37474Y38780D01*
X37546Y38875D01*
X37592Y38985D01*
X37601Y39053D01*
D02*
G37*
G36*
X39100Y39555D02*
X39032Y39545D01*
X38921Y39500D01*
X38826Y39427D01*
X38754Y39332D01*
X38708Y39222D01*
X38699Y39153D01*
X39100D01*
Y39555D01*
D02*
G37*
G36*
X30730Y42080D02*
X30098D01*
Y41350D01*
X30730D01*
Y42080D01*
D02*
G37*
G36*
X28300Y41972D02*
X28215Y41961D01*
X28136Y41928D01*
X28068Y41876D01*
X28015Y41808D01*
X27983Y41729D01*
X27971Y41644D01*
X27983Y41559D01*
X28015Y41479D01*
X28068Y41411D01*
X28136Y41359D01*
X28215Y41326D01*
X28300Y41315D01*
X28385Y41326D01*
X28464Y41359D01*
X28532Y41411D01*
X28585Y41479D01*
X28617Y41559D01*
X28629Y41644D01*
X28617Y41729D01*
X28585Y41808D01*
X28532Y41876D01*
X28464Y41928D01*
X28385Y41961D01*
X28300Y41972D01*
D02*
G37*
G36*
X33930Y42080D02*
X33298D01*
Y41350D01*
X33930D01*
Y42080D01*
D02*
G37*
G36*
X32502D02*
X31870D01*
Y41350D01*
X32502D01*
Y42080D01*
D02*
G37*
G36*
X24750Y41593D02*
X24657Y41580D01*
X24571Y41545D01*
X24497Y41488D01*
X24440Y41413D01*
X24404Y41327D01*
X24392Y41234D01*
X24404Y41142D01*
X24440Y41055D01*
X24497Y40981D01*
X24571Y40924D01*
X24657Y40888D01*
X24750Y40876D01*
X24843Y40888D01*
X24929Y40924D01*
X25003Y40981D01*
X25060Y41055D01*
X25096Y41142D01*
X25108Y41234D01*
X25096Y41327D01*
X25060Y41413D01*
X25003Y41488D01*
X24929Y41545D01*
X24843Y41580D01*
X24750Y41593D01*
D02*
G37*
G36*
X21290Y40703D02*
X21159Y40691D01*
X21032Y40652D01*
X20916Y40590D01*
X20814Y40506D01*
X20730Y40404D01*
X20668Y40288D01*
X20629Y40161D01*
X20617Y40030D01*
X20629Y39899D01*
X20668Y39772D01*
X20730Y39656D01*
X20814Y39554D01*
X20916Y39470D01*
X21032Y39408D01*
X21159Y39369D01*
X21290Y39357D01*
X21421Y39369D01*
X21548Y39408D01*
X21664Y39470D01*
X21766Y39554D01*
X21850Y39656D01*
X21912Y39772D01*
X21951Y39899D01*
X21963Y40030D01*
X21951Y40161D01*
X21912Y40288D01*
X21850Y40404D01*
X21766Y40506D01*
X21664Y40590D01*
X21548Y40652D01*
X21421Y40691D01*
X21290Y40703D01*
D02*
G37*
G36*
X39200Y39555D02*
Y39153D01*
X39601D01*
X39592Y39222D01*
X39546Y39332D01*
X39474Y39427D01*
X39379Y39500D01*
X39268Y39545D01*
X39200Y39555D01*
D02*
G37*
G36*
X28626Y41182D02*
X27974D01*
Y40531D01*
X28626D01*
Y41182D01*
D02*
G37*
G36*
X35702Y42080D02*
X35070D01*
Y41350D01*
X35288D01*
Y39928D01*
X35249Y39901D01*
X35202Y39832D01*
X35186Y39750D01*
X35202Y39668D01*
X35249Y39599D01*
X35318Y39552D01*
X35400Y39536D01*
X35482Y39552D01*
X35551Y39599D01*
X35598Y39668D01*
X35614Y39750D01*
X35598Y39832D01*
X35551Y39901D01*
X35512Y39928D01*
Y41350D01*
X35702D01*
Y42080D01*
D02*
G37*
G36*
X23450Y37308D02*
X23380Y37301D01*
X23265Y37266D01*
X23159Y37210D01*
X23067Y37133D01*
X22990Y37041D01*
X22934Y36935D01*
X22899Y36820D01*
X22892Y36750D01*
X23450D01*
Y37308D01*
D02*
G37*
G36*
X29600Y39314D02*
X29518Y39298D01*
X29449Y39251D01*
X29402Y39182D01*
X29386Y39100D01*
X29402Y39018D01*
X29449Y38949D01*
X29488Y38922D01*
Y37379D01*
X29488Y37379D01*
X29496Y37336D01*
X29521Y37300D01*
X30098Y36722D01*
Y36200D01*
X30730D01*
Y36930D01*
X30208D01*
X29712Y37426D01*
Y38922D01*
X29751Y38949D01*
X29798Y39018D01*
X29814Y39100D01*
X29798Y39182D01*
X29751Y39251D01*
X29682Y39298D01*
X29600Y39314D01*
D02*
G37*
G36*
X34600Y37414D02*
X34518Y37398D01*
X34449Y37351D01*
X34402Y37282D01*
X34386Y37200D01*
X34395Y37154D01*
X33986Y36744D01*
X33930Y36767D01*
Y36930D01*
X33298D01*
Y36200D01*
X33930D01*
Y36278D01*
X33965Y36453D01*
X34008Y36461D01*
X34044Y36486D01*
X34554Y36995D01*
X34600Y36986D01*
X34682Y37002D01*
X34751Y37049D01*
X34798Y37118D01*
X34814Y37200D01*
X34798Y37282D01*
X34751Y37351D01*
X34682Y37398D01*
X34600Y37414D01*
D02*
G37*
G36*
X23550Y37308D02*
Y36750D01*
X24108D01*
X24101Y36820D01*
X24066Y36935D01*
X24010Y37041D01*
X23933Y37133D01*
X23841Y37210D01*
X23735Y37266D01*
X23620Y37301D01*
X23550Y37308D01*
D02*
G37*
G36*
X29302Y36930D02*
X28670D01*
Y36200D01*
X29302D01*
Y36930D01*
D02*
G37*
G36*
X20500Y36313D02*
X20380Y36301D01*
X20265Y36266D01*
X20159Y36210D01*
X20067Y36133D01*
X19990Y36041D01*
X19934Y35935D01*
X19899Y35820D01*
X19887Y35700D01*
X19899Y35580D01*
X19906Y35558D01*
X19870Y35510D01*
D01*
Y35510D01*
X19870Y35510D01*
X18990D01*
Y34952D01*
X18992Y34950D01*
D01*
D01*
X18992Y34853D01*
D01*
X18990Y34290D01*
X20210D01*
Y34870D01*
Y34870D01*
Y34930D01*
Y35100D01*
X20257Y35138D01*
X20265Y35134D01*
X20380Y35099D01*
X20500Y35087D01*
X20620Y35099D01*
X20735Y35134D01*
X20841Y35190D01*
X20933Y35267D01*
X21010Y35359D01*
X21066Y35465D01*
X21101Y35580D01*
X21113Y35700D01*
X21101Y35820D01*
X21066Y35935D01*
X21010Y36041D01*
X20933Y36133D01*
X20841Y36210D01*
X20735Y36266D01*
X20620Y36301D01*
X20500Y36313D01*
D02*
G37*
G36*
X27530Y36930D02*
X26898D01*
Y36200D01*
X27530D01*
Y36453D01*
X27989D01*
X28621Y35821D01*
X28621Y35821D01*
X28657Y35796D01*
X28657Y35796D01*
X28657Y35796D01*
D01*
X28657Y35796D01*
X28657Y35796D01*
X28700Y35788D01*
X28700Y35788D01*
X30154D01*
X30345Y35596D01*
X30336Y35550D01*
X30352Y35468D01*
X30399Y35399D01*
X30468Y35352D01*
X30550Y35336D01*
X30632Y35352D01*
X30701Y35399D01*
X30748Y35468D01*
X30764Y35550D01*
X30748Y35632D01*
X30701Y35701D01*
X30632Y35748D01*
X30550Y35764D01*
X30504Y35755D01*
X30279Y35979D01*
X30243Y36004D01*
X30200Y36012D01*
X30200Y36012D01*
X28746D01*
X28114Y36644D01*
X28078Y36669D01*
X28035Y36677D01*
X28035Y36677D01*
X27530D01*
Y36930D01*
D02*
G37*
G36*
X24108Y36650D02*
X23550D01*
Y36092D01*
X23620Y36099D01*
X23735Y36134D01*
X23841Y36190D01*
X23933Y36267D01*
X24010Y36359D01*
X24066Y36465D01*
X24101Y36580D01*
X24108Y36650D01*
D02*
G37*
G36*
X23450D02*
X22892D01*
X22899Y36580D01*
X22934Y36465D01*
X22990Y36359D01*
X23067Y36267D01*
X23159Y36190D01*
X23265Y36134D01*
X23380Y36099D01*
X23450Y36092D01*
Y36650D01*
D02*
G37*
G36*
X27943Y38847D02*
X26957D01*
Y38353D01*
X27338D01*
Y38100D01*
X27338Y38100D01*
X27346Y38057D01*
X27371Y38021D01*
X27795Y37596D01*
X27786Y37550D01*
X27802Y37468D01*
X27849Y37399D01*
X27918Y37352D01*
X28000Y37336D01*
X28082Y37352D01*
X28151Y37399D01*
X28198Y37468D01*
X28214Y37550D01*
X28198Y37632D01*
X28151Y37701D01*
X28082Y37748D01*
X28000Y37764D01*
X27954Y37755D01*
X27562Y38146D01*
Y38353D01*
X27943D01*
Y38847D01*
D02*
G37*
G36*
X32500Y39414D02*
X32418Y39398D01*
X32349Y39351D01*
X32302Y39282D01*
X32286Y39200D01*
X32302Y39118D01*
X32349Y39049D01*
X32388Y39022D01*
Y38950D01*
X31870D01*
Y38255D01*
X31870Y38255D01*
X31870D01*
X31870Y38220D01*
X31862Y38212D01*
X30946D01*
X30730Y38428D01*
Y38950D01*
X30098D01*
Y38220D01*
X30621D01*
X30820Y38021D01*
X30820Y38021D01*
X30856Y37996D01*
X30856Y37996D01*
X30856Y37996D01*
D01*
X30856Y37996D01*
X30856Y37996D01*
X30899Y37988D01*
X32225D01*
X32242Y37930D01*
X32199Y37901D01*
X32152Y37832D01*
X32136Y37750D01*
X32152Y37668D01*
X32175Y37634D01*
X30971Y36429D01*
X30946Y36393D01*
X30938Y36350D01*
X30938Y36350D01*
Y34741D01*
X30885Y34712D01*
X30832Y34748D01*
X30750Y34764D01*
X30668Y34748D01*
X30599Y34701D01*
X30572Y34662D01*
X30016D01*
Y34872D01*
X29384D01*
Y34358D01*
X30016D01*
Y34438D01*
X30572D01*
X30599Y34399D01*
X30668Y34352D01*
X30750Y34336D01*
X30832Y34352D01*
X30885Y34388D01*
X30938Y34359D01*
Y32985D01*
X30938Y32985D01*
X30946Y32942D01*
X30971Y32906D01*
X30984Y32892D01*
Y32478D01*
X31616D01*
Y32992D01*
X31202D01*
X31162Y33031D01*
Y34359D01*
X31215Y34388D01*
X31268Y34352D01*
X31350Y34336D01*
X31432Y34352D01*
X31501Y34399D01*
X31528Y34438D01*
X33504D01*
X34388Y33554D01*
Y32992D01*
X34184D01*
Y32478D01*
X34816D01*
Y32992D01*
X34612D01*
Y33600D01*
X34612Y33600D01*
X34678Y33613D01*
X34936Y33356D01*
X34936Y33356D01*
X34972Y33331D01*
X35015Y33323D01*
X35070D01*
Y33070D01*
X35274D01*
Y32964D01*
X35274Y32964D01*
X35282Y32921D01*
X35307Y32885D01*
X35738Y32454D01*
Y31780D01*
X35702D01*
Y31780D01*
X35070D01*
Y31772D01*
X35014Y31749D01*
X34816Y31948D01*
Y32362D01*
X34184D01*
Y31848D01*
X34598D01*
X35070Y31377D01*
Y31062D01*
X34126D01*
X33930Y31258D01*
Y31780D01*
X33298D01*
Y31527D01*
X32502D01*
Y31780D01*
X31870D01*
Y31050D01*
X32502D01*
Y31303D01*
X33298D01*
Y31050D01*
X33821D01*
X34000Y30871D01*
X34000Y30871D01*
X34036Y30846D01*
X34036Y30846D01*
X34036Y30846D01*
D01*
X34036Y30846D01*
X34036Y30846D01*
X34079Y30838D01*
X34079Y30838D01*
X35850D01*
X35893Y30846D01*
X35929Y30871D01*
X35954Y30907D01*
X35962Y30950D01*
Y32500D01*
X35954Y32543D01*
X35929Y32579D01*
X35929Y32579D01*
X35498Y33011D01*
Y33070D01*
X35702D01*
Y33800D01*
X35070D01*
Y33617D01*
X35014Y33594D01*
X33112Y35496D01*
Y35550D01*
Y36550D01*
X33112Y36550D01*
X33112Y36550D01*
Y36922D01*
X33151Y36949D01*
X33198Y37018D01*
X33214Y37100D01*
X33198Y37182D01*
X33151Y37251D01*
X33112Y37278D01*
Y37903D01*
X33129Y37988D01*
X33172Y37996D01*
X33208Y38021D01*
X33408Y38220D01*
X33930D01*
Y38950D01*
X33298D01*
Y38428D01*
X33083Y38212D01*
X32510D01*
X32502Y38220D01*
X32502Y38255D01*
X32502Y38255D01*
X32502D01*
Y38742D01*
X32579Y38820D01*
X32579Y38820D01*
X32604Y38856D01*
X32612Y38899D01*
X32612Y38899D01*
Y39022D01*
X32651Y39049D01*
X32698Y39118D01*
X32714Y39200D01*
X32698Y39282D01*
X32651Y39351D01*
X32582Y39398D01*
X32500Y39414D01*
D02*
G37*
G36*
X37560Y38480D02*
X36750D01*
Y38131D01*
X36749Y38120D01*
X36750D01*
Y38020D01*
X36749D01*
X36750Y38009D01*
Y37670D01*
X37089D01*
X37100Y37669D01*
Y37670D01*
X37109D01*
X37110Y37669D01*
X37200D01*
D01*
X37200D01*
X37559D01*
X37560Y37670D01*
Y38480D01*
D02*
G37*
G36*
X28699Y38847D02*
X28256D01*
Y38650D01*
X28699D01*
Y38847D01*
D02*
G37*
G36*
X35702Y38950D02*
X35070D01*
Y38220D01*
X35702D01*
Y38950D01*
D02*
G37*
G36*
X39150Y38478D02*
X39044Y38464D01*
X38946Y38423D01*
X38862Y38358D01*
X38797Y38274D01*
X38756Y38176D01*
X38742Y38070D01*
X38756Y37964D01*
X38797Y37866D01*
X38862Y37782D01*
X38946Y37717D01*
X39044Y37676D01*
X39150Y37662D01*
X39256Y37676D01*
X39354Y37717D01*
X39438Y37782D01*
X39503Y37866D01*
X39544Y37964D01*
X39558Y38070D01*
X39544Y38176D01*
X39503Y38274D01*
X39438Y38358D01*
X39354Y38423D01*
X39256Y38464D01*
X39150Y38478D01*
D02*
G37*
G36*
X28954Y37500D02*
X28800D01*
Y37346D01*
X28832Y37352D01*
X28901Y37399D01*
X28948Y37468D01*
X28954Y37500D01*
D02*
G37*
G36*
X28700D02*
X28546D01*
X28552Y37468D01*
X28599Y37399D01*
X28668Y37352D01*
X28700Y37346D01*
Y37500D01*
D02*
G37*
G36*
X38150Y38478D02*
X38044Y38464D01*
X37946Y38423D01*
X37862Y38358D01*
X37797Y38274D01*
X37756Y38176D01*
X37742Y38070D01*
X37756Y37964D01*
X37797Y37866D01*
X37862Y37782D01*
X37946Y37717D01*
X38044Y37676D01*
X38150Y37662D01*
X38256Y37676D01*
X38354Y37717D01*
X38438Y37782D01*
X38503Y37866D01*
X38544Y37964D01*
X38558Y38070D01*
X38544Y38176D01*
X38503Y38274D01*
X38438Y38358D01*
X38354Y38423D01*
X38256Y38464D01*
X38150Y38478D01*
D02*
G37*
G36*
X29242Y38550D02*
X28256D01*
Y38353D01*
X28638D01*
Y37728D01*
X28599Y37701D01*
X28552Y37632D01*
X28546Y37600D01*
X28954D01*
X28948Y37632D01*
X28901Y37701D01*
X28862Y37728D01*
Y38353D01*
X29242D01*
Y38550D01*
D02*
G37*
%LPD*%
D10*
X36740Y31957D02*
D03*
Y32883D02*
D03*
D11*
X33614Y38585D02*
D03*
X35386D02*
D03*
X33614Y41715D02*
D03*
X35386D02*
D03*
X30414Y38585D02*
D03*
X32186D02*
D03*
X30414Y41715D02*
D03*
X32186D02*
D03*
Y31415D02*
D03*
X30414D02*
D03*
X32186Y28285D02*
D03*
X30414D02*
D03*
X32186Y36565D02*
D03*
X30414D02*
D03*
X32186Y33435D02*
D03*
X30414D02*
D03*
X33614Y28285D02*
D03*
X35386D02*
D03*
X33614Y31415D02*
D03*
X35386D02*
D03*
X27214Y33435D02*
D03*
X28986D02*
D03*
X27214Y36565D02*
D03*
X28986D02*
D03*
X35386D02*
D03*
X33614D02*
D03*
X35386Y33435D02*
D03*
X33614D02*
D03*
D12*
X31300Y32735D02*
D03*
Y32105D02*
D03*
X34500Y32735D02*
D03*
Y32105D02*
D03*
X29700Y34615D02*
D03*
Y33985D02*
D03*
D13*
X27450Y38600D02*
D03*
X28749D02*
D03*
D14*
X37570Y32774D02*
D03*
Y32066D02*
D03*
D15*
X38300Y32700D02*
X38520Y32480D01*
X31250Y29500D02*
Y31250D01*
X32900Y32400D02*
Y33750D01*
X35760Y28790D02*
X38240D01*
X38520Y29070D01*
Y32480D01*
X35450Y29100D02*
X35760Y28790D01*
X29150Y30600D02*
X30650Y29100D01*
X35450D01*
X37570Y32774D02*
X38226D01*
X38300Y32700D01*
X36740Y31957D02*
X37462D01*
X37570Y32066D01*
X36720Y34620D02*
X38790D01*
X38870Y34700D01*
D16*
X30200Y35900D02*
X30550Y35550D01*
X28700Y35900D02*
X30200D01*
X28035Y36565D02*
X28700Y35900D01*
X27214Y36565D02*
X28035D01*
X33550Y34550D02*
X34500Y33600D01*
X31350Y34550D02*
X33550D01*
X30550Y35550D02*
X30600D01*
X33000D02*
Y36550D01*
Y35450D02*
Y35550D01*
X31350D02*
X33000D01*
X35850Y30950D02*
Y32500D01*
X35386Y32964D02*
X35850Y32500D01*
X35386Y32964D02*
Y33435D01*
X35015D02*
X35386D01*
X33000Y35450D02*
X35015Y33435D01*
X34079Y30950D02*
X35850D01*
X33614Y31415D02*
X34079Y30950D01*
X32186Y31415D02*
X33614D01*
X29700Y33700D02*
Y33985D01*
X29435Y33435D02*
X29700Y33700D01*
X28986Y33435D02*
X29435D01*
X33000Y38100D02*
X33129D01*
X33614Y38585D01*
X30899Y38100D02*
X33000D01*
Y37100D02*
Y38100D01*
X30414Y38585D02*
X30899Y38100D01*
X32985Y36565D02*
X33000Y36550D01*
Y37100D01*
X32186Y36565D02*
X32985D01*
X35190Y31415D02*
X35386D01*
X34500Y32105D02*
X35190Y31415D01*
X34500Y32735D02*
Y33600D01*
X31050Y36350D02*
X32350Y37650D01*
X31050Y32985D02*
Y36350D01*
Y32985D02*
X31300Y32735D01*
X33965Y36565D02*
X34600Y37200D01*
X33614Y36565D02*
X33965D01*
X30610Y31415D02*
X31300Y32105D01*
X30414Y31415D02*
X30610D01*
X32350Y37650D02*
Y37750D01*
X29600Y37379D02*
X30414Y36565D01*
X29600Y37379D02*
Y39100D01*
X32186Y38585D02*
X32500Y38899D01*
Y39200D01*
X35400Y39750D02*
Y41701D01*
X28749Y38600D02*
X28750Y38599D01*
Y37550D02*
Y38599D01*
X28749Y37501D02*
X28750Y37500D01*
X27450Y38100D02*
Y38600D01*
Y38100D02*
X28000Y37550D01*
X29765Y34550D02*
X30750D01*
X29700Y34615D02*
X29765Y34550D01*
D17*
X32900Y32400D02*
D03*
X36700Y33700D02*
D03*
D18*
X28300Y41644D02*
D03*
Y28356D02*
D03*
D19*
Y40856D02*
D03*
Y29144D02*
D03*
D20*
X24750Y41234D02*
D03*
Y28866D02*
D03*
D21*
Y39266D02*
D03*
Y30834D02*
D03*
D22*
X23500Y36700D02*
D03*
Y33300D02*
D03*
X20000D02*
D03*
X22700Y35700D02*
D03*
X20500D02*
D03*
X19600Y34900D02*
D03*
D23*
X38030Y29290D02*
D03*
Y31010D02*
D03*
D24*
X39150Y39103D02*
D03*
X37150D02*
D03*
D25*
X39150Y38070D02*
D03*
X38150D02*
D03*
X37150D02*
D03*
D26*
X18278Y41723D02*
D03*
Y38337D02*
D03*
Y31663D02*
D03*
Y28277D02*
D03*
D27*
X19518Y40030D02*
D03*
Y29970D02*
D03*
D28*
X21290Y40030D02*
D03*
Y29970D02*
D03*
D29*
X36090Y28330D02*
D03*
D30*
X30550Y35550D02*
D03*
X31350D02*
D03*
X33000Y37100D02*
D03*
X31350Y34550D02*
D03*
X30750D02*
D03*
X34600Y37200D02*
D03*
X32350Y37750D02*
D03*
X29600Y39100D02*
D03*
X32500Y39200D02*
D03*
X35400Y39750D02*
D03*
X28750Y37550D02*
D03*
X28000D02*
D03*
X31250Y31250D02*
D03*
X29150Y30600D02*
D03*
X38300Y32700D02*
D03*
X31250Y29500D02*
D03*
X32900Y33750D02*
D03*
X36720Y34620D02*
D03*
X38870Y34700D02*
D03*
M02*
