%FSLAX24Y24*%
%MOIN*%
G70*
G01*
G75*
G04 Layer_Physical_Order=2*
G04 Layer_Color=16711680*
%ADD10R,0.0433X0.0492*%
%ADD11R,0.0512X0.0610*%
%ADD12R,0.0512X0.0394*%
%ADD13R,0.0866X0.0374*%
%ADD14R,0.0551X0.0472*%
%ADD15C,0.0120*%
%ADD16C,0.0100*%
%ADD17C,0.0340*%
%ADD18C,0.0532*%
%ADD19R,0.0532X0.0532*%
%ADD20C,0.0591*%
%ADD21R,0.0591X0.0591*%
%ADD22C,0.1100*%
%ADD23C,0.0540*%
%ADD24C,0.0787*%
%ADD25C,0.0689*%
%ADD26R,0.1144X0.1144*%
%ADD27C,0.1654*%
%ADD28C,0.1220*%
%ADD29C,0.0500*%
%ADD30C,0.0300*%
%ADD31C,0.0250*%
%ADD32R,0.0394X0.0512*%
%ADD33O,0.0217X0.0630*%
%ADD34O,0.0630X0.0217*%
%ADD35R,0.0433X0.0551*%
%ADD36R,0.0551X0.0433*%
%ADD37R,0.0472X0.0551*%
%ADD38R,0.0315X0.0354*%
%ADD39R,0.0980X0.0790*%
%ADD40R,0.0940X0.0200*%
%ADD41C,0.0200*%
%ADD42C,0.0150*%
%ADD43C,0.0500*%
G36*
X39988Y33159D02*
X39932Y33136D01*
X39649Y33419D01*
X39613Y33444D01*
X39570Y33452D01*
X39570Y33452D01*
X39376D01*
X37780Y35049D01*
X37803Y35104D01*
X38222D01*
Y35776D01*
X38057D01*
Y37409D01*
X38229Y37581D01*
X38229Y37581D01*
X38254Y37617D01*
X38262Y37660D01*
X38262Y37660D01*
Y37679D01*
X38354Y37717D01*
X38438Y37782D01*
X38503Y37866D01*
X38544Y37964D01*
X38558Y38070D01*
X38544Y38176D01*
X38503Y38274D01*
X38438Y38358D01*
X38354Y38423D01*
X38256Y38464D01*
X38150Y38478D01*
X38044Y38464D01*
X37978Y38437D01*
X37751Y38664D01*
X37706Y38694D01*
X37653Y38704D01*
X37468D01*
X37449Y38761D01*
X37474Y38780D01*
X37546Y38875D01*
X37592Y38985D01*
X37601Y39053D01*
X36699D01*
X36708Y38985D01*
X36754Y38875D01*
X36826Y38780D01*
X36851Y38761D01*
X36832Y38704D01*
X36617D01*
X36564Y38694D01*
X36519Y38664D01*
X36153Y38297D01*
X36123Y38253D01*
X36112Y38200D01*
X36112Y38200D01*
X36112D01*
X36112Y38200D01*
X36112D01*
Y34457D01*
X35749Y34093D01*
X35693Y34116D01*
Y34200D01*
X35526D01*
Y34013D01*
X35590D01*
X35613Y33957D01*
X35428Y33773D01*
X34216D01*
Y33892D01*
X33739D01*
X33678Y33953D01*
X33701Y34008D01*
X34216D01*
Y34522D01*
X33584D01*
X33584Y34522D01*
Y34522D01*
X33561Y34512D01*
X33374Y34699D01*
X33334Y34726D01*
X33287Y34735D01*
X32678D01*
X32671Y34740D01*
Y34800D01*
X32680Y34806D01*
X32717Y34862D01*
X32730Y34928D01*
X32717Y34993D01*
X32680Y35049D01*
X32671Y35055D01*
Y35115D01*
X32680Y35121D01*
X32686Y35130D01*
X33311D01*
X33525Y34916D01*
X33525Y34916D01*
X33561Y34892D01*
X33561Y34892D01*
X33561Y34892D01*
D01*
X33561Y34892D01*
X33561Y34892D01*
X33564Y34891D01*
Y34699D01*
X34236D01*
Y34884D01*
X34569D01*
Y34631D01*
X34753D01*
Y34487D01*
X34707D01*
Y34013D01*
X35142D01*
Y34487D01*
X34978D01*
Y34631D01*
X35422D01*
Y34487D01*
X35258D01*
Y34300D01*
X35693D01*
Y34487D01*
X35647D01*
Y34631D01*
X35831D01*
Y34917D01*
X35750D01*
Y35017D01*
X35831D01*
Y35303D01*
Y35497D01*
Y36169D01*
X35588D01*
Y36313D01*
X35693D01*
Y36787D01*
X35258D01*
Y36313D01*
X35363D01*
Y36169D01*
X34978D01*
Y36313D01*
X35142D01*
Y36500D01*
X34707D01*
Y36313D01*
X34753D01*
Y36169D01*
X34569D01*
Y35883D01*
X34650D01*
Y35783D01*
X34569D01*
Y35512D01*
X34496D01*
X34236Y35773D01*
Y36001D01*
X33564D01*
Y35670D01*
X32686D01*
X32680Y35679D01*
X32671Y35685D01*
Y35745D01*
X32680Y35751D01*
X32686Y35760D01*
X33328D01*
X33370Y35769D01*
X33407Y35793D01*
X33431Y35830D01*
X33440Y35872D01*
X33440Y35872D01*
X33440Y35872D01*
Y35872D01*
Y36772D01*
X33431Y36815D01*
X33407Y36852D01*
X33407Y36852D01*
X33205Y37054D01*
X33214Y37100D01*
X33198Y37182D01*
X33151Y37251D01*
X33082Y37298D01*
X33000Y37314D01*
X32918Y37298D01*
X32849Y37251D01*
X32802Y37182D01*
X32786Y37100D01*
X32802Y37018D01*
X32849Y36949D01*
X32918Y36902D01*
X33000Y36886D01*
X33046Y36895D01*
X33215Y36726D01*
Y35985D01*
X32686D01*
X32680Y35994D01*
X32671Y36000D01*
Y36060D01*
X32678Y36065D01*
X32987D01*
X33034Y36074D01*
X33074Y36101D01*
X33074Y36101D01*
X33074Y36101D01*
X33087Y36113D01*
X33113Y36153D01*
X33122Y36200D01*
X33122Y36200D01*
X33122Y36200D01*
Y36200D01*
Y36500D01*
X33113Y36547D01*
X33087Y36587D01*
X33047Y36613D01*
X33000Y36622D01*
X32681D01*
X32680Y36624D01*
X32624Y36661D01*
X32559Y36674D01*
X32145D01*
X32106Y36666D01*
X32078Y36719D01*
X32746Y37388D01*
X33584D01*
Y37258D01*
X34216D01*
Y37772D01*
X33584D01*
Y37612D01*
X32700D01*
X32700Y37612D01*
X32657Y37604D01*
X32621Y37579D01*
X32621Y37579D01*
X31919Y36878D01*
X31866Y36906D01*
X31874Y36945D01*
Y37165D01*
X32264Y37555D01*
X32268Y37552D01*
X32350Y37536D01*
X32432Y37552D01*
X32501Y37599D01*
X32548Y37668D01*
X32564Y37750D01*
X32548Y37832D01*
X32501Y37901D01*
X32432Y37948D01*
X32350Y37964D01*
X32268Y37948D01*
X32199Y37901D01*
X32152Y37832D01*
X32136Y37750D01*
X32137Y37745D01*
X31867Y37476D01*
X31824Y37480D01*
X31768Y37517D01*
X31702Y37530D01*
X31671Y37524D01*
X31643Y37577D01*
X31964Y37899D01*
X31989Y37935D01*
X31997Y37978D01*
X31997Y37978D01*
Y39484D01*
X32142D01*
Y40116D01*
X31628D01*
Y39484D01*
X31773D01*
Y38024D01*
X31405Y37656D01*
X31380Y37620D01*
X31372Y37577D01*
X31372Y37577D01*
Y37527D01*
X31322Y37517D01*
X31266Y37480D01*
X31260Y37471D01*
X31200D01*
X31194Y37480D01*
X31185Y37486D01*
Y37576D01*
X31429Y37821D01*
X31429Y37821D01*
X31454Y37857D01*
X31454Y37857D01*
X31454Y37857D01*
X31462Y37900D01*
X31462Y37900D01*
Y40104D01*
X31596Y40238D01*
X33339D01*
X33678Y39898D01*
Y39484D01*
X34192D01*
Y40116D01*
X33778D01*
X33464Y40429D01*
X33428Y40454D01*
X33385Y40462D01*
X33385Y40462D01*
X31550D01*
X31550Y40462D01*
X31507Y40454D01*
X31471Y40429D01*
X31471Y40429D01*
X31271Y40229D01*
X31246Y40193D01*
X31238Y40150D01*
X31238Y40150D01*
Y37946D01*
X30993Y37702D01*
X30969Y37665D01*
X30960Y37622D01*
X30960Y37622D01*
Y37486D01*
X30951Y37480D01*
X30945Y37471D01*
X30885D01*
X30879Y37480D01*
X30823Y37517D01*
X30757Y37530D01*
X30692Y37517D01*
X30636Y37480D01*
X30630Y37471D01*
X30570D01*
X30564Y37480D01*
X30555Y37486D01*
Y39484D01*
X30722D01*
Y40116D01*
X30208D01*
Y39484D01*
X30330D01*
Y37486D01*
X30321Y37480D01*
X30315Y37471D01*
X30255D01*
X30249Y37480D01*
X30193Y37517D01*
X30128Y37530D01*
X30062Y37517D01*
X30006Y37480D01*
X30000Y37471D01*
X29940D01*
X29934Y37480D01*
X29925Y37486D01*
Y37964D01*
X30072D01*
Y38636D01*
X29519D01*
D01*
D01*
D01*
Y38636D01*
X29518D01*
X29517Y38636D01*
X29518Y38636D01*
X29460Y38636D01*
X29439Y38636D01*
X29439D01*
D01*
Y38636D01*
X29439D01*
X29439D01*
D01*
X29292Y38636D01*
X29250Y38678D01*
Y42338D01*
X39988D01*
Y33159D01*
D02*
G37*
G36*
X36750Y38131D02*
X36749Y38120D01*
X36750D01*
Y38020D01*
X36749D01*
X36750Y38009D01*
Y37670D01*
X36988D01*
X37038Y37660D01*
X37046Y37617D01*
X37071Y37581D01*
X37243Y37409D01*
Y35776D01*
X37078D01*
Y35490D01*
X37078D01*
Y35390D01*
X37078D01*
Y35104D01*
X37305D01*
Y35104D01*
X37405D01*
Y35104D01*
X37407D01*
X39251Y33261D01*
X39251Y33261D01*
X39287Y33236D01*
X39287Y33236D01*
X39287Y33236D01*
D01*
X39287Y33236D01*
X39287Y33236D01*
X39330Y33228D01*
X39330Y33228D01*
X39524D01*
X39788Y32964D01*
Y32355D01*
X39760D01*
Y32355D01*
X39458D01*
Y32613D01*
X39553D01*
Y33087D01*
X39118D01*
Y32613D01*
X39213D01*
Y32355D01*
X38660D01*
Y32213D01*
X37590D01*
Y32355D01*
X36490D01*
Y31445D01*
X37590D01*
Y31587D01*
X38660D01*
Y31445D01*
X38897D01*
Y28855D01*
X38660D01*
Y28713D01*
X37590D01*
Y28855D01*
X36490D01*
Y28037D01*
X36435Y28014D01*
X36324Y28125D01*
X36361Y28174D01*
X36392Y28249D01*
X36396Y28280D01*
X36140D01*
Y28024D01*
X36111Y28020D01*
X36381Y27751D01*
X36381Y27751D01*
X36417Y27726D01*
X36440Y27722D01*
X36434Y27662D01*
X35540D01*
X35503Y27717D01*
X35544Y27778D01*
X35559Y27850D01*
Y28187D01*
X35814D01*
X35819Y28174D01*
X35869Y28109D01*
X35934Y28059D01*
X36009Y28028D01*
X36040Y28024D01*
Y28330D01*
Y28636D01*
X36009Y28632D01*
X35934Y28601D01*
X35869Y28551D01*
X35840Y28513D01*
X35559D01*
Y28620D01*
X35559Y28620D01*
X35559Y28620D01*
Y28620D01*
Y28892D01*
X36034Y29367D01*
X37020D01*
X37036Y29370D01*
X36970D01*
Y29530D01*
X37020D01*
Y29580D01*
X37550D01*
Y29680D01*
Y29990D01*
Y30300D01*
Y30610D01*
Y30930D01*
X36490D01*
Y30930D01*
X36443Y30930D01*
X36372Y31001D01*
Y32325D01*
X36660Y32613D01*
X36942D01*
Y33087D01*
X36507D01*
Y32806D01*
X36163Y32462D01*
X36137Y32422D01*
X36128Y32376D01*
Y30950D01*
X36128Y30950D01*
X36128D01*
X36137Y30903D01*
X36163Y30863D01*
X36343Y30683D01*
X36383Y30657D01*
X36430Y30648D01*
X36490D01*
Y30610D01*
Y30582D01*
X35541D01*
X35337Y30787D01*
X35297Y30813D01*
X35250Y30822D01*
X35101D01*
Y31036D01*
X34508D01*
Y30364D01*
X35101D01*
Y30578D01*
X35199D01*
X35403Y30373D01*
X35403Y30373D01*
X35403D01*
X35403Y30373D01*
X35403D01*
X35403Y30373D01*
Y30373D01*
Y30373D01*
D01*
D01*
X35403D01*
Y30373D01*
X35443Y30347D01*
X35490Y30338D01*
X36490D01*
Y30300D01*
Y30272D01*
X35500D01*
X35453Y30263D01*
X35413Y30237D01*
X35199Y30022D01*
X35101D01*
Y30236D01*
X34508D01*
Y29564D01*
X34682D01*
Y29366D01*
X34508D01*
Y28734D01*
D01*
Y28734D01*
X34506Y28732D01*
X34392D01*
Y28732D01*
Y28734D01*
X34392Y28775D01*
X34392Y28775D01*
X34392D01*
Y29366D01*
X33878D01*
Y29172D01*
X33751D01*
X33337Y29587D01*
X33297Y29613D01*
X33250Y29622D01*
X31421D01*
X31401Y29651D01*
X31332Y29698D01*
X31250Y29714D01*
X31168Y29698D01*
X31099Y29651D01*
X31052Y29582D01*
X31036Y29500D01*
X31052Y29418D01*
X31099Y29349D01*
X31168Y29302D01*
X31250Y29286D01*
X31332Y29302D01*
X31401Y29349D01*
X31421Y29378D01*
X33199D01*
X33613Y28963D01*
X33613Y28963D01*
X33613D01*
X33613Y28963D01*
X33613D01*
X33613Y28963D01*
Y28963D01*
Y28963D01*
D01*
D01*
X33613D01*
Y28963D01*
X33653Y28937D01*
X33700Y28928D01*
X33878D01*
Y28775D01*
X33878Y28775D01*
X33878D01*
X33878Y28734D01*
X33876Y28732D01*
X30576D01*
X29295Y30014D01*
X29281Y30028D01*
X29250Y30059D01*
D01*
X27462Y31846D01*
Y33054D01*
X27696Y33288D01*
X27950D01*
X27950Y33288D01*
X27993Y33296D01*
X28030Y33321D01*
X28809Y34100D01*
X29350D01*
Y33937D01*
X29339Y33920D01*
X29326Y33855D01*
Y33441D01*
X29339Y33376D01*
X29350Y33359D01*
Y33123D01*
X29013Y32786D01*
X28787D01*
X28787Y32786D01*
Y32786D01*
X28783Y32786D01*
X28764D01*
X28745D01*
X28740Y32786D01*
X28740Y32786D01*
Y32786D01*
X28519D01*
Y32450D01*
Y32114D01*
X28745D01*
Y32114D01*
X28783D01*
X28787Y32114D01*
X28787Y32114D01*
Y32114D01*
X28937D01*
Y31936D01*
X28787D01*
X28787Y31936D01*
Y31936D01*
X28783Y31936D01*
X28764D01*
X28745D01*
X28740Y31936D01*
X28740Y31936D01*
Y31936D01*
X28519D01*
Y31600D01*
Y31264D01*
X28745D01*
Y31264D01*
X28783D01*
X28787Y31264D01*
X28787Y31264D01*
Y31264D01*
X29028D01*
Y30771D01*
X28999Y30751D01*
X28952Y30682D01*
X28936Y30600D01*
X28952Y30518D01*
X28999Y30449D01*
X29068Y30402D01*
X29150Y30386D01*
X29232Y30402D01*
X29297Y30446D01*
X29301Y30449D01*
X29348Y30518D01*
X29364Y30600D01*
X29348Y30682D01*
X29301Y30751D01*
X29272Y30771D01*
Y31264D01*
X29336D01*
Y31936D01*
X29250D01*
Y32114D01*
X29336D01*
Y32763D01*
X29525Y32951D01*
X29580Y32929D01*
Y30848D01*
X29580Y30848D01*
X29580D01*
X29589Y30801D01*
X29616Y30761D01*
X30313Y30063D01*
X30337Y30048D01*
X30353Y30037D01*
X30400Y30028D01*
X33349D01*
X33563Y29813D01*
X33563D01*
X33563Y29813D01*
X33563Y29813D01*
Y29813D01*
X33603Y29787D01*
X33650Y29778D01*
X33799D01*
Y29564D01*
X34392D01*
Y30236D01*
X33799D01*
Y30022D01*
X33701D01*
X33487Y30237D01*
X33447Y30263D01*
X33400Y30272D01*
Y30328D01*
X33447Y30337D01*
X33487Y30363D01*
X33701Y30578D01*
X33799D01*
Y30364D01*
X34392D01*
Y31036D01*
X33799D01*
Y30822D01*
X33650D01*
X33603Y30813D01*
X33563Y30787D01*
X33349Y30572D01*
X30601D01*
X30122Y31051D01*
Y31864D01*
X30178D01*
Y31864D01*
X30339D01*
X30342Y31848D01*
X30368Y31809D01*
X30663Y31513D01*
X30703Y31487D01*
X30750Y31478D01*
X31109D01*
X31127Y31420D01*
X31099Y31401D01*
X31052Y31332D01*
X31036Y31250D01*
X31052Y31168D01*
X31099Y31099D01*
X31168Y31052D01*
X31250Y31036D01*
X31332Y31052D01*
X31401Y31099D01*
X31448Y31168D01*
X31464Y31250D01*
X31448Y31332D01*
X31401Y31401D01*
X31372Y31421D01*
Y31478D01*
X31500D01*
X31547Y31487D01*
X31587Y31513D01*
X32351Y32278D01*
X32705D01*
X32734Y32234D01*
X32810Y32183D01*
X32900Y32165D01*
X32990Y32183D01*
X33066Y32234D01*
X33117Y32310D01*
X33135Y32400D01*
X33117Y32490D01*
X33066Y32566D01*
X32990Y32617D01*
X32900Y32635D01*
X32810Y32617D01*
X32734Y32566D01*
X32705Y32522D01*
X32300D01*
X32253Y32513D01*
X32213Y32487D01*
X31449Y31722D01*
X30801D01*
X30710Y31813D01*
X30731Y31864D01*
X30769D01*
Y31864D01*
X30995D01*
Y32200D01*
X31045D01*
Y32250D01*
X31322D01*
Y32536D01*
X31151D01*
X31149Y32548D01*
X31125Y32584D01*
X31125Y32584D01*
X30893Y32815D01*
Y33303D01*
X30951Y33320D01*
X30951Y33320D01*
X31007Y33283D01*
X31072Y33270D01*
X31138Y33283D01*
X31194Y33320D01*
X31200Y33329D01*
X31260D01*
X31266Y33320D01*
X31322Y33283D01*
X31387Y33270D01*
X31453Y33283D01*
X31509Y33320D01*
X31515Y33329D01*
X31575D01*
X31581Y33320D01*
X31637Y33283D01*
X31702Y33270D01*
X31768Y33283D01*
X31824Y33320D01*
X31861Y33376D01*
X31863Y33389D01*
X31921Y33406D01*
X32263Y33063D01*
X32263Y33063D01*
X32263D01*
X32263Y33063D01*
X32263D01*
X32263Y33063D01*
Y33063D01*
Y33063D01*
D01*
D01*
X32263D01*
Y33063D01*
X32303Y33037D01*
X32350Y33028D01*
X35500D01*
X35547Y33037D01*
X35587Y33063D01*
X36807Y34283D01*
X36822Y34307D01*
X36833Y34323D01*
X36842Y34370D01*
Y34449D01*
X36871Y34469D01*
X36918Y34538D01*
X36934Y34620D01*
X36918Y34702D01*
X36871Y34771D01*
X36802Y34818D01*
X36720Y34834D01*
X36638Y34818D01*
X36569Y34771D01*
X36522Y34702D01*
X36506Y34620D01*
X36522Y34538D01*
X36569Y34469D01*
X36575Y34464D01*
X36581Y34404D01*
X35449Y33272D01*
X32401D01*
X31938Y33735D01*
X31899Y33761D01*
X31874Y33766D01*
Y33855D01*
X31861Y33920D01*
X31824Y33976D01*
X31768Y34013D01*
X31702Y34026D01*
X31637Y34013D01*
X31581Y33976D01*
X31575Y33967D01*
X31515D01*
X31509Y33976D01*
X31500Y33982D01*
Y34397D01*
X31501Y34399D01*
X31528Y34439D01*
X31563Y34446D01*
X31593D01*
X31616Y34411D01*
X31816Y34211D01*
X31856Y34185D01*
X31902Y34175D01*
X32026D01*
X32080Y34139D01*
X32145Y34126D01*
X32559D01*
X32601Y34135D01*
X32975D01*
X32998Y34079D01*
X32879Y33960D01*
X32818Y33948D01*
X32749Y33901D01*
X32702Y33832D01*
X32686Y33750D01*
X32702Y33668D01*
X32749Y33599D01*
X32818Y33552D01*
X32900Y33536D01*
X32982Y33552D01*
X33051Y33599D01*
X33098Y33668D01*
X33110Y33729D01*
X33275Y33894D01*
X33584Y33585D01*
Y33378D01*
X34216D01*
Y33497D01*
X35485D01*
X35538Y33508D01*
X35582Y33538D01*
X36347Y34303D01*
X36377Y34347D01*
X36388Y34400D01*
X36388Y34400D01*
X36388Y34400D01*
Y34400D01*
Y38143D01*
X36674Y38429D01*
X36750D01*
Y38131D01*
D02*
G37*
%LPC*%
G36*
X36700Y33935D02*
X36610Y33917D01*
X36534Y33866D01*
X36483Y33790D01*
X36465Y33700D01*
X36483Y33610D01*
X36534Y33534D01*
X36610Y33483D01*
X36700Y33465D01*
X36763Y33478D01*
X37099Y33143D01*
X37076Y33087D01*
X37058D01*
Y32613D01*
X37340D01*
X37379Y32587D01*
X37426Y32578D01*
X38129D01*
X38149Y32549D01*
X38218Y32502D01*
X38300Y32486D01*
X38382Y32502D01*
X38451Y32549D01*
X38498Y32618D01*
X38507Y32665D01*
X38567Y32659D01*
Y32613D01*
X38734D01*
Y32800D01*
X38567D01*
Y32741D01*
X38507Y32735D01*
X38498Y32782D01*
X38451Y32851D01*
X38382Y32898D01*
X38300Y32914D01*
X38218Y32898D01*
X38149Y32851D01*
X38129Y32822D01*
X37493D01*
Y33087D01*
X37425D01*
X37388Y33124D01*
Y33124D01*
X37388D01*
D01*
D01*
D01*
X37379Y33167D01*
X37355Y33204D01*
X37355Y33204D01*
X36922Y33637D01*
X36935Y33700D01*
X36917Y33790D01*
X36866Y33866D01*
X36790Y33917D01*
X36700Y33935D01*
D02*
G37*
G36*
X28419Y32786D02*
X28192D01*
Y32500D01*
X28419D01*
Y32786D01*
D02*
G37*
G36*
Y32400D02*
X28192D01*
Y32114D01*
X28419D01*
Y32400D01*
D02*
G37*
G36*
X39002Y33087D02*
X38834D01*
Y32900D01*
X39002D01*
Y33087D01*
D02*
G37*
G36*
X38734D02*
X38567D01*
Y32900D01*
X38734D01*
Y33087D01*
D02*
G37*
G36*
X39002Y32800D02*
X38834D01*
Y32613D01*
X39002D01*
Y32800D01*
D02*
G37*
G36*
X37550Y29480D02*
X37070D01*
Y29370D01*
X37550D01*
Y29480D01*
D02*
G37*
G36*
X38030Y29623D02*
X37944Y29612D01*
X37864Y29578D01*
X37795Y29525D01*
X37742Y29456D01*
X37708Y29376D01*
X37697Y29290D01*
X37708Y29204D01*
X37742Y29124D01*
X37795Y29055D01*
X37864Y29002D01*
X37944Y28968D01*
X38030Y28957D01*
X38116Y28968D01*
X38196Y29002D01*
X38265Y29055D01*
X38318Y29124D01*
X38352Y29204D01*
X38363Y29290D01*
X38352Y29376D01*
X38318Y29456D01*
X38265Y29525D01*
X38196Y29578D01*
X38116Y29612D01*
X38030Y29623D01*
D02*
G37*
G36*
X36140Y28636D02*
Y28380D01*
X36396D01*
X36392Y28411D01*
X36361Y28486D01*
X36311Y28551D01*
X36246Y28601D01*
X36171Y28632D01*
X36140Y28636D01*
D02*
G37*
G36*
X38030Y31343D02*
X37944Y31332D01*
X37864Y31298D01*
X37795Y31245D01*
X37742Y31176D01*
X37708Y31096D01*
X37697Y31010D01*
X37708Y30924D01*
X37742Y30844D01*
X37795Y30775D01*
X37864Y30722D01*
X37944Y30688D01*
X38030Y30677D01*
X38116Y30688D01*
X38196Y30722D01*
X38265Y30775D01*
X38318Y30844D01*
X38352Y30924D01*
X38363Y31010D01*
X38352Y31096D01*
X38318Y31176D01*
X38265Y31245D01*
X38196Y31298D01*
X38116Y31332D01*
X38030Y31343D01*
D02*
G37*
G36*
X31322Y32150D02*
X31095D01*
Y31864D01*
X31322D01*
Y32150D01*
D02*
G37*
G36*
X28419Y31936D02*
X28192D01*
Y31650D01*
X28419D01*
Y31936D01*
D02*
G37*
G36*
Y31550D02*
X28192D01*
Y31264D01*
X28419D01*
Y31550D01*
D02*
G37*
G36*
X37200Y39555D02*
Y39153D01*
X37601D01*
X37592Y39222D01*
X37546Y39332D01*
X37474Y39427D01*
X37379Y39500D01*
X37268Y39545D01*
X37200Y39555D01*
D02*
G37*
G36*
X37100D02*
X37032Y39545D01*
X36921Y39500D01*
X36826Y39427D01*
X36754Y39332D01*
X36708Y39222D01*
X36699Y39153D01*
X37100D01*
Y39555D01*
D02*
G37*
G36*
X32772Y40116D02*
X32258D01*
Y39484D01*
X32403D01*
Y39388D01*
X32349Y39351D01*
X32302Y39282D01*
X32286Y39200D01*
X32302Y39118D01*
X32349Y39049D01*
X32418Y39002D01*
X32500Y38986D01*
X32582Y39002D01*
X32651Y39049D01*
X32698Y39118D01*
X32714Y39200D01*
X32698Y39282D01*
X32651Y39351D01*
X32627Y39368D01*
Y39484D01*
X32772D01*
Y40116D01*
D02*
G37*
G36*
X39100Y39555D02*
X39032Y39545D01*
X38921Y39500D01*
X38826Y39427D01*
X38754Y39332D01*
X38708Y39222D01*
X38699Y39153D01*
X39100D01*
Y39555D01*
D02*
G37*
G36*
X34822Y40116D02*
X34308D01*
Y39484D01*
X34822D01*
Y39638D01*
X35222D01*
X35249Y39599D01*
X35318Y39552D01*
X35400Y39536D01*
X35482Y39552D01*
X35551Y39599D01*
X35598Y39668D01*
X35614Y39750D01*
X35598Y39832D01*
X35551Y39901D01*
X35482Y39948D01*
X35400Y39964D01*
X35318Y39948D01*
X35249Y39901D01*
X35222Y39862D01*
X34822D01*
Y40116D01*
D02*
G37*
G36*
X30092D02*
X29578D01*
Y39484D01*
X29723D01*
Y39381D01*
X29646Y39305D01*
X29600Y39314D01*
X29518Y39298D01*
X29449Y39251D01*
X29402Y39182D01*
X29386Y39100D01*
X29402Y39018D01*
X29449Y38949D01*
X29518Y38902D01*
X29600Y38886D01*
X29682Y38902D01*
X29751Y38949D01*
X29798Y39018D01*
X29814Y39100D01*
X29805Y39146D01*
X29914Y39256D01*
X29914Y39256D01*
X29939Y39292D01*
X29947Y39335D01*
X29947Y39335D01*
Y39484D01*
X30092D01*
Y40116D01*
D02*
G37*
G36*
X39200Y39555D02*
Y39153D01*
X39601D01*
X39592Y39222D01*
X39546Y39332D01*
X39474Y39427D01*
X39379Y39500D01*
X39268Y39545D01*
X39200Y39555D01*
D02*
G37*
G36*
X34874Y36787D02*
X34707D01*
Y36600D01*
X34874D01*
Y36787D01*
D02*
G37*
G36*
X39150Y38478D02*
X39044Y38464D01*
X38946Y38423D01*
X38862Y38358D01*
X38797Y38274D01*
X38756Y38176D01*
X38742Y38070D01*
X38756Y37964D01*
X38797Y37866D01*
X38862Y37782D01*
X38946Y37717D01*
X39044Y37676D01*
X39150Y37662D01*
X39256Y37676D01*
X39347Y37714D01*
X39433Y37628D01*
Y35786D01*
X39274D01*
X39274Y35786D01*
Y35786D01*
X39269Y35786D01*
X39250D01*
X39231D01*
X39226Y35786D01*
X39226Y35786D01*
Y35786D01*
X38678D01*
Y35114D01*
X38748D01*
Y34871D01*
X38719Y34851D01*
X38672Y34782D01*
X38656Y34700D01*
X38672Y34618D01*
X38719Y34549D01*
X38788Y34502D01*
X38870Y34486D01*
X38952Y34502D01*
X39021Y34549D01*
X39068Y34618D01*
X39084Y34700D01*
X39068Y34782D01*
X39021Y34851D01*
X38992Y34871D01*
Y35114D01*
X39231D01*
Y35114D01*
X39269D01*
X39274Y35114D01*
X39274Y35114D01*
Y35114D01*
X39822D01*
Y35786D01*
X39657D01*
Y37675D01*
X39657Y37675D01*
X39649Y37718D01*
X39625Y37754D01*
X39625Y37754D01*
X39506Y37873D01*
X39544Y37964D01*
X39558Y38070D01*
X39544Y38176D01*
X39503Y38274D01*
X39438Y38358D01*
X39354Y38423D01*
X39256Y38464D01*
X39150Y38478D01*
D02*
G37*
G36*
X35426Y34200D02*
X35258D01*
Y34013D01*
X35426D01*
Y34200D01*
D02*
G37*
G36*
X35142Y36787D02*
X34974D01*
Y36600D01*
X35142D01*
Y36787D01*
D02*
G37*
G36*
X39601Y39053D02*
X39200D01*
Y38652D01*
X39268Y38661D01*
X39379Y38707D01*
X39474Y38780D01*
X39546Y38875D01*
X39592Y38985D01*
X39601Y39053D01*
D02*
G37*
G36*
X39100D02*
X38699D01*
X38708Y38985D01*
X38754Y38875D01*
X38826Y38780D01*
X38921Y38707D01*
X39032Y38661D01*
X39100Y38652D01*
Y39053D01*
D02*
G37*
G36*
X34600Y37414D02*
X34518Y37398D01*
X34449Y37351D01*
X34402Y37282D01*
X34386Y37200D01*
X34395Y37154D01*
X34271Y37030D01*
X34216Y37053D01*
Y37142D01*
X33584D01*
Y36628D01*
X34216D01*
Y36773D01*
X34285D01*
X34285Y36773D01*
X34328Y36781D01*
X34364Y36806D01*
X34554Y36995D01*
X34600Y36986D01*
X34682Y37002D01*
X34751Y37049D01*
X34798Y37118D01*
X34814Y37200D01*
X34798Y37282D01*
X34751Y37351D01*
X34682Y37398D01*
X34600Y37414D01*
D02*
G37*
%LPD*%
D12*
X33900Y37515D02*
D03*
Y36885D02*
D03*
Y33635D02*
D03*
Y34265D02*
D03*
X22950Y28865D02*
D03*
Y28235D02*
D03*
Y41135D02*
D03*
Y41765D02*
D03*
D14*
X25450Y33704D02*
D03*
Y32996D02*
D03*
X25450Y37096D02*
D03*
Y37804D02*
D03*
X33900Y35704D02*
D03*
Y34996D02*
D03*
D15*
X35370Y28620D02*
X35420D01*
X31250Y31250D02*
Y31600D01*
X31500D01*
X30750D02*
X31250D01*
X33000Y36200D02*
Y36500D01*
X32354D02*
X33000D01*
X32987Y36187D02*
X33000Y36200D01*
X29800Y33635D02*
X29813Y33648D01*
X29800Y33100D02*
Y33635D01*
X29702Y33002D02*
X29800Y33100D01*
X29702Y30848D02*
Y33002D01*
X30400Y30150D02*
X33400D01*
X29702Y30848D02*
X30400Y30150D01*
X30550Y30450D02*
X32650D01*
X30000Y31000D02*
X30550Y30450D01*
X32650D02*
X33400D01*
X33650Y30700D01*
X34096D01*
X33400Y30150D02*
X33650Y29900D01*
X34096D01*
X35490Y30460D02*
X37020D01*
X35250Y30700D02*
X35490Y30460D01*
X34804Y30700D02*
X35250D01*
X34804Y29900D02*
X35250D01*
X35500Y30150D01*
X37020D01*
X30128Y33028D02*
Y33648D01*
X30000Y32900D02*
X30128Y33028D01*
X30000Y31000D02*
Y32900D01*
X32352Y36187D02*
X32987D01*
X21550Y35450D02*
X22250Y34750D01*
X19378Y36500D02*
X21000D01*
X21550Y35950D01*
Y35450D02*
Y35950D01*
X31702Y34498D02*
X31902Y34298D01*
X32352D01*
X30513Y36187D02*
X32352D01*
X30128Y36572D02*
X30513Y36187D01*
X30128Y36572D02*
Y37152D01*
X31702Y34498D02*
Y36150D01*
X32352Y34613D02*
X33287D01*
X33635Y34265D01*
X33900D01*
X34804Y29089D02*
Y29900D01*
X34765Y29050D02*
X34804Y29089D01*
X29150Y30600D02*
Y31509D01*
X29059Y31600D02*
X29150Y31509D01*
X29059Y32659D02*
X29498Y33098D01*
Y33648D01*
X29059Y31600D02*
Y32450D01*
Y32659D01*
X37276Y32850D02*
X37426Y32700D01*
X38300D01*
X36430Y30770D02*
X37020D01*
X36250Y30950D02*
X36430Y30770D01*
X36250Y30950D02*
Y32376D01*
X36724Y32850D01*
X31250Y29500D02*
X33250D01*
X31500Y31600D02*
X32300Y32400D01*
X30455Y31895D02*
Y32200D01*
Y31895D02*
X30750Y31600D01*
X31702Y33648D02*
X31852D01*
X32350Y33150D01*
X35500D01*
X32300Y32400D02*
X32900D01*
X33250Y34100D02*
X33300D01*
X30757Y33648D02*
Y33993D01*
X30000Y34750D02*
X30757Y33993D01*
X29500Y34750D02*
X30000D01*
X25034Y37804D02*
X25450D01*
X24944Y32996D02*
X25450D01*
X24500Y33440D02*
X24944Y32996D01*
X24500Y37270D02*
X25034Y37804D01*
X24500Y34750D02*
Y37270D01*
Y33440D02*
Y34750D01*
X22250D02*
X24500D01*
X33250Y29500D02*
X33700Y29050D01*
X34135D01*
X39336Y32194D02*
Y32850D01*
X39126Y31984D02*
X39336Y32194D01*
X35500Y33150D02*
X36720Y34370D01*
Y34620D01*
X38870Y34700D02*
Y35365D01*
X38955Y35450D01*
D16*
X22400Y35700D02*
G03*
X22188Y36212I-724J0D01*
G01*
X22300Y35700D02*
G03*
X22017Y36383I-966J0D01*
G01*
X22200Y35700D02*
G03*
X21846Y36554I-1207J0D01*
G01*
X22188Y36212D02*
G03*
X22700Y36000I512J512D01*
G01*
X22017Y36383D02*
G03*
X22700Y36100I683J683D01*
G01*
X21846Y36554D02*
G03*
X22700Y36200I854J854D01*
G01*
X20793Y35637D02*
G03*
X20890Y35310I349J-75D01*
G01*
X20891Y35616D02*
G03*
X21020Y35180I465J-100D01*
G01*
X20989Y35595D02*
G03*
X21150Y35050I582J-125D01*
G01*
X20890Y35310D02*
G03*
X20563Y35407I-252J-252D01*
G01*
X21020Y35180D02*
G03*
X20584Y35309I-337J-337D01*
G01*
X21150Y35050D02*
G03*
X20605Y35211I-421J-421D01*
G01*
X21445Y29928D02*
G03*
X21597Y29353I572J-156D01*
G01*
X21541Y29902D02*
G03*
X21719Y29231I667J-182D01*
G01*
X21638Y29875D02*
G03*
X21841Y29109I762J-208D01*
G01*
X21734Y29849D02*
G03*
X21963Y28987I858J-234D01*
G01*
X21831Y29823D02*
G03*
X22085Y28865I953J-260D01*
G01*
X21546Y29404D02*
G03*
X21290Y29510I-256J-256D01*
G01*
X21717Y29233D02*
G03*
X21290Y29410I-427J-427D01*
G01*
X20965Y30295D02*
G03*
X21150Y30743I-448J448D01*
G01*
X20894Y30366D02*
G03*
X21150Y30985I-618J618D01*
G01*
Y30695D02*
G03*
X21403Y30083I865J0D01*
G01*
X21150Y30936D02*
G03*
X21474Y30154I1106J0D01*
G01*
X21150Y31178D02*
G03*
X21545Y30225I1348J0D01*
G01*
X21150Y31419D02*
G03*
X21615Y30295I1589J0D01*
G01*
X21150Y31661D02*
G03*
X21686Y30366I1831J0D01*
G01*
X21290Y40390D02*
G03*
X21717Y40567I0J604D01*
G01*
X21290Y40490D02*
G03*
X21888Y40738I0J846D01*
G01*
X21290Y40590D02*
G03*
X22059Y40909I0J1087D01*
G01*
X21791Y40641D02*
G03*
X21550Y40037I583J-583D01*
G01*
X21956Y40806D02*
G03*
X21650Y40039I739J-739D01*
G01*
X22120Y40970D02*
G03*
X21750Y40042I895J-895D01*
G01*
X22285Y41135D02*
G03*
X21850Y40045I1051J-1051D01*
G01*
X21403Y39917D02*
G03*
X21150Y39305I612J-612D01*
G01*
X21474Y39846D02*
G03*
X21150Y39064I782J-782D01*
G01*
X21545Y39775D02*
G03*
X21150Y38822I953J-953D01*
G01*
X21615Y39705D02*
G03*
X21150Y38581I1124J-1124D01*
G01*
X21686Y39634D02*
G03*
X21150Y38339I1294J-1294D01*
G01*
Y39257D02*
G03*
X20965Y39705I-633J0D01*
G01*
X21150Y39015D02*
G03*
X20894Y39634I-875J0D01*
G01*
X21150Y39890D02*
X21290Y40030D01*
X21150Y37250D02*
Y39890D01*
Y30110D02*
X21290Y29970D01*
X21150Y30110D02*
Y35050D01*
X21290Y29660D02*
Y29970D01*
Y29660D02*
X22085Y28865D01*
X36050Y28240D02*
Y28350D01*
X21290Y40030D02*
Y40140D01*
X22285Y41135D01*
X36460Y27830D02*
X39830D01*
X36050Y28240D02*
X36460Y27830D01*
X30530Y28620D02*
X35370D01*
X39830Y27830D02*
X39900Y27900D01*
X31350Y34550D02*
X31387Y34513D01*
Y33648D02*
Y34513D01*
X30550Y35550D02*
X31350D01*
X33000Y37100D02*
X33328Y36772D01*
Y35872D02*
Y36772D01*
X32352Y35872D02*
X33328D01*
X34285Y36885D02*
X34600Y37200D01*
X33900Y36885D02*
X34285D01*
X31700Y36500D02*
X32700Y37500D01*
X30950Y36500D02*
X31700D01*
X32700Y37500D02*
X33900D01*
X32300Y37750D02*
X32350D01*
X31702Y37152D02*
X32300Y37750D01*
X31885Y37978D02*
Y39800D01*
X31484Y37577D02*
X31885Y37978D01*
X29600Y39100D02*
X29835Y39335D01*
Y39800D01*
X32500Y39200D02*
X32515Y39215D01*
Y39800D01*
X34615Y39750D02*
X35400D01*
X34565Y39800D02*
X34615Y39750D01*
X27350Y33100D02*
X27650Y33400D01*
X27350Y31800D02*
Y33100D01*
X27950Y33400D02*
X28848Y34298D01*
X27650Y33400D02*
X27950D01*
X28750Y37500D02*
X29098Y37152D01*
X28750Y37500D02*
Y37550D01*
X29498Y37152D02*
X29500Y37154D01*
Y37650D01*
X29205Y37945D02*
X29500Y37650D01*
X29205Y37945D02*
Y38300D01*
X29098Y37152D02*
X29498D01*
X28000Y37350D02*
Y37550D01*
Y37350D02*
X28848Y36502D01*
Y34613D02*
X28861Y34600D01*
X28820Y34900D02*
X28848Y34928D01*
X27905Y34900D02*
X28820D01*
X27800Y34795D02*
X27905Y34900D01*
X27932Y35872D02*
X28848D01*
X27800Y36005D02*
X27932Y35872D01*
X31045Y32200D02*
Y32505D01*
X30781Y32769D02*
X31045Y32505D01*
X30781Y32769D02*
Y33624D01*
X30757Y33648D02*
X30781Y33624D01*
X34865Y34309D02*
X34924Y34250D01*
X34865Y34309D02*
Y34967D01*
X35476Y34250D02*
X35535Y34309D01*
Y34967D01*
X35476Y35892D02*
X35535Y35833D01*
X35476Y35892D02*
Y36550D01*
X34865Y36491D02*
X34924Y36550D01*
X34865Y35833D02*
Y36491D01*
X30455Y32200D02*
Y33636D01*
X35535Y35735D02*
Y35833D01*
X35200Y35400D02*
X35535Y35735D01*
X34450Y35400D02*
X35200D01*
X34146Y35704D02*
X34450Y35400D01*
X33900Y35704D02*
X34146D01*
X34837Y34996D02*
X34865Y34967D01*
X33900Y34996D02*
X34837D01*
X33753Y35557D02*
X33900Y35704D01*
X32352Y35557D02*
X33753D01*
X30750Y37144D02*
X30757Y37152D01*
X31350Y37900D02*
Y40150D01*
X31550Y40350D01*
X31072Y37622D02*
X31350Y37900D01*
X31072Y37152D02*
Y37622D01*
X31550Y40350D02*
X33385D01*
X31484Y37249D02*
Y37577D01*
X33385Y40350D02*
X33935Y39800D01*
X31387Y37152D02*
X31484Y37249D01*
X30443Y37152D02*
Y39778D01*
X29795Y38300D02*
X29813Y38283D01*
Y37152D02*
Y38283D01*
X26295Y36200D02*
X26938Y35557D01*
X28848D01*
X26295Y34600D02*
X26938Y35243D01*
X28848D01*
X25600Y34495D02*
X25705Y34600D01*
X25600Y33854D02*
Y34495D01*
X25450Y33704D02*
X25600Y33854D01*
X26295Y33754D02*
Y34600D01*
X25450Y37096D02*
X25600Y36946D01*
Y36305D02*
Y36946D01*
Y36305D02*
X25705Y36200D01*
X26295D02*
Y37046D01*
X26285Y31835D02*
Y33744D01*
X25284Y30834D02*
X26285Y31835D01*
X24750Y30834D02*
X25284D01*
X26285Y37056D02*
Y38215D01*
X25234Y39266D02*
X26285Y38215D01*
X24750Y39266D02*
X25234D01*
X25856Y40856D02*
X28300D01*
X24750Y39750D02*
X25856Y40856D01*
X24750Y39266D02*
Y39750D01*
X25259Y28356D02*
X28300D01*
X24750Y28866D02*
X25259Y28356D01*
X25159Y41644D02*
X28300D01*
X24750Y41234D02*
X25159Y41644D01*
X22951Y28866D02*
X24750D01*
X22085Y28865D02*
X22950D01*
X22285Y41135D02*
X22950D01*
X24651D01*
X21150Y37250D02*
X22700Y35700D01*
X20500D02*
X21150Y35050D01*
X30750Y36700D02*
Y37144D01*
Y36700D02*
X30950Y36500D01*
X31072Y33648D02*
Y34228D01*
X30750Y34550D02*
X31072Y34228D01*
X32352Y35243D02*
X33357D01*
X33604Y34996D01*
X33900D01*
X24750Y30250D02*
Y30834D01*
Y30250D02*
X25856Y29144D01*
X28300D01*
X27350Y31800D02*
X30530Y28620D01*
X37276Y32850D02*
Y33124D01*
X36700Y33700D02*
X37276Y33124D01*
X39545Y35450D02*
Y37675D01*
X39150Y38070D02*
X39545Y37675D01*
X39900Y27900D02*
Y33010D01*
X37150Y37660D02*
Y38070D01*
Y37660D02*
X37355Y37455D01*
Y35440D02*
Y37455D01*
X37945Y35440D02*
Y37455D01*
X38150Y37660D01*
Y38070D01*
X39570Y33340D02*
X39900Y33010D01*
X37355Y35315D02*
Y35440D01*
Y35315D02*
X39330Y33340D01*
X39570D01*
D17*
X32900Y32400D02*
D03*
X36700Y33700D02*
D03*
D18*
X28300Y41644D02*
D03*
Y28356D02*
D03*
D19*
Y40856D02*
D03*
Y29144D02*
D03*
D20*
X24750Y41234D02*
D03*
Y28866D02*
D03*
D21*
Y39266D02*
D03*
Y30834D02*
D03*
D22*
X23500Y36700D02*
D03*
Y33300D02*
D03*
X20000D02*
D03*
X22700Y35700D02*
D03*
X20500D02*
D03*
X19600Y34900D02*
D03*
D23*
X38030Y29290D02*
D03*
Y31010D02*
D03*
D24*
X39150Y39103D02*
D03*
X37150D02*
D03*
D25*
X39150Y38070D02*
D03*
X38150D02*
D03*
X37150D02*
D03*
D26*
X18278Y41723D02*
D03*
Y38337D02*
D03*
Y31663D02*
D03*
Y28277D02*
D03*
D27*
X19518Y40030D02*
D03*
Y29970D02*
D03*
D28*
X21290Y40030D02*
D03*
Y29970D02*
D03*
D29*
X36090Y28330D02*
D03*
D30*
X30550Y35550D02*
D03*
X31350D02*
D03*
X33000Y37100D02*
D03*
X31350Y34550D02*
D03*
X30750D02*
D03*
X34600Y37200D02*
D03*
X32350Y37750D02*
D03*
X29600Y39100D02*
D03*
X32500Y39200D02*
D03*
X35400Y39750D02*
D03*
X28750Y37550D02*
D03*
X28000D02*
D03*
X31250Y31250D02*
D03*
X29150Y30600D02*
D03*
X38300Y32700D02*
D03*
X31250Y29500D02*
D03*
X32900Y33750D02*
D03*
X36720Y34620D02*
D03*
X38870Y34700D02*
D03*
D31*
X19720Y29970D02*
G03*
X20082Y29096I1236J0D01*
G01*
X19970Y29970D02*
G03*
X20509Y28670I1839J0D01*
G01*
X20220Y29970D02*
G03*
X20936Y28243I2443J0D01*
G01*
X20187Y28991D02*
G03*
X19518Y29268I-669J-669D01*
G01*
X19022Y30466D02*
G03*
X19200Y30896I-429J429D01*
G01*
Y31226D02*
G03*
X19661Y30113I1574J0D01*
G01*
X19200Y31829D02*
G03*
X19838Y30289I2178J0D01*
G01*
X19200Y32433D02*
G03*
X20015Y30466I2781J0D01*
G01*
X19518Y40732D02*
G03*
X20187Y41009I0J946D01*
G01*
X20082Y40904D02*
G03*
X19720Y40030I874J-874D01*
G01*
X20509Y41330D02*
G03*
X19970Y40030I1300J-1300D01*
G01*
X20936Y41757D02*
G03*
X20220Y40030I1727J-1727D01*
G01*
X19661Y39887D02*
G03*
X19378Y39205I682J-682D01*
G01*
X19838Y39711D02*
G03*
X19378Y38601I1109J-1109D01*
G01*
X20015Y39534D02*
G03*
X19378Y37998I1536J-1536D01*
G01*
Y38674D02*
G03*
X19022Y39534I-1216J0D01*
G01*
X19518Y29660D02*
Y29970D01*
Y29660D02*
X20943Y28235D01*
X19200Y30288D02*
X19518Y29970D01*
X19200Y30288D02*
Y34500D01*
X19518Y40030D02*
Y40340D01*
X20943Y41765D01*
X19378Y39890D02*
X19518Y40030D01*
X19378Y36500D02*
Y39890D01*
X35370Y28620D02*
Y28970D01*
Y28350D02*
Y28620D01*
Y27850D02*
Y28350D01*
Y28970D02*
X35930Y29530D01*
X24200Y27850D02*
X35370D01*
X23815Y28235D02*
X24200Y27850D01*
X19200Y34500D02*
X19600Y34900D01*
X19378Y35122D02*
X19600Y34900D01*
X20943Y28235D02*
X22950D01*
X20943Y41765D02*
X22950D01*
X19378Y35122D02*
Y36500D01*
X22950Y28235D02*
X23815D01*
D32*
X31885Y39800D02*
D03*
X32515D02*
D03*
X33935D02*
D03*
X34565D02*
D03*
X34765Y29050D02*
D03*
X34135D02*
D03*
X26285Y33744D02*
D03*
X26915D02*
D03*
X26285Y37056D02*
D03*
X26915D02*
D03*
X30465Y39800D02*
D03*
X29835D02*
D03*
D33*
X29498Y37152D02*
D03*
X29813D02*
D03*
X30128D02*
D03*
X30443D02*
D03*
X30757D02*
D03*
X31072D02*
D03*
X31387D02*
D03*
X31702D02*
D03*
Y33648D02*
D03*
X31387D02*
D03*
X31072D02*
D03*
X30757D02*
D03*
X30443D02*
D03*
X30128D02*
D03*
X29813D02*
D03*
X29498D02*
D03*
D34*
X32352Y36502D02*
D03*
Y36187D02*
D03*
Y35872D02*
D03*
Y35557D02*
D03*
Y35243D02*
D03*
Y34928D02*
D03*
Y34613D02*
D03*
Y34298D02*
D03*
X28848D02*
D03*
Y34613D02*
D03*
Y34928D02*
D03*
Y35243D02*
D03*
Y35557D02*
D03*
Y35872D02*
D03*
Y36187D02*
D03*
Y36502D02*
D03*
D35*
X38955Y35450D02*
D03*
X39545D02*
D03*
X37945Y35440D02*
D03*
X37355D02*
D03*
X30455Y32200D02*
D03*
X31045D02*
D03*
X29795Y38300D02*
D03*
X29205D02*
D03*
X29059Y32450D02*
D03*
X28468D02*
D03*
X29059Y31600D02*
D03*
X28468D02*
D03*
X26295Y36200D02*
D03*
X25705D02*
D03*
X26295Y34600D02*
D03*
X25705D02*
D03*
D36*
X27800Y36005D02*
D03*
Y36595D02*
D03*
X27800Y34795D02*
D03*
Y34205D02*
D03*
D37*
X34096Y30700D02*
D03*
X34804D02*
D03*
X34096Y29900D02*
D03*
X34804D02*
D03*
X34865Y34967D02*
D03*
Y35833D02*
D03*
X35535D02*
D03*
Y34967D02*
D03*
D38*
X39336Y32850D02*
D03*
X38784D02*
D03*
X36724Y32850D02*
D03*
X37276D02*
D03*
X34924Y34250D02*
D03*
X35476D02*
D03*
Y36550D02*
D03*
X34924D02*
D03*
D39*
X37040Y28400D02*
D03*
X39210Y31900D02*
D03*
Y28400D02*
D03*
X37040Y31900D02*
D03*
D40*
X37020Y29530D02*
D03*
Y29840D02*
D03*
Y30150D02*
D03*
Y30460D02*
D03*
Y30770D02*
D03*
D41*
X35370Y28350D02*
X36050D01*
X30150D02*
X35370D01*
X36050D02*
X36070Y28330D01*
X35930Y29530D02*
X37020D01*
X26915Y31585D02*
Y33744D01*
X32352Y34298D02*
X33102D01*
X33765Y33635D02*
X33900D01*
X32900Y33750D02*
X33250Y34100D01*
X33300D02*
X33765Y33635D01*
X33102Y34298D02*
X33300Y34100D01*
X26915Y31585D02*
X30150Y28350D01*
D42*
X36250Y34400D02*
Y38200D01*
X35485Y33635D02*
X36250Y34400D01*
X33900Y33635D02*
X35485D01*
X29363Y36187D02*
X29498Y36052D01*
X28848Y36187D02*
X29363D01*
X29498Y36052D02*
Y37152D01*
Y36052D02*
X29500Y36050D01*
X27800Y36595D02*
Y36950D01*
X27694Y37056D02*
X27800Y36950D01*
X26915Y37056D02*
X27694D01*
X27800Y33900D02*
Y34205D01*
X27644Y33744D02*
X27800Y33900D01*
X26915Y33744D02*
X27644D01*
X27800Y36595D02*
X28055D01*
X28463Y36187D01*
X28848D01*
X28413Y34613D02*
X28848D01*
X28005Y34205D02*
X28413Y34613D01*
X27800Y34205D02*
X28005D01*
X29500Y34750D02*
Y36050D01*
X28861Y34600D02*
X29350D01*
X29500Y34750D01*
X36250Y38200D02*
X36617Y38567D01*
X37653D01*
X38150Y38070D01*
D43*
X39210Y28400D02*
Y31900D01*
X37040Y28400D02*
X39210D01*
X37040Y31900D02*
X39210D01*
M02*
