M48
;Layer_Color=9474304
;FILE_FORMAT=4:3
METRIC
;TYPE=PLATED
T1F00S00C0.381
T2F00S00C0.457
T3F00S00C0.635
T4F00S00C0.800
T5F00S00C0.850
T6F00S00C0.900
T7F00S00C1.016
T8F00S00C1.100
T9F00S00C2.159
T10F00S00C2.300
T11F00S00C3.400
;TYPE=NON_PLATED
%
T01
X0079375Y0074930
X0074041Y0077724
X0078105Y0087757
X0077597Y0090297
X0073025Y0095377
X0071120
X0075184Y0099314
X0082550Y0099568
X0082169Y0095885
X0083820Y0094234
X0087884Y0094488
X0089916Y0100965
X0093269Y0087935
X0098730Y0088138
X0097282Y0083058
X0083566Y0085725
X0079629Y0087757
Y0090297
X0079375Y0079375
T02
X0083566Y0082296
X0093218Y0085598
T03
X0091669Y0071958
T04
X0071882Y0072025
Y0074025
Y0103775
Y0105775
T05
X0094361Y0096698
X0096901
X0099441
T06
X0062865Y0073319
Y0078319
Y0099735
Y0104735
T07
X0096596Y0074397
Y0078765
T08
X0094361Y0099323
X0099441
T09
X0050800Y0084582
X0049784Y0088646
X0052070Y0090678
X0057658
X0059690Y0093218
Y0084582
T10
X0053721Y0075692
Y0102108
T11
X0049221Y0075692
Y0102108
M30
