%FSLAX42Y42*%
%MOMM*%
G71*
G01*
G75*
G04 Layer_Color=65535*
%ADD10R,1.30X1.55*%
%ADD11R,1.40X1.20*%
%ADD12R,1.30X1.00*%
%ADD13R,2.20X0.95*%
%ADD14R,1.10X1.25*%
%ADD15C,0.30*%
%ADD16C,0.25*%
%ADD17C,1.75*%
%ADD18C,2.00*%
%ADD19R,2.00X2.00*%
%ADD20C,4.20*%
%ADD21C,3.10*%
%ADD22C,1.37*%
%ADD23C,0.86*%
%ADD24R,1.35X1.35*%
%ADD25C,1.35*%
%ADD26C,2.79*%
%ADD27R,1.50X1.50*%
%ADD28C,1.50*%
%ADD29C,0.76*%
%ADD30C,1.27*%
%ADD31C,0.64*%
%ADD32R,1.10X1.40*%
%ADD33R,1.20X1.40*%
%ADD34R,0.80X0.90*%
%ADD35R,1.00X1.30*%
%ADD36R,2.39X0.51*%
%ADD37R,2.49X2.01*%
%ADD38R,1.40X1.10*%
%ADD39O,1.60X0.55*%
%ADD40O,0.55X1.60*%
%ADD41C,1.27*%
%ADD42C,0.38*%
%ADD43C,0.51*%
%ADD44C,0.20*%
%ADD45C,0.13*%
%ADD46C,0.15*%
%ADD47C,0.15*%
D16*
X7200Y9681D02*
X7270D01*
X7235Y9647D02*
Y9714D01*
X7365Y9895D02*
Y9929D01*
Y9679D02*
Y9714D01*
X6910Y9589D02*
Y9714D01*
Y9895D02*
Y10019D01*
X7275D02*
X7365Y9929D01*
X6910Y10019D02*
X7275D01*
Y9589D02*
X7365Y9679D01*
X6910Y9589D02*
X7275D01*
X4470Y8661D02*
Y9271D01*
X6325Y8407D02*
Y9373D01*
X4470Y8661D02*
X4826D01*
X4470Y9271D02*
X4826D01*
Y8407D02*
Y8661D01*
Y9271D02*
Y9373D01*
X5773D01*
X6175D02*
X6325D01*
X5273Y8407D02*
X5778D01*
X6172D02*
X6325D01*
X4826D02*
X4890D01*
X6571Y8301D02*
Y8219D01*
X6576Y8203D01*
X6587Y8192D01*
X6604Y8186D01*
X6615D01*
X6631Y8192D01*
X6642Y8203D01*
X6647Y8219D01*
Y8301D01*
X6755Y8284D02*
X6744Y8295D01*
X6728Y8301D01*
X6706D01*
X6690Y8295D01*
X6679Y8284D01*
Y8273D01*
X6684Y8263D01*
X6690Y8257D01*
X6700Y8252D01*
X6733Y8241D01*
X6744Y8235D01*
X6749Y8230D01*
X6755Y8219D01*
Y8203D01*
X6744Y8192D01*
X6728Y8186D01*
X6706D01*
X6690Y8192D01*
X6679Y8203D01*
X6780Y8301D02*
Y8186D01*
Y8301D02*
X6829D01*
X6846Y8295D01*
X6851Y8290D01*
X6857Y8279D01*
Y8268D01*
X6851Y8257D01*
X6846Y8252D01*
X6829Y8246D01*
X6780D02*
X6829D01*
X6846Y8241D01*
X6851Y8235D01*
X6857Y8225D01*
Y8208D01*
X6851Y8197D01*
X6846Y8192D01*
X6829Y8186D01*
X6780D01*
X7059D02*
X7016Y8301D01*
X6972Y8186D01*
X6988Y8225D02*
X7043D01*
X7086Y8263D02*
Y8208D01*
X7091Y8192D01*
X7102Y8186D01*
X7118D01*
X7129Y8192D01*
X7146Y8208D01*
Y8263D02*
Y8186D01*
X7241Y8301D02*
Y8186D01*
Y8246D02*
X7230Y8257D01*
X7219Y8263D01*
X7203D01*
X7192Y8257D01*
X7181Y8246D01*
X7176Y8230D01*
Y8219D01*
X7181Y8203D01*
X7192Y8192D01*
X7203Y8186D01*
X7219D01*
X7230Y8192D01*
X7241Y8203D01*
X7282Y8301D02*
X7288Y8295D01*
X7293Y8301D01*
X7288Y8306D01*
X7282Y8301D01*
X7288Y8263D02*
Y8186D01*
X7340Y8263D02*
X7330Y8257D01*
X7319Y8246D01*
X7313Y8230D01*
Y8219D01*
X7319Y8203D01*
X7330Y8192D01*
X7340Y8186D01*
X7357D01*
X7368Y8192D01*
X7379Y8203D01*
X7384Y8219D01*
Y8230D01*
X7379Y8246D01*
X7368Y8257D01*
X7357Y8263D01*
X7340D01*
X7499Y8301D02*
Y8186D01*
Y8301D02*
X7537D01*
X7553Y8295D01*
X7564Y8284D01*
X7570Y8273D01*
X7575Y8257D01*
Y8230D01*
X7570Y8214D01*
X7564Y8203D01*
X7553Y8192D01*
X7537Y8186D01*
X7499D01*
X7688D02*
X7644Y8301D01*
X7601Y8186D01*
X7617Y8225D02*
X7671D01*
X7796Y8273D02*
X7790Y8284D01*
X7780Y8295D01*
X7769Y8301D01*
X7747D01*
X7736Y8295D01*
X7725Y8284D01*
X7720Y8273D01*
X7714Y8257D01*
Y8230D01*
X7720Y8214D01*
X7725Y8203D01*
X7736Y8192D01*
X7747Y8186D01*
X7769D01*
X7780Y8192D01*
X7790Y8203D01*
X7796Y8214D01*
D44*
X7438Y7303D02*
G03*
X7438Y7303I-250J0D01*
G01*
X6786Y7582D02*
G03*
X6786Y7582I-500J0D01*
G01*
Y10224D02*
G03*
X6786Y10224I-500J0D01*
G01*
X7438Y10478D02*
G03*
X7438Y10478I-250J0D01*
G01*
X9483Y8235D02*
X9603D01*
X7489Y8712D02*
X7599D01*
X8708Y8235D02*
X8818D01*
X7895D02*
X8005D01*
D45*
X6863Y9446D02*
X6890D01*
X6899Y9449D01*
X6902Y9452D01*
X6905Y9458D01*
Y9467D01*
X6902Y9473D01*
X6899Y9476D01*
X6890Y9479D01*
X6863D01*
Y9416D01*
X6920Y9479D02*
Y9416D01*
Y9479D02*
X6947D01*
X6956Y9476D01*
X6959Y9473D01*
X6962Y9467D01*
Y9461D01*
X6959Y9455D01*
X6956Y9452D01*
X6947Y9449D01*
X6920D01*
X6941D02*
X6962Y9416D01*
X7015Y9479D02*
X6976D01*
Y9416D01*
X7015D01*
X6976Y9449D02*
X7000D01*
X7026Y9479D02*
X7050Y9416D01*
X7074Y9479D02*
X7050Y9416D01*
X7154Y9479D02*
Y9416D01*
X7132Y9479D02*
X7175D01*
X7182D02*
Y9416D01*
Y9479D02*
X7210D01*
X7219Y9476D01*
X7222Y9473D01*
X7225Y9467D01*
Y9461D01*
X7222Y9455D01*
X7219Y9452D01*
X7210Y9449D01*
X7182D01*
X7203D02*
X7225Y9416D01*
X7287D02*
X7263Y9479D01*
X7239Y9416D01*
X7248Y9437D02*
X7278D01*
X7347Y9464D02*
X7344Y9470D01*
X7338Y9476D01*
X7332Y9479D01*
X7320D01*
X7314Y9476D01*
X7308Y9470D01*
X7305Y9464D01*
X7302Y9455D01*
Y9440D01*
X7305Y9431D01*
X7308Y9425D01*
X7314Y9419D01*
X7320Y9416D01*
X7332D01*
X7338Y9419D01*
X7344Y9425D01*
X7347Y9431D01*
X7365Y9479D02*
Y9416D01*
X7408Y9479D02*
X7365Y9437D01*
X7380Y9452D02*
X7408Y9416D01*
X8465Y9479D02*
Y9416D01*
Y9479D02*
X8507Y9416D01*
Y9479D02*
Y9416D01*
X8564Y9479D02*
X8524D01*
Y9416D01*
X8564D01*
X8524Y9449D02*
X8549D01*
X8574Y9479D02*
X8617Y9416D01*
Y9479D02*
X8574Y9416D01*
X8652Y9479D02*
Y9416D01*
X8631Y9479D02*
X8673D01*
X8852D02*
Y9416D01*
X8830Y9479D02*
X8873D01*
X8880D02*
Y9416D01*
Y9479D02*
X8907D01*
X8917Y9476D01*
X8920Y9473D01*
X8923Y9467D01*
Y9461D01*
X8920Y9455D01*
X8917Y9452D01*
X8907Y9449D01*
X8880D01*
X8901D02*
X8923Y9416D01*
X8985D02*
X8961Y9479D01*
X8937Y9416D01*
X8946Y9437D02*
X8976D01*
X9045Y9464D02*
X9042Y9470D01*
X9036Y9476D01*
X9030Y9479D01*
X9018D01*
X9012Y9476D01*
X9006Y9470D01*
X9003Y9464D01*
X9000Y9455D01*
Y9440D01*
X9003Y9431D01*
X9006Y9425D01*
X9012Y9419D01*
X9018Y9416D01*
X9030D01*
X9036Y9419D01*
X9042Y9425D01*
X9045Y9431D01*
X9063Y9479D02*
Y9416D01*
X9105Y9479D02*
X9063Y9437D01*
X9078Y9452D02*
X9105Y9416D01*
X9133Y7636D02*
X9127Y7642D01*
X9118Y7645D01*
X9106D01*
X9097Y7642D01*
X9091Y7636D01*
Y7630D01*
X9094Y7624D01*
X9097Y7621D01*
X9103Y7618D01*
X9121Y7612D01*
X9127Y7609D01*
X9130Y7606D01*
X9133Y7600D01*
Y7591D01*
X9127Y7585D01*
X9118Y7582D01*
X9106D01*
X9097Y7585D01*
X9091Y7591D01*
X9168Y7645D02*
Y7582D01*
X9147Y7645D02*
X9190D01*
X9215D02*
X9209Y7642D01*
X9203Y7636D01*
X9200Y7630D01*
X9197Y7621D01*
Y7606D01*
X9200Y7597D01*
X9203Y7591D01*
X9209Y7585D01*
X9215Y7582D01*
X9227D01*
X9233Y7585D01*
X9239Y7591D01*
X9242Y7597D01*
X9245Y7606D01*
Y7621D01*
X9242Y7630D01*
X9239Y7636D01*
X9233Y7642D01*
X9227Y7645D01*
X9215D01*
X9260Y7612D02*
X9287D01*
X9297Y7615D01*
X9300Y7618D01*
X9303Y7624D01*
Y7633D01*
X9300Y7639D01*
X9297Y7642D01*
X9287Y7645D01*
X9260D01*
Y7582D01*
X7343Y7645D02*
X7367Y7582D01*
X7392Y7645D02*
X7367Y7582D01*
X7418Y7645D02*
X7412Y7642D01*
X7406Y7636D01*
X7403Y7630D01*
X7400Y7621D01*
Y7606D01*
X7403Y7597D01*
X7406Y7591D01*
X7412Y7585D01*
X7418Y7582D01*
X7430D01*
X7436Y7585D01*
X7442Y7591D01*
X7445Y7597D01*
X7448Y7606D01*
Y7621D01*
X7445Y7630D01*
X7442Y7636D01*
X7436Y7642D01*
X7430Y7645D01*
X7418D01*
X7463D02*
Y7582D01*
X7499D01*
X7556Y7609D02*
X7610D01*
X8651Y9652D02*
Y9589D01*
Y9652D02*
X8675Y9589D01*
X8700Y9652D02*
X8675Y9589D01*
X8700Y9652D02*
Y9589D01*
X8718Y9652D02*
Y9607D01*
X8721Y9598D01*
X8727Y9592D01*
X8736Y9589D01*
X8742D01*
X8751Y9592D01*
X8757Y9598D01*
X8760Y9607D01*
Y9652D01*
X8799D02*
Y9589D01*
X8778Y9652D02*
X8820D01*
X8867D02*
X8827D01*
Y9589D01*
X8867D01*
X8827Y9622D02*
X8852D01*
X7811Y9652D02*
X7835Y9589D01*
X7859Y9652D02*
X7835Y9589D01*
X7885Y9652D02*
X7879Y9649D01*
X7873Y9643D01*
X7870Y9637D01*
X7867Y9628D01*
Y9613D01*
X7870Y9604D01*
X7873Y9598D01*
X7879Y9592D01*
X7885Y9589D01*
X7897D01*
X7903Y9592D01*
X7909Y9598D01*
X7912Y9604D01*
X7915Y9613D01*
Y9628D01*
X7912Y9637D01*
X7909Y9643D01*
X7903Y9649D01*
X7897Y9652D01*
X7885D01*
X7930D02*
Y9589D01*
X7966D01*
X8051Y9643D02*
Y9589D01*
X8023Y9616D02*
X8078D01*
X7676Y9446D02*
X7703D01*
X7712Y9449D01*
X7715Y9452D01*
X7718Y9458D01*
Y9467D01*
X7715Y9473D01*
X7712Y9476D01*
X7703Y9479D01*
X7676D01*
Y9416D01*
X7732Y9479D02*
Y9416D01*
X7769D01*
X7824D02*
X7800Y9479D01*
X7776Y9416D01*
X7785Y9437D02*
X7815D01*
X7839Y9479D02*
X7863Y9449D01*
Y9416D01*
X7887Y9479D02*
X7863Y9449D01*
X7895Y9407D02*
X7938Y9479D01*
X7942Y9446D02*
X7969D01*
X7978Y9449D01*
X7981Y9452D01*
X7984Y9458D01*
Y9467D01*
X7981Y9473D01*
X7978Y9476D01*
X7969Y9479D01*
X7942D01*
Y9416D01*
X8047D02*
X8023Y9479D01*
X7998Y9416D01*
X8008Y9437D02*
X8038D01*
X8062Y9479D02*
Y9434D01*
X8065Y9425D01*
X8071Y9419D01*
X8080Y9416D01*
X8086D01*
X8095Y9419D01*
X8101Y9425D01*
X8104Y9434D01*
Y9479D01*
X8164Y9470D02*
X8158Y9476D01*
X8149Y9479D01*
X8137D01*
X8128Y9476D01*
X8121Y9470D01*
Y9464D01*
X8125Y9458D01*
X8128Y9455D01*
X8134Y9452D01*
X8152Y9446D01*
X8158Y9443D01*
X8161Y9440D01*
X8164Y9434D01*
Y9425D01*
X8158Y9419D01*
X8149Y9416D01*
X8137D01*
X8128Y9419D01*
X8121Y9425D01*
X8217Y9479D02*
X8178D01*
Y9416D01*
X8217D01*
X8178Y9449D02*
X8202D01*
X8738Y8953D02*
X8725Y8966D01*
X8699D01*
X8687Y8953D01*
Y8941D01*
X8699Y8928D01*
X8725D01*
X8738Y8915D01*
Y8903D01*
X8725Y8890D01*
X8699D01*
X8687Y8903D01*
X8801Y8890D02*
Y8966D01*
X8763Y8928D01*
X8814D01*
X7112Y8953D02*
X7099Y8966D01*
X7074D01*
X7061Y8953D01*
Y8941D01*
X7074Y8928D01*
X7099D01*
X7112Y8915D01*
Y8903D01*
X7099Y8890D01*
X7074D01*
X7061Y8903D01*
X7137Y8953D02*
X7150Y8966D01*
X7175D01*
X7188Y8953D01*
Y8941D01*
X7175Y8928D01*
X7163D01*
X7175D01*
X7188Y8915D01*
Y8903D01*
X7175Y8890D01*
X7150D01*
X7137Y8903D01*
X9627Y10317D02*
Y10254D01*
X9639Y10241D01*
X9665D01*
X9677Y10254D01*
Y10317D01*
X9754Y10241D02*
X9703D01*
X9754Y10292D01*
Y10305D01*
X9741Y10317D01*
X9715D01*
X9703Y10305D01*
X7925Y7645D02*
X7912Y7658D01*
X7887D01*
X7874Y7645D01*
Y7633D01*
X7887Y7620D01*
X7912D01*
X7925Y7607D01*
Y7595D01*
X7912Y7582D01*
X7887D01*
X7874Y7595D01*
X7950Y7658D02*
X8001D01*
Y7645D01*
X7950Y7595D01*
Y7582D01*
X7925Y10262D02*
X7912Y10274D01*
X7887D01*
X7874Y10262D01*
Y10249D01*
X7887Y10236D01*
X7912D01*
X7925Y10223D01*
Y10211D01*
X7912Y10198D01*
X7887D01*
X7874Y10211D01*
X8001Y10274D02*
X7976Y10262D01*
X7950Y10236D01*
Y10211D01*
X7963Y10198D01*
X7988D01*
X8001Y10211D01*
Y10223D01*
X7988Y10236D01*
X7950D01*
X8738Y10262D02*
X8725Y10274D01*
X8699D01*
X8687Y10262D01*
Y10249D01*
X8699Y10236D01*
X8725D01*
X8738Y10223D01*
Y10211D01*
X8725Y10198D01*
X8699D01*
X8687Y10211D01*
X8814Y10274D02*
X8763D01*
Y10236D01*
X8788Y10249D01*
X8801D01*
X8814Y10236D01*
Y10211D01*
X8801Y10198D01*
X8776D01*
X8763Y10211D01*
X8738Y7645D02*
X8725Y7658D01*
X8699D01*
X8687Y7645D01*
Y7633D01*
X8699Y7620D01*
X8725D01*
X8738Y7607D01*
Y7595D01*
X8725Y7582D01*
X8699D01*
X8687Y7595D01*
X8814Y7582D02*
X8763D01*
X8814Y7633D01*
Y7645D01*
X8801Y7658D01*
X8776D01*
X8763Y7645D01*
X7925Y8953D02*
X7912Y8966D01*
X7887D01*
X7874Y8953D01*
Y8941D01*
X7887Y8928D01*
X7912D01*
X7925Y8915D01*
Y8903D01*
X7912Y8890D01*
X7887D01*
X7874Y8903D01*
X7950Y8890D02*
X7976D01*
X7963D01*
Y8966D01*
X7950Y8953D01*
X8064Y8344D02*
X8141D01*
Y8306D01*
X8128Y8293D01*
X8103D01*
X8090Y8306D01*
Y8344D01*
Y8319D02*
X8064Y8293D01*
Y8268D02*
Y8242D01*
Y8255D01*
X8141D01*
X8128Y8268D01*
X8064Y8166D02*
X8141D01*
X8103Y8204D01*
Y8153D01*
X7468Y8446D02*
Y8522D01*
X7506D01*
X7518Y8509D01*
Y8484D01*
X7506Y8471D01*
X7468D01*
X7493D02*
X7518Y8446D01*
X7544Y8522D02*
X7595D01*
Y8509D01*
X7544Y8458D01*
Y8446D01*
X8697Y8443D02*
Y8519D01*
X8735D01*
X8748Y8506D01*
Y8481D01*
X8735Y8468D01*
X8697D01*
X8722D02*
X8748Y8443D01*
X8824Y8519D02*
X8799Y8506D01*
X8773Y8481D01*
Y8456D01*
X8786Y8443D01*
X8811D01*
X8824Y8456D01*
Y8468D01*
X8811Y8481D01*
X8773D01*
X9479Y8461D02*
Y8537D01*
X9517D01*
X9529Y8525D01*
Y8499D01*
X9517Y8487D01*
X9479D01*
X9504D02*
X9529Y8461D01*
X9555Y8525D02*
X9567Y8537D01*
X9593D01*
X9606Y8525D01*
Y8512D01*
X9593Y8499D01*
X9580D01*
X9593D01*
X9606Y8487D01*
Y8474D01*
X9593Y8461D01*
X9567D01*
X9555Y8474D01*
X4572Y8928D02*
Y9004D01*
X4610D01*
X4623Y8992D01*
Y8966D01*
X4610Y8953D01*
X4572D01*
X4648Y8928D02*
X4674D01*
X4661D01*
Y9004D01*
X4648Y8992D01*
X4585Y7595D02*
X4559D01*
X4572D01*
Y7531D01*
X4559Y7518D01*
X4547D01*
X4534Y7531D01*
X4661Y7518D02*
X4610D01*
X4661Y7569D01*
Y7582D01*
X4648Y7595D01*
X4623D01*
X4610Y7582D01*
X4585Y10262D02*
X4559D01*
X4572D01*
Y10198D01*
X4559Y10185D01*
X4547D01*
X4534Y10198D01*
X4610Y10185D02*
X4635D01*
X4623D01*
Y10262D01*
X4610Y10249D01*
X9289Y7891D02*
X9365D01*
Y7929D01*
X9352Y7942D01*
X9302D01*
X9289Y7929D01*
Y7891D01*
X9365Y7967D02*
Y7993D01*
Y7980D01*
X9289D01*
X9302Y7967D01*
X7074Y9957D02*
X7061Y9969D01*
X7036D01*
X7023Y9957D01*
Y9906D01*
X7036Y9893D01*
X7061D01*
X7074Y9906D01*
X7099Y9893D02*
X7125D01*
X7112D01*
Y9969D01*
X7099Y9957D01*
X7214Y9969D02*
X7163D01*
Y9931D01*
X7188Y9944D01*
X7201D01*
X7214Y9931D01*
Y9906D01*
X7201Y9893D01*
X7175D01*
X7163Y9906D01*
X7010Y7302D02*
X6998Y7290D01*
Y7264D01*
X7010Y7252D01*
X7061D01*
X7074Y7264D01*
Y7290D01*
X7061Y7302D01*
X6998Y7328D02*
Y7379D01*
X7010D01*
X7061Y7328D01*
X7074D01*
X6274Y7595D02*
X6261Y7607D01*
X6236D01*
X6223Y7595D01*
Y7544D01*
X6236Y7531D01*
X6261D01*
X6274Y7544D01*
X6350Y7607D02*
X6325Y7595D01*
X6299Y7569D01*
Y7544D01*
X6312Y7531D01*
X6337D01*
X6350Y7544D01*
Y7556D01*
X6337Y7569D01*
X6299D01*
X7010Y10490D02*
X6998Y10477D01*
Y10452D01*
X7010Y10439D01*
X7061D01*
X7074Y10452D01*
Y10477D01*
X7061Y10490D01*
X7074Y10554D02*
X6998D01*
X7036Y10516D01*
Y10566D01*
X6286Y10236D02*
X6274Y10249D01*
X6248D01*
X6236Y10236D01*
Y10185D01*
X6248Y10173D01*
X6274D01*
X6286Y10185D01*
X6312Y10236D02*
X6325Y10249D01*
X6350D01*
X6363Y10236D01*
Y10223D01*
X6350Y10211D01*
X6337D01*
X6350D01*
X6363Y10198D01*
Y10185D01*
X6350Y10173D01*
X6325D01*
X6312Y10185D01*
X6782Y8105D02*
Y8042D01*
Y8105D02*
X6824Y8042D01*
Y8105D02*
Y8042D01*
X6848Y8105D02*
X6851Y8102D01*
X6854Y8105D01*
X6851Y8108D01*
X6848Y8105D01*
X6851Y8084D02*
Y8042D01*
X6901Y8075D02*
X6895Y8081D01*
X6889Y8084D01*
X6880D01*
X6874Y8081D01*
X6868Y8075D01*
X6865Y8066D01*
Y8060D01*
X6868Y8051D01*
X6874Y8045D01*
X6880Y8042D01*
X6889D01*
X6895Y8045D01*
X6901Y8051D01*
X6915Y8105D02*
Y8042D01*
X6945Y8084D02*
X6915Y8054D01*
X6927Y8066D02*
X6948Y8042D01*
X7056D02*
X7032Y8105D01*
X7008Y8042D01*
X7017Y8063D02*
X7047D01*
X7107Y8084D02*
Y8042D01*
Y8075D02*
X7101Y8081D01*
X7095Y8084D01*
X7086D01*
X7080Y8081D01*
X7074Y8075D01*
X7071Y8066D01*
Y8060D01*
X7074Y8051D01*
X7080Y8045D01*
X7086Y8042D01*
X7095D01*
X7101Y8045D01*
X7107Y8051D01*
X7158Y8075D02*
X7155Y8081D01*
X7145Y8084D01*
X7136D01*
X7127Y8081D01*
X7124Y8075D01*
X7127Y8069D01*
X7133Y8066D01*
X7149Y8063D01*
X7155Y8060D01*
X7158Y8054D01*
Y8051D01*
X7155Y8045D01*
X7145Y8042D01*
X7136D01*
X7127Y8045D01*
X7124Y8051D01*
X7207Y8084D02*
Y8042D01*
Y8075D02*
X7201Y8081D01*
X7195Y8084D01*
X7186D01*
X7180Y8081D01*
X7174Y8075D01*
X7171Y8066D01*
Y8060D01*
X7174Y8051D01*
X7180Y8045D01*
X7186Y8042D01*
X7195D01*
X7201Y8045D01*
X7207Y8051D01*
X7224Y8084D02*
Y8042D01*
Y8072D02*
X7233Y8081D01*
X7239Y8084D01*
X7248D01*
X7254Y8081D01*
X7257Y8072D01*
Y8042D01*
X7310Y8105D02*
Y8042D01*
Y8075D02*
X7304Y8081D01*
X7298Y8084D01*
X7289D01*
X7283Y8081D01*
X7277Y8075D01*
X7274Y8066D01*
Y8060D01*
X7277Y8051D01*
X7283Y8045D01*
X7289Y8042D01*
X7298D01*
X7304Y8045D01*
X7310Y8051D01*
X6782Y7973D02*
Y7910D01*
Y7973D02*
X6809D01*
X6818Y7970D01*
X6821Y7967D01*
X6824Y7961D01*
Y7955D01*
X6821Y7949D01*
X6818Y7946D01*
X6809Y7943D01*
X6782D01*
X6803D02*
X6824Y7910D01*
X6838Y7934D02*
X6875D01*
Y7940D01*
X6872Y7946D01*
X6869Y7949D01*
X6863Y7952D01*
X6853D01*
X6847Y7949D01*
X6841Y7943D01*
X6838Y7934D01*
Y7928D01*
X6841Y7919D01*
X6847Y7913D01*
X6853Y7910D01*
X6863D01*
X6869Y7913D01*
X6875Y7919D01*
X6888Y7952D02*
X6906Y7910D01*
X6924Y7952D02*
X6906Y7910D01*
X6938Y7952D02*
X6935Y7949D01*
X6938Y7946D01*
X6941Y7949D01*
X6938Y7952D01*
Y7916D02*
X6935Y7913D01*
X6938Y7910D01*
X6941Y7913D01*
X6938Y7916D01*
X7005Y7961D02*
X7011Y7964D01*
X7020Y7973D01*
Y7910D01*
X7054Y7916D02*
X7051Y7913D01*
X7054Y7910D01*
X7057Y7913D01*
X7054Y7916D01*
X7089Y7973D02*
X7080Y7970D01*
X7074Y7961D01*
X7071Y7946D01*
Y7937D01*
X7074Y7922D01*
X7080Y7913D01*
X7089Y7910D01*
X7095D01*
X7104Y7913D01*
X7110Y7922D01*
X7113Y7937D01*
Y7946D01*
X7110Y7961D01*
X7104Y7970D01*
X7095Y7973D01*
X7089D01*
D46*
X7188Y7700D02*
Y7600D01*
X7238Y7650D02*
X7138D01*
X7188Y10080D02*
Y10180D01*
X7138Y10130D02*
X7238D01*
D47*
X6286Y8228D02*
Y8128D01*
X6336Y8178D02*
X6236D01*
X6287Y9577D02*
Y9677D01*
X6237Y9627D02*
X6337D01*
M02*
