%FSLAX24Y24*%
%MOIN*%
G70*
G01*
G75*
G04 Layer_Color=65535*
%ADD10R,0.0433X0.0492*%
%ADD11R,0.0512X0.0610*%
%ADD12R,0.0512X0.0394*%
%ADD13R,0.0866X0.0374*%
%ADD14R,0.0551X0.0472*%
%ADD15C,0.0120*%
%ADD16C,0.0100*%
%ADD17C,0.0340*%
%ADD18C,0.0532*%
%ADD19R,0.0532X0.0532*%
%ADD20C,0.0591*%
%ADD21R,0.0591X0.0591*%
%ADD22C,0.1100*%
%ADD23C,0.0540*%
%ADD24C,0.0787*%
%ADD25C,0.0689*%
%ADD26R,0.1144X0.1144*%
%ADD27C,0.1654*%
%ADD28C,0.1220*%
%ADD29C,0.0500*%
%ADD30C,0.0300*%
%ADD31C,0.0250*%
%ADD32R,0.0394X0.0512*%
%ADD33O,0.0217X0.0630*%
%ADD34O,0.0630X0.0217*%
%ADD35R,0.0433X0.0551*%
%ADD36R,0.0551X0.0433*%
%ADD37R,0.0472X0.0551*%
%ADD38R,0.0315X0.0354*%
%ADD39R,0.0980X0.0790*%
%ADD40R,0.0940X0.0200*%
%ADD41C,0.0200*%
%ADD42C,0.0150*%
%ADD43C,0.0500*%
%ADD44C,0.0079*%
%ADD45C,0.0050*%
%ADD46C,0.0059*%
%ADD47C,0.0059*%
D16*
X19000Y33100D02*
X19250D01*
X24300D02*
X24900D01*
X20760D02*
X22750D01*
X24310Y36900D02*
X24900D01*
X19000D02*
X22730D01*
X19000Y36500D02*
Y36900D01*
Y33100D02*
Y34100D01*
X17600Y36500D02*
X19000D01*
X17600Y34100D02*
X19000D01*
X24900Y33100D02*
Y36900D01*
X17600Y34100D02*
Y36500D01*
X27205Y37754D02*
X28640D01*
X28994Y38108D01*
X27205Y39446D02*
X28640D01*
X28994Y39092D01*
X27205Y38955D02*
Y39446D01*
Y37754D02*
Y38245D01*
X28994Y38108D02*
Y38245D01*
Y38955D02*
Y39092D01*
X28483Y37980D02*
Y38245D01*
X28346Y38112D02*
X28621D01*
X25870Y32680D02*
Y32359D01*
X25891Y32294D01*
X25934Y32251D01*
X25999Y32230D01*
X26041D01*
X26106Y32251D01*
X26149Y32294D01*
X26170Y32359D01*
Y32680D01*
X26594Y32616D02*
X26551Y32658D01*
X26487Y32680D01*
X26401D01*
X26337Y32658D01*
X26294Y32616D01*
Y32573D01*
X26316Y32530D01*
X26337Y32509D01*
X26380Y32487D01*
X26508Y32444D01*
X26551Y32423D01*
X26573Y32401D01*
X26594Y32359D01*
Y32294D01*
X26551Y32251D01*
X26487Y32230D01*
X26401D01*
X26337Y32251D01*
X26294Y32294D01*
X26695Y32680D02*
Y32230D01*
Y32680D02*
X26888D01*
X26952Y32658D01*
X26973Y32637D01*
X26995Y32594D01*
Y32551D01*
X26973Y32509D01*
X26952Y32487D01*
X26888Y32466D01*
X26695D02*
X26888D01*
X26952Y32444D01*
X26973Y32423D01*
X26995Y32380D01*
Y32316D01*
X26973Y32273D01*
X26952Y32251D01*
X26888Y32230D01*
X26695D01*
X27792D02*
X27620Y32680D01*
X27449Y32230D01*
X27513Y32380D02*
X27727D01*
X27897Y32530D02*
Y32316D01*
X27918Y32251D01*
X27961Y32230D01*
X28025D01*
X28068Y32251D01*
X28132Y32316D01*
Y32530D02*
Y32230D01*
X28507Y32680D02*
Y32230D01*
Y32466D02*
X28464Y32509D01*
X28422Y32530D01*
X28357D01*
X28314Y32509D01*
X28272Y32466D01*
X28250Y32401D01*
Y32359D01*
X28272Y32294D01*
X28314Y32251D01*
X28357Y32230D01*
X28422D01*
X28464Y32251D01*
X28507Y32294D01*
X28670Y32680D02*
X28692Y32658D01*
X28713Y32680D01*
X28692Y32701D01*
X28670Y32680D01*
X28692Y32530D02*
Y32230D01*
X28899Y32530D02*
X28856Y32509D01*
X28814Y32466D01*
X28792Y32401D01*
Y32359D01*
X28814Y32294D01*
X28856Y32251D01*
X28899Y32230D01*
X28964D01*
X29006Y32251D01*
X29049Y32294D01*
X29071Y32359D01*
Y32401D01*
X29049Y32466D01*
X29006Y32509D01*
X28964Y32530D01*
X28899D01*
X29523Y32680D02*
Y32230D01*
Y32680D02*
X29673D01*
X29737Y32658D01*
X29780Y32616D01*
X29801Y32573D01*
X29823Y32509D01*
Y32401D01*
X29801Y32337D01*
X29780Y32294D01*
X29737Y32251D01*
X29673Y32230D01*
X29523D01*
X30266D02*
X30095Y32680D01*
X29923Y32230D01*
X29988Y32380D02*
X30202D01*
X30693Y32573D02*
X30671Y32616D01*
X30628Y32658D01*
X30585Y32680D01*
X30500D01*
X30457Y32658D01*
X30414Y32616D01*
X30393Y32573D01*
X30371Y32509D01*
Y32401D01*
X30393Y32337D01*
X30414Y32294D01*
X30457Y32251D01*
X30500Y32230D01*
X30585D01*
X30628Y32251D01*
X30671Y32294D01*
X30693Y32337D01*
D44*
X29284Y41250D02*
G03*
X29284Y41250I-984J0D01*
G01*
X26718Y40250D02*
G03*
X26718Y40250I-1969J0D01*
G01*
Y29850D02*
G03*
X26718Y29850I-1969J0D01*
G01*
X29284Y28750D02*
G03*
X29284Y28750I-984J0D01*
G01*
X31083Y32420D02*
X31517D01*
X34283D02*
X34717D01*
X29483Y34300D02*
X29917D01*
X37334Y32420D02*
X37806D01*
D45*
X24750Y40300D02*
X24700Y40350D01*
X24600D01*
X24550Y40300D01*
Y40100D01*
X24600Y40050D01*
X24700D01*
X24750Y40100D01*
X24850Y40300D02*
X24900Y40350D01*
X25000D01*
X25050Y40300D01*
Y40250D01*
X25000Y40200D01*
X24950D01*
X25000D01*
X25050Y40150D01*
Y40100D01*
X25000Y40050D01*
X24900D01*
X24850Y40100D01*
X27600Y41300D02*
X27550Y41250D01*
Y41150D01*
X27600Y41100D01*
X27800D01*
X27850Y41150D01*
Y41250D01*
X27800Y41300D01*
X27850Y41550D02*
X27550D01*
X27700Y41400D01*
Y41600D01*
X24700Y29900D02*
X24650Y29950D01*
X24550D01*
X24500Y29900D01*
Y29700D01*
X24550Y29650D01*
X24650D01*
X24700Y29700D01*
X25000Y29950D02*
X24900Y29900D01*
X24800Y29800D01*
Y29700D01*
X24850Y29650D01*
X24950D01*
X25000Y29700D01*
Y29750D01*
X24950Y29800D01*
X24800D01*
X27600Y28750D02*
X27550Y28700D01*
Y28600D01*
X27600Y28550D01*
X27800D01*
X27850Y28600D01*
Y28700D01*
X27800Y28750D01*
X27550Y28850D02*
Y29050D01*
X27600D01*
X27800Y28850D01*
X27850D01*
X27850Y39200D02*
X27800Y39250D01*
X27700D01*
X27650Y39200D01*
Y39000D01*
X27700Y38950D01*
X27800D01*
X27850Y39000D01*
X27950Y38950D02*
X28050D01*
X28000D01*
Y39250D01*
X27950Y39200D01*
X28400Y39250D02*
X28200D01*
Y39100D01*
X28300Y39150D01*
X28350D01*
X28400Y39100D01*
Y39000D01*
X28350Y38950D01*
X28250D01*
X28200Y39000D01*
X36570Y31067D02*
X36870D01*
Y31217D01*
X36820Y31267D01*
X36620D01*
X36570Y31217D01*
Y31067D01*
X36870Y31367D02*
Y31467D01*
Y31417D01*
X36570D01*
X36620Y31367D01*
X18190Y40230D02*
X18090D01*
X18140D01*
Y39980D01*
X18090Y39930D01*
X18040D01*
X17990Y39980D01*
X18290Y39930D02*
X18390D01*
X18340D01*
Y40230D01*
X18290Y40180D01*
X18190Y30070D02*
X18090D01*
X18140D01*
Y29820D01*
X18090Y29770D01*
X18040D01*
X17990Y29820D01*
X18490Y29770D02*
X18290D01*
X18490Y29970D01*
Y30020D01*
X18440Y30070D01*
X18340D01*
X18290Y30020D01*
X18000Y35150D02*
Y35450D01*
X18150D01*
X18200Y35400D01*
Y35300D01*
X18150Y35250D01*
X18000D01*
X18300Y35150D02*
X18400D01*
X18350D01*
Y35450D01*
X18300Y35400D01*
X37317Y33312D02*
Y33612D01*
X37467D01*
X37517Y33562D01*
Y33462D01*
X37467Y33412D01*
X37317D01*
X37417D02*
X37517Y33312D01*
X37617Y33562D02*
X37667Y33612D01*
X37767D01*
X37817Y33562D01*
Y33512D01*
X37767Y33462D01*
X37717D01*
X37767D01*
X37817Y33412D01*
Y33362D01*
X37767Y33312D01*
X37667D01*
X37617Y33362D01*
X34240Y33240D02*
Y33540D01*
X34390D01*
X34440Y33490D01*
Y33390D01*
X34390Y33340D01*
X34240D01*
X34340D02*
X34440Y33240D01*
X34740Y33540D02*
X34640Y33490D01*
X34540Y33390D01*
Y33290D01*
X34590Y33240D01*
X34690D01*
X34740Y33290D01*
Y33340D01*
X34690Y33390D01*
X34540D01*
X29400Y33250D02*
Y33550D01*
X29550D01*
X29600Y33500D01*
Y33400D01*
X29550Y33350D01*
X29400D01*
X29500D02*
X29600Y33250D01*
X29700Y33550D02*
X29900D01*
Y33500D01*
X29700Y33300D01*
Y33250D01*
X31750Y32850D02*
X32050D01*
Y32700D01*
X32000Y32650D01*
X31900D01*
X31850Y32700D01*
Y32850D01*
Y32750D02*
X31750Y32650D01*
Y32550D02*
Y32450D01*
Y32500D01*
X32050D01*
X32000Y32550D01*
X31750Y32150D02*
X32050D01*
X31900Y32300D01*
Y32100D01*
X31200Y35250D02*
X31150Y35300D01*
X31050D01*
X31000Y35250D01*
Y35200D01*
X31050Y35150D01*
X31150D01*
X31200Y35100D01*
Y35050D01*
X31150Y35000D01*
X31050D01*
X31000Y35050D01*
X31300Y35000D02*
X31400D01*
X31350D01*
Y35300D01*
X31300Y35250D01*
X34400Y30100D02*
X34350Y30150D01*
X34250D01*
X34200Y30100D01*
Y30050D01*
X34250Y30000D01*
X34350D01*
X34400Y29950D01*
Y29900D01*
X34350Y29850D01*
X34250D01*
X34200Y29900D01*
X34700Y29850D02*
X34500D01*
X34700Y30050D01*
Y30100D01*
X34650Y30150D01*
X34550D01*
X34500Y30100D01*
X28000Y35250D02*
X27950Y35300D01*
X27850D01*
X27800Y35250D01*
Y35200D01*
X27850Y35150D01*
X27950D01*
X28000Y35100D01*
Y35050D01*
X27950Y35000D01*
X27850D01*
X27800Y35050D01*
X28100Y35250D02*
X28150Y35300D01*
X28250D01*
X28300Y35250D01*
Y35200D01*
X28250Y35150D01*
X28200D01*
X28250D01*
X28300Y35100D01*
Y35050D01*
X28250Y35000D01*
X28150D01*
X28100Y35050D01*
X34400Y35250D02*
X34350Y35300D01*
X34250D01*
X34200Y35250D01*
Y35200D01*
X34250Y35150D01*
X34350D01*
X34400Y35100D01*
Y35050D01*
X34350Y35000D01*
X34250D01*
X34200Y35050D01*
X34650Y35000D02*
Y35300D01*
X34500Y35150D01*
X34700D01*
X34400Y40400D02*
X34350Y40450D01*
X34250D01*
X34200Y40400D01*
Y40350D01*
X34250Y40300D01*
X34350D01*
X34400Y40250D01*
Y40200D01*
X34350Y40150D01*
X34250D01*
X34200Y40200D01*
X34700Y40450D02*
X34500D01*
Y40300D01*
X34600Y40350D01*
X34650D01*
X34700Y40300D01*
Y40200D01*
X34650Y40150D01*
X34550D01*
X34500Y40200D01*
X31200Y40400D02*
X31150Y40450D01*
X31050D01*
X31000Y40400D01*
Y40350D01*
X31050Y40300D01*
X31150D01*
X31200Y40250D01*
Y40200D01*
X31150Y40150D01*
X31050D01*
X31000Y40200D01*
X31500Y40450D02*
X31400Y40400D01*
X31300Y40300D01*
Y40200D01*
X31350Y40150D01*
X31450D01*
X31500Y40200D01*
Y40250D01*
X31450Y40300D01*
X31300D01*
X31200Y30100D02*
X31150Y30150D01*
X31050D01*
X31000Y30100D01*
Y30050D01*
X31050Y30000D01*
X31150D01*
X31200Y29950D01*
Y29900D01*
X31150Y29850D01*
X31050D01*
X31000Y29900D01*
X31300Y30150D02*
X31500D01*
Y30100D01*
X31300Y29900D01*
Y29850D01*
X37900Y40620D02*
Y40370D01*
X37950Y40320D01*
X38050D01*
X38100Y40370D01*
Y40620D01*
X38400Y40320D02*
X38200D01*
X38400Y40520D01*
Y40570D01*
X38350Y40620D01*
X38250D01*
X38200Y40570D01*
X26700Y31390D02*
Y31140D01*
Y31390D02*
X26807D01*
X26843Y31378D01*
X26855Y31366D01*
X26867Y31342D01*
Y31319D01*
X26855Y31295D01*
X26843Y31283D01*
X26807Y31271D01*
X26700D01*
X26783D02*
X26867Y31140D01*
X26923Y31235D02*
X27065D01*
Y31259D01*
X27053Y31283D01*
X27042Y31295D01*
X27018Y31307D01*
X26982D01*
X26958Y31295D01*
X26934Y31271D01*
X26923Y31235D01*
Y31211D01*
X26934Y31176D01*
X26958Y31152D01*
X26982Y31140D01*
X27018D01*
X27042Y31152D01*
X27065Y31176D01*
X27119Y31307D02*
X27190Y31140D01*
X27262Y31307D02*
X27190Y31140D01*
X27314Y31307D02*
X27302Y31295D01*
X27314Y31283D01*
X27326Y31295D01*
X27314Y31307D01*
Y31164D02*
X27302Y31152D01*
X27314Y31140D01*
X27326Y31152D01*
X27314Y31164D01*
X27577Y31342D02*
X27601Y31354D01*
X27637Y31390D01*
Y31140D01*
X27772Y31164D02*
X27760Y31152D01*
X27772Y31140D01*
X27784Y31152D01*
X27772Y31164D01*
X27910Y31390D02*
X27875Y31378D01*
X27851Y31342D01*
X27839Y31283D01*
Y31247D01*
X27851Y31188D01*
X27875Y31152D01*
X27910Y31140D01*
X27934D01*
X27970Y31152D01*
X27994Y31188D01*
X28006Y31247D01*
Y31283D01*
X27994Y31342D01*
X27970Y31378D01*
X27934Y31390D01*
X27910D01*
X26700Y31910D02*
Y31660D01*
Y31910D02*
X26867Y31660D01*
Y31910D02*
Y31660D01*
X26959Y31910D02*
X26971Y31898D01*
X26983Y31910D01*
X26971Y31922D01*
X26959Y31910D01*
X26971Y31827D02*
Y31660D01*
X27170Y31791D02*
X27146Y31815D01*
X27123Y31827D01*
X27087D01*
X27063Y31815D01*
X27039Y31791D01*
X27027Y31755D01*
Y31731D01*
X27039Y31696D01*
X27063Y31672D01*
X27087Y31660D01*
X27123D01*
X27146Y31672D01*
X27170Y31696D01*
X27224Y31910D02*
Y31660D01*
X27343Y31827D02*
X27224Y31708D01*
X27271Y31755D02*
X27355Y31660D01*
X27781D02*
X27685Y31910D01*
X27590Y31660D01*
X27626Y31743D02*
X27745D01*
X27982Y31827D02*
Y31660D01*
Y31791D02*
X27958Y31815D01*
X27934Y31827D01*
X27899D01*
X27875Y31815D01*
X27851Y31791D01*
X27839Y31755D01*
Y31731D01*
X27851Y31696D01*
X27875Y31672D01*
X27899Y31660D01*
X27934D01*
X27958Y31672D01*
X27982Y31696D01*
X28179Y31791D02*
X28168Y31815D01*
X28132Y31827D01*
X28096D01*
X28060Y31815D01*
X28049Y31791D01*
X28060Y31767D01*
X28084Y31755D01*
X28144Y31743D01*
X28168Y31731D01*
X28179Y31708D01*
Y31696D01*
X28168Y31672D01*
X28132Y31660D01*
X28096D01*
X28060Y31672D01*
X28049Y31696D01*
X28375Y31827D02*
Y31660D01*
Y31791D02*
X28351Y31815D01*
X28327Y31827D01*
X28291D01*
X28268Y31815D01*
X28244Y31791D01*
X28232Y31755D01*
Y31731D01*
X28244Y31696D01*
X28268Y31672D01*
X28291Y31660D01*
X28327D01*
X28351Y31672D01*
X28375Y31696D01*
X28441Y31827D02*
Y31660D01*
Y31779D02*
X28477Y31815D01*
X28501Y31827D01*
X28537D01*
X28560Y31815D01*
X28572Y31779D01*
Y31660D01*
X28781Y31910D02*
Y31660D01*
Y31791D02*
X28757Y31815D01*
X28733Y31827D01*
X28697D01*
X28673Y31815D01*
X28650Y31791D01*
X28638Y31755D01*
Y31731D01*
X28650Y31696D01*
X28673Y31672D01*
X28697Y31660D01*
X28733D01*
X28757Y31672D01*
X28781Y31696D01*
X30220Y37189D02*
X30327D01*
X30363Y37201D01*
X30375Y37213D01*
X30387Y37237D01*
Y37272D01*
X30375Y37296D01*
X30363Y37308D01*
X30327Y37320D01*
X30220D01*
Y37070D01*
X30443Y37320D02*
Y37070D01*
X30585D01*
X30803D02*
X30708Y37320D01*
X30613Y37070D01*
X30648Y37153D02*
X30768D01*
X30862Y37320D02*
X30957Y37201D01*
Y37070D01*
X31052Y37320D02*
X30957Y37201D01*
X31084Y37034D02*
X31251Y37320D01*
X31267Y37189D02*
X31375D01*
X31410Y37201D01*
X31422Y37213D01*
X31434Y37237D01*
Y37272D01*
X31422Y37296D01*
X31410Y37308D01*
X31375Y37320D01*
X31267D01*
Y37070D01*
X31680D02*
X31585Y37320D01*
X31490Y37070D01*
X31526Y37153D02*
X31645D01*
X31739Y37320D02*
Y37141D01*
X31751Y37106D01*
X31774Y37082D01*
X31810Y37070D01*
X31834D01*
X31870Y37082D01*
X31893Y37106D01*
X31905Y37141D01*
Y37320D01*
X32141Y37284D02*
X32117Y37308D01*
X32082Y37320D01*
X32034D01*
X31998Y37308D01*
X31974Y37284D01*
Y37260D01*
X31986Y37237D01*
X31998Y37225D01*
X32022Y37213D01*
X32093Y37189D01*
X32117Y37177D01*
X32129Y37165D01*
X32141Y37141D01*
Y37106D01*
X32117Y37082D01*
X32082Y37070D01*
X32034D01*
X31998Y37082D01*
X31974Y37106D01*
X32352Y37320D02*
X32197D01*
Y37070D01*
X32352D01*
X32197Y37201D02*
X32292D01*
X30750Y38001D02*
X30845Y37751D01*
X30940Y38001D02*
X30845Y37751D01*
X31044Y38001D02*
X31020Y37989D01*
X30996Y37965D01*
X30984Y37941D01*
X30973Y37905D01*
Y37846D01*
X30984Y37810D01*
X30996Y37786D01*
X31020Y37763D01*
X31044Y37751D01*
X31092D01*
X31115Y37763D01*
X31139Y37786D01*
X31151Y37810D01*
X31163Y37846D01*
Y37905D01*
X31151Y37941D01*
X31139Y37965D01*
X31115Y37989D01*
X31092Y38001D01*
X31044D01*
X31221D02*
Y37751D01*
X31364D01*
X31695Y37965D02*
Y37751D01*
X31588Y37858D02*
X31802D01*
X34060Y38000D02*
Y37750D01*
Y38000D02*
X34155Y37750D01*
X34250Y38000D02*
X34155Y37750D01*
X34250Y38000D02*
Y37750D01*
X34322Y38000D02*
Y37821D01*
X34334Y37786D01*
X34358Y37762D01*
X34393Y37750D01*
X34417D01*
X34453Y37762D01*
X34477Y37786D01*
X34488Y37821D01*
Y38000D01*
X34641D02*
Y37750D01*
X34558Y38000D02*
X34724D01*
X34909D02*
X34754D01*
Y37750D01*
X34909D01*
X34754Y37881D02*
X34849D01*
X28910Y30100D02*
X29005Y29850D01*
X29100Y30100D02*
X29005Y29850D01*
X29204Y30100D02*
X29180Y30088D01*
X29156Y30064D01*
X29144Y30040D01*
X29133Y30005D01*
Y29945D01*
X29144Y29910D01*
X29156Y29886D01*
X29180Y29862D01*
X29204Y29850D01*
X29252D01*
X29275Y29862D01*
X29299Y29886D01*
X29311Y29910D01*
X29323Y29945D01*
Y30005D01*
X29311Y30040D01*
X29299Y30064D01*
X29275Y30088D01*
X29252Y30100D01*
X29204D01*
X29381D02*
Y29850D01*
X29524D01*
X29748Y29957D02*
X29962D01*
X35957Y30064D02*
X35933Y30088D01*
X35897Y30100D01*
X35850D01*
X35814Y30088D01*
X35790Y30064D01*
Y30040D01*
X35802Y30017D01*
X35814Y30005D01*
X35838Y29993D01*
X35909Y29969D01*
X35933Y29957D01*
X35945Y29945D01*
X35957Y29921D01*
Y29886D01*
X35933Y29862D01*
X35897Y29850D01*
X35850D01*
X35814Y29862D01*
X35790Y29886D01*
X36096Y30100D02*
Y29850D01*
X36013Y30100D02*
X36179D01*
X36280D02*
X36257Y30088D01*
X36233Y30064D01*
X36221Y30040D01*
X36209Y30005D01*
Y29945D01*
X36221Y29910D01*
X36233Y29886D01*
X36257Y29862D01*
X36280Y29850D01*
X36328D01*
X36352Y29862D01*
X36376Y29886D01*
X36387Y29910D01*
X36399Y29945D01*
Y30005D01*
X36387Y30040D01*
X36376Y30064D01*
X36352Y30088D01*
X36328Y30100D01*
X36280D01*
X36458Y29969D02*
X36565D01*
X36601Y29981D01*
X36612Y29993D01*
X36624Y30017D01*
Y30052D01*
X36612Y30076D01*
X36601Y30088D01*
X36565Y30100D01*
X36458D01*
Y29850D01*
X33325Y37320D02*
Y37070D01*
Y37320D02*
X33492Y37070D01*
Y37320D02*
Y37070D01*
X33715Y37320D02*
X33561D01*
Y37070D01*
X33715D01*
X33561Y37201D02*
X33656D01*
X33757Y37320D02*
X33924Y37070D01*
Y37320D02*
X33757Y37070D01*
X34063Y37320D02*
Y37070D01*
X33980Y37320D02*
X34146D01*
X34848D02*
Y37070D01*
X34765Y37320D02*
X34932D01*
X34962D02*
Y37070D01*
Y37320D02*
X35069D01*
X35104Y37308D01*
X35116Y37296D01*
X35128Y37272D01*
Y37249D01*
X35116Y37225D01*
X35104Y37213D01*
X35069Y37201D01*
X34962D01*
X35045D02*
X35128Y37070D01*
X35375D02*
X35279Y37320D01*
X35184Y37070D01*
X35220Y37153D02*
X35339D01*
X35611Y37260D02*
X35600Y37284D01*
X35576Y37308D01*
X35552Y37320D01*
X35504D01*
X35480Y37308D01*
X35457Y37284D01*
X35445Y37260D01*
X35433Y37225D01*
Y37165D01*
X35445Y37130D01*
X35457Y37106D01*
X35480Y37082D01*
X35504Y37070D01*
X35552D01*
X35576Y37082D01*
X35600Y37106D01*
X35611Y37130D01*
X35682Y37320D02*
Y37070D01*
X35848Y37320D02*
X35682Y37153D01*
X35741Y37213D02*
X35848Y37070D01*
X27020Y37189D02*
X27127D01*
X27163Y37201D01*
X27175Y37213D01*
X27187Y37237D01*
Y37272D01*
X27175Y37296D01*
X27163Y37308D01*
X27127Y37320D01*
X27020D01*
Y37070D01*
X27243Y37320D02*
Y37070D01*
Y37320D02*
X27350D01*
X27385Y37308D01*
X27397Y37296D01*
X27409Y37272D01*
Y37249D01*
X27397Y37225D01*
X27385Y37213D01*
X27350Y37201D01*
X27243D01*
X27326D02*
X27409Y37070D01*
X27620Y37320D02*
X27465D01*
Y37070D01*
X27620D01*
X27465Y37201D02*
X27560D01*
X27662Y37320D02*
X27757Y37070D01*
X27852Y37320D02*
X27757Y37070D01*
X28164Y37320D02*
Y37070D01*
X28080Y37320D02*
X28247D01*
X28277D02*
Y37070D01*
Y37320D02*
X28384D01*
X28420Y37308D01*
X28432Y37296D01*
X28444Y37272D01*
Y37249D01*
X28432Y37225D01*
X28420Y37213D01*
X28384Y37201D01*
X28277D01*
X28360D02*
X28444Y37070D01*
X28690D02*
X28595Y37320D01*
X28499Y37070D01*
X28535Y37153D02*
X28654D01*
X28927Y37260D02*
X28915Y37284D01*
X28891Y37308D01*
X28867Y37320D01*
X28820D01*
X28796Y37308D01*
X28772Y37284D01*
X28760Y37260D01*
X28748Y37225D01*
Y37165D01*
X28760Y37130D01*
X28772Y37106D01*
X28796Y37082D01*
X28820Y37070D01*
X28867D01*
X28891Y37082D01*
X28915Y37106D01*
X28927Y37130D01*
X28997Y37320D02*
Y37070D01*
X29164Y37320D02*
X28997Y37153D01*
X29056Y37213D02*
X29164Y37070D01*
D46*
X28300Y39685D02*
Y40079D01*
X28103Y39882D02*
X28497D01*
X28300Y30315D02*
Y29921D01*
X28497Y30118D02*
X28103D01*
D47*
X24750Y37705D02*
Y38098D01*
X24553Y37902D02*
X24947D01*
X24750Y32395D02*
Y32002D01*
X24947Y32198D02*
X24553D01*
M02*
